<svg width="50" height="35" viewBox="0 0 50 35" fill="none" xmlns="http://www.w3.org/2000/svg">
<g clip-path="url(#clip0_331_1742)">
<path d="M28.4083 8.33368C29.2755 7.45035 29.8144 6.23035 29.8144 4.88364C29.8144 2.18659 27.6588 0 25 0C23.3191 0 21.8415 0.876086 20.9814 2.20108C20.753 2.43277 1.58815 26.3948 1.40971 26.6699C0.542469 27.5533 0.00356865 28.7733 0.00356865 30.12C0.00356865 32.817 2.15917 35.0036 4.81799 35.0036C6.49893 35.0036 7.97645 34.1275 8.83654 32.8025C9.06495 32.5709 28.2298 8.60881 28.4083 8.33368Z" fill="white"/>
<path d="M39.4968 19.7011C40.3676 18.8177 40.9065 17.5977 40.9065 16.2474C40.9065 13.5504 38.7509 11.3638 36.0921 11.3638C34.4111 11.3638 32.9336 12.2399 32.0699 13.5649C31.838 13.8002 21.7737 26.3839 21.5917 26.6627C20.7209 27.546 20.182 28.766 20.182 30.1164C20.182 32.8134 22.3376 35 24.9964 35C26.6774 35 28.1549 34.1239 29.0186 32.7989C29.2505 32.5636 39.3148 19.9798 39.4968 19.7011Z" fill="#FDDB30"/>
<path d="M50 4.88364C50 7.58068 47.8444 9.76727 45.1856 9.76727C42.5268 9.76727 40.3712 7.58068 40.3712 4.88364C40.3712 2.18659 42.5268 0 45.1856 0C47.8444 0 50 2.18659 50 4.88364Z" fill="white"/>
<path d="M9.62884 4.88364C9.62884 7.58068 7.47323 9.76727 4.81442 9.76727C2.1556 9.76727 0 7.58068 0 4.88364C0 2.18659 2.1556 0 4.81442 0C7.47323 0 9.62884 2.18659 9.62884 4.88364Z" fill="#FDDB30"/>
</g>
<defs>
<clipPath id="clip0_331_1742">
<rect width="50" height="35" fill="white"/>
</clipPath>
</defs>
</svg>
