<svg width="23" height="16" viewBox="0 0 23 16" fill="none" xmlns="http://www.w3.org/2000/svg">
<g clip-path="url(#clip0_423_2213)">
<path d="M12.9865 3.80968C13.3829 3.40587 13.6293 2.84816 13.6293 2.23252C13.6293 0.999586 12.6439 0 11.4284 0C10.66 0 9.98454 0.400496 9.59135 1.00621C9.48693 1.11212 0.725845 12.0662 0.644271 12.192C0.247819 12.5958 0.00146484 13.1535 0.00146484 13.7691C0.00146484 15.0021 0.986883 16.0017 2.20234 16.0017C2.97077 16.0017 3.64621 15.6012 4.0394 14.9954C4.14381 14.8895 12.9049 3.93546 12.9865 3.80968Z" fill="#1D2127"/>
<path d="M18.0557 9.00619C18.4538 8.60238 18.7001 8.04467 18.7001 7.42737C18.7001 6.19444 17.7147 5.19485 16.4992 5.19485C15.7308 5.19485 15.0554 5.59535 14.6606 6.20106C14.5545 6.30863 9.95372 12.0612 9.87051 12.1886C9.47243 12.5925 9.22607 13.1502 9.22607 13.7675C9.22607 15.0004 10.2115 16 11.427 16C12.1954 16 12.8708 15.5995 13.2656 14.9938C13.3717 14.8862 17.9725 9.13362 18.0557 9.00619Z" fill="#FDDB30"/>
<path d="M22.8573 2.23252C22.8573 3.46545 21.8719 4.46504 20.6564 4.46504C19.441 4.46504 18.4556 3.46545 18.4556 2.23252C18.4556 0.999586 19.441 0 20.6564 0C21.8719 0 22.8573 0.999586 22.8573 2.23252Z" fill="#1D2127"/>
<path d="M4.40175 2.23252C4.40175 3.46545 3.41633 4.46504 2.20088 4.46504C0.985418 4.46504 0 3.46545 0 2.23252C0 0.999586 0.985418 0 2.20088 0C3.41633 0 4.40175 0.999586 4.40175 2.23252Z" fill="#FDDB30"/>
</g>
<defs>
<clipPath id="clip0_423_2213">
<rect width="22.8571" height="16" fill="white"/>
</clipPath>
</defs>
</svg>
