<svg width="68" height="20" viewBox="0 0 68 20" fill="none" xmlns="http://www.w3.org/2000/svg">
<g clip-path="url(#clip0_514_3283)">
<path d="M20.4984 8.95333H14.4037L19.6817 5.90667L18.635 4.09333L13.3564 7.14L16.403 1.86333L14.5897 0.816667L11.5424 6.092V0H9.4477V6.09267L6.40037 0.816667L4.58637 1.86333L7.63303 7.13867L2.3557 4.09333L1.30837 5.90667L6.58637 8.95333H0.491699V11.0473H6.5857L1.30837 14.094L2.35503 15.9073L7.6337 12.8607L4.58637 18.1373L6.3997 19.184L9.4477 13.908V20H11.5424V13.7773L14.6457 19.1507L16.3464 18.1693L13.2424 12.7947L18.6337 15.9067L19.681 14.0933L14.4037 11.0467H20.4977V8.95333H20.4984ZM10.495 12.8467C10.1211 12.8467 9.75083 12.7731 9.40536 12.6301C9.0599 12.487 8.74597 12.2773 8.48157 12.0129C8.21717 11.7486 8.00737 11.4347 7.86423 11.0893C7.7211 10.7438 7.64743 10.3736 7.64737 9.99967C7.6473 9.62573 7.7209 9.25547 7.86397 8.91C8.00703 8.56453 8.2167 8.2506 8.4811 7.9862C8.74543 7.7218 9.0593 7.512 9.40477 7.36887C9.75023 7.22573 10.1204 7.15207 10.4944 7.152C11.2495 7.15193 11.9738 7.4518 12.5078 7.98573C13.0419 8.51967 13.342 9.24387 13.342 9.999C13.3421 10.7541 13.0422 11.4784 12.5083 12.0125C11.9744 12.5465 11.2502 12.8466 10.495 12.8467Z" fill="#5753F3"/>
<path d="M25.8977 17.3154V2.68469H28.583V17.3154H25.8977ZM51.653 7.37269H54.217V8.58602C54.7624 7.61602 56.035 7.09003 57.125 7.09003C58.4784 7.09003 59.5684 7.67669 60.073 8.74669C60.8597 7.53336 61.9104 7.09003 63.223 7.09003C65.0604 7.09003 66.8164 8.20136 66.8164 10.8687V17.3154H64.2124V11.4147C64.2124 10.3434 63.687 9.53469 62.455 9.53469C61.3037 9.53469 60.617 10.4247 60.617 11.496V17.316H57.953V11.4147C57.953 10.3434 57.4077 9.53469 56.1957 9.53469C55.0244 9.53469 54.3377 10.4047 54.3377 11.496V17.316H51.653V7.37269ZM34.6517 17.6034C31.6264 17.6034 29.4357 15.3587 29.4357 12.344C29.4357 9.37736 31.6197 7.08003 34.6517 7.08003C37.6984 7.08003 39.8677 9.39869 39.8677 12.344C39.8677 15.3374 37.6757 17.6034 34.6517 17.6034ZM34.6517 9.51336C33.9013 9.51443 33.182 9.81309 32.6515 10.344C32.1211 10.8748 31.8229 11.5943 31.8224 12.3447C31.8229 13.0951 32.1211 13.8146 32.6515 14.3454C33.182 14.8763 33.9013 15.175 34.6517 15.176C35.402 15.1748 36.1212 14.876 36.6514 14.3452C37.1817 13.8144 37.4798 13.095 37.4804 12.3447C37.4798 11.5944 37.1817 10.875 36.6514 10.3442C36.1212 9.81336 35.402 9.51463 34.6517 9.51336ZM45.603 17.6034C42.5777 17.6034 40.387 15.3587 40.387 12.344C40.387 9.37736 42.571 7.08003 45.603 7.08003C48.6497 7.08003 50.819 9.39869 50.819 12.344C50.819 15.3374 48.6257 17.6034 45.603 17.6034ZM45.603 9.47936C44.844 9.48063 44.1164 9.78282 43.58 10.3197C43.0434 10.8566 42.7417 11.5844 42.741 12.3434C42.7417 13.1024 43.0434 13.8302 43.58 14.367C44.1164 14.9039 44.844 15.2061 45.603 15.2074C46.362 15.2061 47.0896 14.9039 47.6261 14.367C48.1626 13.8302 48.4643 13.1024 48.465 12.3434C48.4643 11.5844 48.1626 10.8566 47.6261 10.3197C47.0896 9.78282 46.362 9.48063 45.603 9.47936Z" fill="#1E1E1E"/>
</g>
<defs>
<clipPath id="clip0_514_3283">
<rect width="66.6667" height="20" fill="white" transform="translate(0.491699)"/>
</clipPath>
</defs>
</svg>
