<svg width="71" height="20" viewBox="0 0 71 20" fill="none" xmlns="http://www.w3.org/2000/svg">
<g clip-path="url(#clip0_514_3282)">
<path d="M15.2052 3.788C15.1915 3.68866 15.1048 3.63354 15.0327 3.62754C14.9612 3.62154 13.5608 3.60026 13.5608 3.60026C13.5608 3.60026 12.3895 2.46287 12.2738 2.34716C12.1582 2.23146 11.9322 2.26639 11.8443 2.29259C11.8432 2.29313 11.6244 2.36081 11.256 2.47488C11.1943 2.27512 11.1037 2.02952 10.9744 1.78284C10.5574 0.987102 9.94669 0.566311 9.20879 0.565223C9.20771 0.565223 9.20715 0.565223 9.20607 0.565223C9.15475 0.565223 9.104 0.570134 9.05272 0.574498C9.03089 0.548302 9.00905 0.522652 8.98613 0.497544C8.66466 0.15371 8.25262 -0.013842 7.75869 0.000893809C6.80577 0.0281824 5.85669 0.7164 5.08715 1.93893C4.54574 2.79906 4.13367 3.8797 4.01689 4.71636C2.92261 5.05528 2.15743 5.29213 2.14052 5.29761C1.58819 5.47115 1.57073 5.48807 1.49869 6.00875C1.4452 6.40223 0 17.5775 0 17.5775L12.1112 19.6721L17.3604 18.3672C17.3604 18.3672 15.2188 3.88734 15.2052 3.788ZM10.6496 2.66262C10.3708 2.74885 10.0536 2.84709 9.7098 2.95352C9.70272 2.47106 9.64541 1.79976 9.42056 1.2196C10.1437 1.35659 10.4995 2.1747 10.6496 2.66262ZM9.07617 3.14999C8.44144 3.34646 7.74885 3.56095 7.0541 3.776C7.24948 3.02774 7.62007 2.28276 8.07525 1.7943C8.24443 1.61256 8.48128 1.41008 8.7618 1.29437C9.02541 1.84451 9.08272 2.62332 9.07617 3.14999ZM7.77777 0.635079C8.00154 0.630167 8.18984 0.679289 8.35085 0.785167C8.09325 0.918882 7.84436 1.11099 7.61079 1.3615C7.00551 2.01097 6.54161 3.01901 6.35659 3.99157C5.77971 4.17003 5.21538 4.34525 4.6958 4.5057C5.02384 2.9748 6.30692 0.677649 7.77777 0.635079Z" fill="#95BF47"/>
<path d="M15.0333 3.62809C14.9618 3.62209 13.5614 3.60081 13.5614 3.60081C13.5614 3.60081 12.3902 2.46342 12.2745 2.34772C12.2314 2.3046 12.173 2.28222 12.1118 2.27295L12.1124 19.6716L17.3611 18.3672C17.3611 18.3672 15.2195 3.88789 15.2058 3.78855C15.1921 3.6892 15.1048 3.63409 15.0333 3.62809Z" fill="#5E8E3E"/>
<path d="M9.20222 6.32697L8.59261 8.60772C8.59261 8.60772 7.91258 8.29828 7.10648 8.34903C5.92431 8.42382 5.91176 9.16933 5.92379 9.35654C5.98818 10.3766 8.67172 10.5993 8.82238 12.9886C8.94081 14.8683 7.82523 16.1541 6.21795 16.2556C4.28864 16.3773 3.22656 15.2394 3.22656 15.2394L3.63536 13.5006C3.63536 13.5006 4.70451 14.3072 5.56028 14.2532C6.11917 14.2177 6.3189 13.7631 6.29871 13.4416C6.21467 12.111 4.0294 12.1896 3.89133 10.0033C3.77507 8.16349 4.98343 6.29913 7.64949 6.13103C8.67664 6.065 9.20222 6.32697 9.20222 6.32697Z" fill="white"/>
<path d="M24.2729 11.1029C23.6693 10.7754 23.3591 10.4993 23.3591 10.1198C23.3591 9.63698 23.79 9.32678 24.4629 9.32678C25.2462 9.32678 25.9455 9.65429 25.9455 9.65429L26.4972 7.96429C26.4972 7.96429 25.9899 7.5675 24.497 7.5675C22.4194 7.5675 20.9795 8.75731 20.9795 10.43C20.9795 11.3784 21.6518 12.1027 22.5488 12.6196C23.2731 13.0332 23.5318 13.3266 23.5318 13.7575C23.5318 14.2057 23.1697 14.5679 22.4973 14.5679C21.4953 14.5679 20.5491 14.0504 20.5491 14.0504L19.9629 15.7404C19.9629 15.7404 20.8371 16.3266 22.3079 16.3266C24.4461 16.3266 25.9808 15.2748 25.9808 13.378C25.9802 12.3614 25.2045 11.6371 24.2729 11.1029Z" fill="black"/>
<path d="M32.7913 7.55069C31.7394 7.55069 30.9117 8.05089 30.2741 8.80928L30.2394 8.79193L31.1531 4.01587H28.7735L26.4631 16.1718H28.8428L29.6358 12.0166C29.946 10.4473 30.7563 9.48213 31.5153 9.48213C32.0496 9.48213 32.2569 9.84426 32.2569 10.3618C32.2569 10.6893 32.2223 11.0861 32.1535 11.4136L31.2571 16.1723H33.6368L34.5677 11.2582C34.6713 10.7407 34.7404 10.1204 34.7404 9.70623C34.7395 8.36105 34.0326 7.55069 32.7913 7.55069Z" fill="black"/>
<path d="M40.119 7.55066C37.2564 7.55066 35.3604 10.1371 35.3604 13.0164C35.3604 14.8612 36.4981 16.3439 38.6364 16.3439C41.4469 16.3439 43.3436 13.8268 43.3436 10.8782C43.3436 9.17138 42.3433 7.55066 40.119 7.55066ZM38.9466 14.5169C38.1361 14.5169 37.7912 13.8273 37.7912 12.965C37.7912 11.603 38.4984 9.37873 39.7915 9.37873C40.6364 9.37873 40.9118 10.103 40.9118 10.81C40.9118 12.2753 40.2056 14.5169 38.9466 14.5169Z" fill="black"/>
<path d="M49.4301 7.55066C47.8238 7.55066 46.9124 8.96459 46.9124 8.96459H46.8783L47.0163 7.68869H44.9127C44.8094 8.55102 44.6192 9.86102 44.4301 10.8441L42.7747 19.5512H45.1543L45.8091 16.0337H45.8612C45.8612 16.0337 46.3494 16.3439 47.2579 16.3439C50.051 16.3439 51.8786 13.4819 51.8786 10.5848C51.8786 8.98194 51.1714 7.55066 49.4301 7.55066ZM47.154 14.551C46.5363 14.551 46.1707 14.2062 46.1707 14.2062L46.5674 11.9819C46.8435 10.4992 47.6193 9.5162 48.4471 9.5162C49.1714 9.5162 49.3953 10.1885 49.3953 10.8268C49.3953 12.3614 48.4815 14.551 47.154 14.551Z" fill="black"/>
<path d="M55.2753 4.1366C54.5169 4.1366 53.9133 4.74017 53.9133 5.51588C53.9133 6.22286 54.3615 6.70571 55.034 6.70571H55.0684C55.81 6.70571 56.4478 6.20551 56.4651 5.32643C56.4651 4.63676 55.9996 4.1366 55.2753 4.1366Z" fill="black"/>
<path d="M51.9478 16.1718H54.3268L55.9481 7.74072H53.551L51.9478 16.1718Z" fill="black"/>
<path d="M62.0004 7.72339H60.345L60.4309 7.3266C60.5689 6.51624 61.0519 5.79195 61.845 5.79195C62.2683 5.79195 62.6034 5.91267 62.6034 5.91267L63.0689 4.05054C63.0689 4.05054 62.6552 3.84375 61.7755 3.84375C60.9306 3.84375 60.0863 4.08516 59.448 4.63677C58.6375 5.32644 58.2581 6.32624 58.0686 7.3266L58.0001 7.72339H56.8962L56.5512 9.5168H57.6552L56.3965 16.1723H58.7762L60.0348 9.5168H61.6729L62.0004 7.72339Z" fill="black"/>
<path d="M67.7247 7.74067C67.7247 7.74067 66.2372 11.4882 65.5693 13.5339H65.5345C65.4893 12.8751 64.9483 7.74067 64.9483 7.74067H62.448L63.8798 15.4821C63.9145 15.6542 63.8972 15.7582 63.828 15.8789C63.5516 16.4132 63.0863 16.9307 62.5345 17.3101C62.0863 17.6376 61.5863 17.8444 61.1899 17.9824L61.845 20C62.328 19.8966 63.3276 19.4998 64.1726 18.7067C65.2591 17.6896 66.2588 16.1203 67.2932 13.9821L70.2073 7.74011H67.7247V7.74067Z" fill="black"/>
</g>
<defs>
<clipPath id="clip0_514_3282">
<rect width="70.4918" height="20" fill="white"/>
</clipPath>
</defs>
</svg>
