<svg width="20" height="20" viewBox="0 0 20 20" fill="none" xmlns="http://www.w3.org/2000/svg">
<path fill-rule="evenodd" clip-rule="evenodd" d="M18.8536 0.646447C19.0488 0.841709 19.0488 1.15829 18.8536 1.35355L16.2267 3.9804L16.2177 3.98962L16.2077 3.99944L9.85355 10.3536C9.65829 10.5488 9.34171 10.5488 9.14645 10.3536C8.95119 10.1583 8.95119 9.84171 9.14645 9.64645L11.9524 6.8405C11.3515 6.37472 10.6272 6.0876 9.86313 6.01831C8.93175 5.93384 8.00021 6.17838 7.23042 6.70944C6.46063 7.2405 5.90124 8.0245 5.64949 8.92518C5.39774 9.82586 5.46954 10.7863 5.8524 11.6395C6.23526 12.4928 6.90499 13.1849 7.74519 13.5956C8.58538 14.0063 9.54292 14.1096 10.4514 13.8876C11.3599 13.6656 12.1618 13.1323 12.7179 12.3804C13.274 11.6285 13.549 10.7055 13.4952 9.77181C13.4793 9.49613 13.6899 9.25976 13.9656 9.24387C14.2413 9.22799 14.4777 9.43859 14.4936 9.71428C14.5608 10.8813 14.217 12.0351 13.5219 12.975C12.8268 13.9149 11.8244 14.5815 10.6888 14.859C9.5532 15.1365 8.35627 15.0074 7.30603 14.494C6.25578 13.9806 5.41862 13.1155 4.94004 12.0489C4.46146 10.9824 4.37172 9.78184 4.68641 8.65599C5.00109 7.53014 5.70032 6.55014 6.66256 5.88631C7.62481 5.22249 8.78923 4.91681 9.95345 5.0224C10.9509 5.11286 11.8941 5.50027 12.664 6.12888L15.1457 3.64722C13.6872 2.35454 11.8235 1.59948 9.86618 1.51849C7.74149 1.43059 5.66119 2.14333 4.03683 3.51573C2.41246 4.88813 1.36236 6.82021 1.09425 8.92975C0.826149 11.0393 1.35958 13.1726 2.58901 14.9077C3.81844 16.6428 5.65432 17.8533 7.73346 18.2996C9.81259 18.746 11.9835 18.3957 13.8168 17.3182C15.6501 16.2406 17.0121 14.5142 17.6335 12.4805C18.2549 10.4468 18.0904 8.25394 17.1724 6.33575C17.0532 6.08666 17.1585 5.7881 17.4076 5.6689C17.6567 5.5497 17.9553 5.655 18.0745 5.90409C19.1005 8.04825 19.2845 10.4994 18.5899 12.7727C17.8953 15.046 16.3728 16.9757 14.3235 18.1803C12.2743 19.3848 9.84762 19.7763 7.52355 19.2774C5.19949 18.7784 3.14734 17.4254 1.77308 15.4859C0.398813 13.5464 -0.197455 11.1617 0.102232 8.80368C0.401918 6.44563 1.57573 4.28594 3.39145 2.75187C5.20717 1.21779 7.53254 0.421084 9.90752 0.519348C12.1156 0.610708 14.2171 1.46951 15.8539 2.93897L18.1464 0.646447C18.3417 0.451184 18.6583 0.451184 18.8536 0.646447Z" fill="white" fill-opacity="0.4"/>
</svg>
