<svg width="88" height="20" viewBox="0 0 88 20" fill="none" xmlns="http://www.w3.org/2000/svg">
<g clip-path="url(#clip0_514_3284)">
<path d="M11.568 7.37143H16.8061V16.6476H0.158447V7.37143H5.39654V12H11.5489V7.37143H11.568ZM29.2823 12.1143C29.2823 13.6952 28.2537 14.6095 26.8251 14.6095C25.4346 14.6095 24.387 13.6762 24.387 12.1143V4.64762H22.0632V12.0952C22.0632 15.0286 24.1584 16.8952 26.8442 16.8952C29.5489 16.8952 31.6251 15.0286 31.6251 12.0952V4.64762H29.3013V12.1143H29.2823ZM37.6061 8.09524C36.7108 8.09524 35.7204 8.47619 35.2061 9.35238V8.32381H33.0346V16.6476H35.2823V11.8476C35.2823 10.8762 35.8537 10.1143 36.8442 10.1143C37.9299 10.1143 38.387 10.8381 38.387 11.7714V16.6286H40.6346V11.3905C40.6156 9.5619 39.6632 8.09524 37.6061 8.09524ZM45.8537 11.6C45.8537 11.6 45.0918 11.4476 44.6156 11.3524C44.1394 11.2571 43.8537 11.0095 43.8537 10.6095C43.8537 10.1333 44.2727 9.79048 44.8632 9.79048C45.7013 9.79048 46.0251 10.2095 46.1013 10.7238H48.0442C48.0251 9.58095 47.1299 8.09524 44.9013 8.09524C43.1108 8.09524 41.7965 9.33333 41.7965 10.819C41.7965 11.981 42.5204 12.9524 44.1204 13.2952L45.2632 13.5429C45.9108 13.6762 46.1584 13.981 46.1584 14.3619C46.1584 14.8 45.7584 15.181 45.0156 15.181C44.1204 15.181 43.6251 14.6667 43.5108 14.0762H41.5108C41.6251 15.3143 42.5204 16.8952 45.0346 16.8952C47.2061 16.8952 48.3108 15.5048 48.3108 14.1524C48.3299 12.9333 47.4918 11.9429 45.8537 11.6ZM57.8918 12.4571C57.8918 14.9714 56.3108 16.8381 53.968 16.8381C52.8251 16.8381 51.968 16.381 51.568 15.8286V19.8476H49.3204V8.32381H51.4918V9.35238C51.8727 8.70476 52.787 8.13333 54.0442 8.13333C56.4823 8.13333 57.8918 10 57.8918 12.4571ZM55.6823 12.4762C55.6823 11.0095 54.768 10.1524 53.6251 10.1524C52.4823 10.1524 51.5489 11.0095 51.5489 12.4762C51.5489 13.9429 52.4823 14.819 53.6251 14.819C54.768 14.819 55.6823 13.9619 55.6823 12.4762ZM68.6346 8.32381H70.8061V16.6476H68.5584V15.619C68.1775 16.2857 67.3013 16.8381 66.1584 16.8381C63.8156 16.8381 62.2346 14.9714 62.2346 12.4571C62.2346 9.98095 63.6442 8.13333 66.0632 8.13333C67.3204 8.13333 68.2156 8.70476 68.6156 9.35238V8.32381H68.6346ZM68.5965 12.4762C68.5965 11.0095 67.6632 10.1524 66.5204 10.1524C65.3775 10.1524 64.4632 11.0095 64.4632 12.4762C64.4632 13.9619 65.3775 14.819 66.5204 14.819C67.6632 14.819 68.5965 13.9429 68.5965 12.4762ZM58.9394 16.6286H61.187V4.64762H58.9394V16.6286ZM84.1584 8.09524C83.3585 8.09524 82.4442 8.36191 81.9108 9.00952V4.64762H79.6632V16.6286H81.9108V11.7524C81.968 10.8381 82.5204 10.1333 83.4727 10.1333C84.5584 10.1333 85.0156 10.8571 85.0156 11.7905V16.6476H87.2632V11.4095C87.2442 9.5619 86.2727 8.09524 84.1584 8.09524ZM76.1584 11.6C76.1584 11.6 75.3965 11.4476 74.9204 11.3524C74.4442 11.2571 74.1584 11.0095 74.1584 10.6095C74.1584 10.1333 74.5775 9.79048 75.168 9.79048C76.0061 9.79048 76.3299 10.2095 76.4061 10.7238H78.3489C78.3299 9.58095 77.4346 8.09524 75.2061 8.09524C73.4156 8.09524 72.1013 9.33333 72.1013 10.819C72.1013 11.981 72.8251 12.9524 74.4251 13.2952L75.568 13.5429C76.2156 13.6762 76.4632 13.981 76.4632 14.3619C76.4632 14.8 76.0632 15.181 75.3204 15.181C74.4251 15.181 73.9299 14.6667 73.8156 14.0762H71.8156C71.9299 15.3143 72.8251 16.8952 75.3394 16.8952C77.5108 16.8952 78.6156 15.5048 78.6156 14.1524C78.6346 12.9333 77.7965 11.9429 76.1584 11.6ZM11.568 0H5.39654V4.64762H11.5489V0H11.568Z" fill="black"/>
</g>
<defs>
<clipPath id="clip0_514_3284">
<rect width="87.2381" height="20" fill="white" transform="translate(0.158447)"/>
</clipPath>
</defs>
</svg>
