<svg width="20" height="20" viewBox="0 0 20 20" fill="none" xmlns="http://www.w3.org/2000/svg">
<path d="M17.193 13.8234C16.7508 13.0625 16.0937 10.9164 16.0937 8.125C16.0937 6.50884 15.4517 4.95887 14.3089 3.81607C13.1661 2.67327 11.6162 2.03125 10 2.03125C8.38383 2.03125 6.83386 2.67327 5.69106 3.81607C4.54826 4.95887 3.90625 6.50884 3.90625 8.125C3.90625 10.9172 3.24843 13.0625 2.80625 13.8234C2.70923 13.9896 2.65775 14.1784 2.657 14.3708C2.65625 14.5631 2.70626 14.7523 2.80199 14.9192C2.89771 15.0861 3.03576 15.2248 3.20221 15.3213C3.36866 15.4177 3.55761 15.4686 3.75 15.4688H7.06875C7.1826 16.1636 7.53974 16.7954 8.0764 17.2513C8.61305 17.7072 9.29428 17.9575 9.99843 17.9575C10.7026 17.9575 11.3838 17.7072 11.9205 17.2513C12.4571 16.7954 12.8143 16.1636 12.9281 15.4688H16.25C16.4423 15.4683 16.631 15.4173 16.7972 15.3207C16.9635 15.2241 17.1013 15.0854 17.1968 14.9185C17.2924 14.7517 17.3422 14.5626 17.3414 14.3704C17.3406 14.1781 17.2891 13.9895 17.1922 13.8234H17.193ZM10 17.0313C9.54289 17.0311 9.0992 16.8768 8.74066 16.5932C8.38212 16.3097 8.1297 15.9135 8.02421 15.4688H11.9758C11.8703 15.9135 11.6179 16.3097 11.2593 16.5932C10.9008 16.8768 10.4571 17.0311 10 17.0313ZM16.3836 14.4531C16.3707 14.4771 16.3515 14.497 16.3281 14.5108C16.3047 14.5245 16.2779 14.5316 16.2508 14.5313H3.75C3.72283 14.5316 3.69608 14.5245 3.67266 14.5108C3.64924 14.497 3.63005 14.4771 3.61718 14.4531C3.60347 14.4294 3.59625 14.4024 3.59625 14.375C3.59625 14.3476 3.60347 14.3206 3.61718 14.2969C4.20859 13.2813 4.84375 10.9133 4.84375 8.125C4.84375 6.75748 5.38699 5.44597 6.35398 4.47898C7.32096 3.512 8.63247 2.96875 10 2.96875C11.3675 2.96875 12.679 3.512 13.646 4.47898C14.613 5.44597 15.1562 6.75748 15.1562 8.125C15.1562 10.9125 15.7922 13.2773 16.3836 14.2969C16.3973 14.3206 16.4045 14.3476 16.4045 14.375C16.4045 14.4024 16.3973 14.4294 16.3836 14.4531Z" fill="#F7B40A"/>
</svg>
