<svg width="16" height="16" viewBox="0 0 16 16" fill="none" xmlns="http://www.w3.org/2000/svg">
<g id="Bicycle">
<path id="Vector" d="M13 7.125C12.618 7.12473 12.2397 7.2008 11.8875 7.34875L10.1531 4.375H12C12.1658 4.375 12.3247 4.44085 12.4419 4.55806C12.5592 4.67527 12.625 4.83424 12.625 5C12.625 5.09946 12.6645 5.19484 12.7348 5.26516C12.8052 5.33549 12.9005 5.375 13 5.375C13.0995 5.375 13.1948 5.33549 13.2652 5.26516C13.3355 5.19484 13.375 5.09946 13.375 5C13.375 4.63533 13.2301 4.28559 12.9723 4.02773C12.7144 3.76987 12.3647 3.625 12 3.625H9.5C9.43426 3.62518 9.36972 3.64263 9.31285 3.67562C9.25599 3.7086 9.20879 3.75596 9.176 3.81294C9.1432 3.86991 9.12596 3.93451 9.12601 4.00025C9.12605 4.06599 9.14338 4.13057 9.17625 4.1875L10.0138 5.625H6.13188L5.07375 3.8125C5.04092 3.75564 4.99374 3.7084 4.93693 3.67549C4.88011 3.64259 4.81566 3.62518 4.75 3.625H3C2.90054 3.625 2.80516 3.66451 2.73484 3.73483C2.66451 3.80516 2.625 3.90054 2.625 4C2.625 4.09946 2.66451 4.19484 2.73484 4.26516C2.80516 4.33549 2.90054 4.375 3 4.375H4.53438L5.47188 5.9775L4.375 7.47625C3.73189 7.12325 2.97857 7.02815 2.26791 7.21026C1.55725 7.39237 0.942499 7.83805 0.548417 8.45683C0.154335 9.07562 0.0104463 9.82117 0.145951 10.5422C0.281456 11.2632 0.686203 11.9056 1.27805 12.3391C1.8699 12.7726 2.60451 12.9647 3.33279 12.8763C4.06108 12.788 4.72848 12.4259 5.19954 11.8635C5.67061 11.3011 5.91005 10.5805 5.86928 9.84805C5.82851 9.11556 5.51057 8.42602 4.98 7.91937L5.88188 6.6875L7.92625 10.1875C7.95913 10.2445 8.00641 10.2918 8.06334 10.3247C8.12028 10.3576 8.18486 10.3749 8.25062 10.375C8.31658 10.375 8.38132 10.3573 8.43812 10.3237C8.52394 10.2736 8.58636 10.1915 8.61167 10.0954C8.63698 9.99934 8.62312 9.89713 8.57312 9.81125L6.56875 6.37375H10.4506L11.24 7.7275C10.7019 8.1445 10.3292 8.73892 10.1883 9.40494C10.0474 10.071 10.1474 10.7654 10.4705 11.3646C10.7937 11.9638 11.3189 12.4289 11.9528 12.6771C12.5867 12.9253 13.2881 12.9405 13.9322 12.72C14.5763 12.4995 15.1212 12.0577 15.47 11.473C15.8188 10.8884 15.9489 10.199 15.837 9.52749C15.7251 8.85599 15.3786 8.24596 14.859 7.80602C14.3395 7.36607 13.6808 7.12475 13 7.125ZM5.125 10C5.12508 10.4614 4.97501 10.9102 4.69747 11.2787C4.41994 11.6473 4.03 11.9155 3.58657 12.0428C3.14315 12.1702 2.67032 12.1497 2.23952 11.9846C1.80873 11.8195 1.44337 11.5187 1.19863 11.1276C0.9539 10.7365 0.84309 10.2764 0.882944 9.8168C0.922799 9.35717 1.11115 8.923 1.41955 8.57987C1.72795 8.23675 2.13963 8.00331 2.59242 7.91482C3.0452 7.82633 3.51449 7.8876 3.92938 8.08937L2.69688 9.77687C2.6382 9.85727 2.61386 9.95768 2.62921 10.056C2.64457 10.1544 2.69836 10.2426 2.77875 10.3013C2.85914 10.3599 2.95956 10.3843 3.05789 10.3689C3.15623 10.3536 3.24445 10.2998 3.30313 10.2194L4.53438 8.53187C4.91359 8.92653 5.12526 9.45269 5.125 10ZM13 12.125C12.5658 12.1241 12.1424 11.9901 11.7866 11.7413C11.4308 11.4924 11.1598 11.1406 11.0101 10.7331C10.8603 10.3255 10.8389 9.88192 10.9489 9.46191C11.0588 9.04189 11.2948 8.66563 11.625 8.38375L12.6763 10.1875C12.7091 10.2445 12.7564 10.2918 12.8133 10.3247C12.8703 10.3576 12.9349 10.3749 13.0006 10.375C13.0666 10.375 13.1313 10.3573 13.1881 10.3237C13.2739 10.2736 13.3364 10.1915 13.3617 10.0954C13.387 9.99934 13.3731 9.89713 13.3231 9.81125L12.2694 8.00438C12.5609 7.89771 12.8723 7.85622 13.1816 7.88281C13.4908 7.9094 13.7906 8.00344 14.0596 8.1583C14.3286 8.31316 14.5605 8.52509 14.7388 8.77918C14.9172 9.03327 15.0377 9.32334 15.0919 9.629C15.1461 9.93467 15.1326 10.2485 15.0525 10.5484C14.9724 10.8483 14.8276 11.127 14.6282 11.365C14.4288 11.6029 14.1797 11.7942 13.8984 11.9255C13.6171 12.0568 13.3104 12.1249 13 12.125Z" fill="#F7B40A"/>
</g>
</svg>
