<svg width="14" height="14" viewBox="0 0 14 14" fill="none" xmlns="http://www.w3.org/2000/svg">
<path d="M12.2806 5.67711C11.672 5.3457 10.8538 5.10727 9.95312 4.99516V4.59375C9.95312 3.93094 9.42922 3.33047 8.47656 2.90227C7.61031 2.5118 6.46406 2.29688 5.25 2.29688C4.03594 2.29688 2.88969 2.5118 2.02344 2.90227C1.07078 3.33047 0.546875 3.93094 0.546875 4.59375V6.78125C0.546875 7.44406 1.07078 8.04453 2.02344 8.47273C2.59711 8.73086 3.29273 8.91023 4.04688 9.00484V9.40625C4.04688 10.0691 4.57078 10.6695 5.52344 11.0977C6.38969 11.4882 7.53594 11.7031 8.75 11.7031C9.96406 11.7031 11.1103 11.4882 11.9766 11.0977C12.9276 10.6695 13.4531 10.0691 13.4531 9.40625V7.21875C13.4531 6.63633 13.037 6.08891 12.2806 5.67711ZM11.9667 6.25352C12.5021 6.545 12.7969 6.89062 12.7969 7.21875C12.7969 7.99477 11.1349 8.85938 8.75 8.85938C8.3622 8.85961 7.97477 8.83514 7.59008 8.78609C7.89324 8.70476 8.18963 8.59999 8.47656 8.47273C9.42758 8.04453 9.95312 7.44406 9.95312 6.78125V5.65633C10.7406 5.76187 11.4461 5.96969 11.9667 6.25352ZM5.915 8.39891C5.70063 8.41367 5.4775 8.42188 5.25 8.42188C4.96016 8.42188 4.68125 8.40875 4.41438 8.38523C4.40764 8.38467 4.40087 8.38467 4.39414 8.38523C4.19836 8.36719 4.01133 8.34312 3.82812 8.31414V6.78781C4.29893 6.85679 4.77417 6.89115 5.25 6.89062C5.72583 6.89115 6.20107 6.85679 6.67188 6.78781V8.3125C6.43453 8.35023 6.18461 8.37922 5.9232 8.39781L5.915 8.39891ZM9.29688 5.79086V6.78125C9.29688 7.30297 8.54492 7.86406 7.32812 8.17633V6.66367C7.7222 6.57471 8.10679 6.44797 8.47656 6.28523C8.77069 6.1575 9.04654 5.99125 9.29688 5.79086ZM5.25 2.95312C7.63492 2.95312 9.29688 3.81773 9.29688 4.59375C9.29688 5.36977 7.63492 6.23438 5.25 6.23438C2.86508 6.23438 1.20312 5.36977 1.20312 4.59375C1.20312 3.81773 2.86508 2.95312 5.25 2.95312ZM1.20312 6.78125V5.79086C1.45359 5.99049 1.72943 6.15599 2.02344 6.28305C2.39321 6.44579 2.7778 6.57252 3.17188 6.66148V8.17414C1.95508 7.86406 1.20312 7.30297 1.20312 6.78125ZM4.70312 9.40625V9.06281C4.88359 9.07266 5.0657 9.07812 5.25 9.07812C5.46547 9.07812 5.67802 9.07138 5.88766 9.05789C6.14416 9.15044 6.40605 9.22732 6.67188 9.28813V10.8013C5.45508 10.4891 4.70312 9.92797 4.70312 9.40625ZM7.32812 10.9375V9.41172C7.7989 9.48109 8.27414 9.51582 8.75 9.51562C9.22583 9.51615 9.70107 9.48179 10.1719 9.41281V10.9375C9.22957 11.0833 8.27043 11.0833 7.32812 10.9375ZM10.8281 10.8013V9.28867C11.2222 9.19971 11.6068 9.07297 11.9766 8.91023C12.2706 8.78318 12.5464 8.61767 12.7969 8.41805V9.40625C12.7969 9.92797 12.0449 10.4891 10.8281 10.8013Z" fill="#F7B40A"/>
</svg>
