<svg width="20" height="20" viewBox="0 0 20 20" fill="none" xmlns="http://www.w3.org/2000/svg">
<path d="M18.9467 6.07031C18.8292 5.9678 18.6839 5.90253 18.5292 5.88277C18.3745 5.86302 18.2175 5.88968 18.078 5.95937L14.0256 7.97968L10.6764 2.41328C10.6061 2.29665 10.5069 2.20016 10.3884 2.13318C10.2698 2.0662 10.136 2.03101 9.99983 2.03101C9.86367 2.03101 9.72983 2.0662 9.61129 2.13318C9.49274 2.20016 9.39353 2.29665 9.32327 2.41328L5.97405 7.97968L1.92327 5.96015C1.7838 5.89052 1.62684 5.86376 1.47218 5.88324C1.31752 5.90272 1.1721 5.96758 1.05426 6.06962C0.936423 6.17166 0.851448 6.30632 0.81006 6.45661C0.768672 6.6069 0.772724 6.76607 0.821705 6.91406L3.71233 15.7703C3.7341 15.8371 3.77062 15.8982 3.8192 15.9491C3.86778 15.9999 3.92716 16.0391 3.99295 16.0639C4.05875 16.0886 4.12927 16.0983 4.19929 16.0921C4.26932 16.0859 4.33705 16.064 4.39749 16.0281C4.40296 16.0281 4.90999 15.7281 5.85061 15.4359C6.71858 15.1656 8.14124 14.8437 9.99983 14.8437C11.8584 14.8437 13.2811 15.1656 14.1498 15.4359C15.0873 15.7281 15.5975 16.025 15.6014 16.0273C15.6618 16.0634 15.7296 16.0854 15.7996 16.0917C15.8697 16.0981 15.9403 16.0885 16.0062 16.0638C16.0721 16.0391 16.1316 15.9999 16.1802 15.9491C16.2289 15.8983 16.2655 15.8372 16.2873 15.7703L19.178 6.91562C19.2283 6.76775 19.2332 6.60817 19.192 6.45748C19.1508 6.3068 19.0653 6.17194 18.9467 6.07031ZM15.5647 14.9633C14.7053 14.5789 12.799 13.9062 9.99983 13.9062C7.20061 13.9062 5.29436 14.5789 4.43499 14.9633L1.8217 6.95703L5.67717 8.8789C5.85514 8.9668 6.05958 8.98484 6.25018 8.92945C6.44079 8.87406 6.60372 8.74927 6.70686 8.57968L9.99983 3.11093L13.2928 8.58359C13.396 8.75285 13.5588 8.87738 13.7492 8.93275C13.9396 8.98811 14.1438 8.9703 14.3217 8.88281L18.178 6.96015L15.5647 14.9633ZM13.5866 12.2227C13.5681 12.3317 13.5118 12.4307 13.4274 12.5021C13.3431 12.5736 13.2362 12.613 13.1256 12.6133C13.0994 12.613 13.0733 12.6107 13.0475 12.6062C11.0331 12.2604 8.97442 12.2604 6.95999 12.6062C6.83712 12.6279 6.71068 12.5999 6.60849 12.5283C6.50629 12.4567 6.43672 12.3475 6.41506 12.2246C6.39341 12.1017 6.42146 11.9753 6.49303 11.8731C6.5646 11.7709 6.67384 11.7013 6.79671 11.6797C8.91866 11.3151 11.0873 11.3151 13.2092 11.6797C13.3311 11.7019 13.4392 11.7716 13.5099 11.8733C13.5806 11.975 13.6082 12.1006 13.5866 12.2227Z" fill="#F7B40A"/>
</svg>
