<svg width="24" height="24" viewBox="0 0 24 24" fill="none" xmlns="http://www.w3.org/2000/svg">
<g id="Crown">
<path id="Vector" d="M4.98938 18.75C4.98938 18.75 7.5 17.25 12 17.25C16.5 17.25 19.0106 18.75 19.0106 18.75L22.4794 8.11966C22.5047 8.04745 22.5078 7.96931 22.4883 7.89531C22.4688 7.8213 22.4277 7.75482 22.3701 7.70441C22.3125 7.654 22.2412 7.62197 22.1653 7.61243C22.0894 7.6029 22.0123 7.6163 21.9441 7.65091L16.935 10.1484C16.8483 10.1913 16.7486 10.2 16.6557 10.173C16.5629 10.1459 16.4835 10.0849 16.4334 10.0022L12.33 3.18748C12.2957 3.13123 12.2475 3.08474 12.19 3.05249C12.1326 3.02024 12.0678 3.0033 12.0019 3.0033C11.936 3.0033 11.8712 3.02024 11.8137 3.05249C11.7563 3.08474 11.7081 3.13123 11.6738 3.18748L7.56656 10.005C7.5166 10.0881 7.43711 10.1494 7.34395 10.1765C7.2508 10.2036 7.15085 10.1946 7.06406 10.1512L2.0625 7.6556C1.9942 7.6212 1.9172 7.60794 1.84133 7.61754C1.76546 7.62714 1.69418 7.65915 1.6366 7.70948C1.57902 7.75981 1.53777 7.82617 1.51811 7.90007C1.49845 7.97398 1.50129 8.05207 1.52625 8.12435L4.98938 18.75Z" stroke="white" stroke-opacity="0.4" stroke-linecap="round" stroke-linejoin="round"/>
<path id="Vector_2" d="M8.25 14.5697C10.7318 14.1434 13.2682 14.1434 15.75 14.5697" stroke="white" stroke-opacity="0.4" stroke-linecap="round" stroke-linejoin="round"/>
</g>
</svg>
