<svg width="24" height="18" viewBox="0 0 24 18" fill="none" xmlns="http://www.w3.org/2000/svg">
<path d="M22.86 5.06722C22.6908 4.9197 22.4816 4.82579 22.2589 4.79742C22.0362 4.76904 21.8102 4.80748 21.6094 4.90785L16.9022 7.2516L12.9722 0.723785C12.8712 0.556278 12.7286 0.417715 12.5582 0.321531C12.3879 0.225347 12.1956 0.174805 12 0.174805C11.8044 0.174805 11.6121 0.225347 11.4418 0.321531C11.2714 0.417715 11.1288 0.556278 11.0278 0.723785L7.09781 7.25441L2.3925 4.91066C2.19219 4.81118 1.96697 4.77308 1.74509 4.80114C1.52321 4.82919 1.31455 4.92216 1.14531 5.06836C0.976076 5.21457 0.853789 5.4075 0.7938 5.62296C0.733812 5.83841 0.738794 6.06678 0.808121 6.27941L4.27687 16.9069C4.31175 17.0137 4.37016 17.1112 4.44779 17.1924C4.52542 17.2736 4.62029 17.3363 4.7254 17.3759C4.83051 17.4155 4.94317 17.431 5.05506 17.4212C5.16695 17.4114 5.27522 17.3766 5.37187 17.3194C5.39531 17.3053 7.7925 15.9244 12 15.9244C16.2075 15.9244 18.6047 17.3053 18.6262 17.3185C18.7229 17.3762 18.8314 17.4115 18.9436 17.4216C19.0557 17.4317 19.1687 17.4164 19.2742 17.3769C19.3797 17.3374 19.4749 17.2746 19.5527 17.1932C19.6306 17.1119 19.6892 17.014 19.7241 16.9069L23.1928 6.28222C23.2641 6.06953 23.2706 5.84043 23.2113 5.62407C23.152 5.40772 23.0297 5.21388 22.86 5.06722ZM16.485 12.6244C16.4544 12.7979 16.3637 12.9551 16.2288 13.0684C16.0939 13.1817 15.9234 13.2439 15.7472 13.2441C15.7032 13.244 15.6593 13.2403 15.6159 13.2328C13.2203 12.8216 10.7722 12.8216 8.37656 13.2328C8.27954 13.25 8.18011 13.2478 8.08393 13.2265C7.98775 13.2052 7.89672 13.1651 7.81602 13.1086C7.65304 12.9945 7.54206 12.8203 7.5075 12.6244C7.47294 12.4285 7.51762 12.2268 7.63173 12.0639C7.74583 11.9009 7.92001 11.7899 8.11593 11.7553C10.684 11.3141 13.3085 11.3141 15.8766 11.7553C15.9739 11.772 16.067 11.8077 16.1505 11.8605C16.2341 11.9132 16.3063 11.9819 16.3632 12.0627C16.4201 12.1434 16.4605 12.2346 16.482 12.331C16.5036 12.4274 16.5058 12.5271 16.4887 12.6244H16.485Z" fill="#1D2127"/>
</svg>
