<svg width="20" height="20" viewBox="0 0 20 20" fill="none" xmlns="http://www.w3.org/2000/svg">
<path d="M16.875 3.90625H13.5938V3.125C13.5938 2.66916 13.4127 2.23199 13.0903 1.90966C12.768 1.58733 12.3308 1.40625 11.875 1.40625H8.125C7.66916 1.40625 7.23199 1.58733 6.90966 1.90966C6.58733 2.23199 6.40625 2.66916 6.40625 3.125V3.90625H3.125C3.00068 3.90625 2.88145 3.95564 2.79354 4.04354C2.70564 4.13145 2.65625 4.25068 2.65625 4.375C2.65625 4.49932 2.70564 4.61855 2.79354 4.70646C2.88145 4.79436 3.00068 4.84375 3.125 4.84375H3.90625V16.25C3.90625 16.5401 4.02148 16.8183 4.2266 17.0234C4.43172 17.2285 4.70992 17.3438 5 17.3438H15C15.2901 17.3438 15.5683 17.2285 15.7734 17.0234C15.9785 16.8183 16.0938 16.5401 16.0938 16.25V4.84375H16.875C16.9993 4.84375 17.1185 4.79436 17.2065 4.70646C17.2944 4.61855 17.3438 4.49932 17.3438 4.375C17.3438 4.25068 17.2944 4.13145 17.2065 4.04354C17.1185 3.95564 16.9993 3.90625 16.875 3.90625ZM7.34375 3.125C7.34375 2.9178 7.42606 2.71909 7.57257 2.57257C7.71909 2.42606 7.9178 2.34375 8.125 2.34375H11.875C12.0822 2.34375 12.2809 2.42606 12.4274 2.57257C12.5739 2.71909 12.6562 2.9178 12.6562 3.125V3.90625H7.34375V3.125ZM15.1562 16.25C15.1562 16.2914 15.1398 16.3312 15.1105 16.3605C15.0812 16.3898 15.0414 16.4062 15 16.4062H5C4.95856 16.4062 4.91882 16.3898 4.88951 16.3605C4.86021 16.3312 4.84375 16.2914 4.84375 16.25V4.84375H15.1562V16.25ZM8.59375 8.125V13.125C8.59375 13.2493 8.54436 13.3685 8.45646 13.4565C8.36855 13.5444 8.24932 13.5938 8.125 13.5938C8.00068 13.5938 7.88145 13.5444 7.79354 13.4565C7.70564 13.3685 7.65625 13.2493 7.65625 13.125V8.125C7.65625 8.00068 7.70564 7.88145 7.79354 7.79354C7.88145 7.70564 8.00068 7.65625 8.125 7.65625C8.24932 7.65625 8.36855 7.70564 8.45646 7.79354C8.54436 7.88145 8.59375 8.00068 8.59375 8.125ZM12.3438 8.125V13.125C12.3438 13.2493 12.2944 13.3685 12.2065 13.4565C12.1185 13.5444 11.9993 13.5938 11.875 13.5938C11.7507 13.5938 11.6315 13.5444 11.5435 13.4565C11.4556 13.3685 11.4062 13.2493 11.4062 13.125V8.125C11.4062 8.00068 11.4556 7.88145 11.5435 7.79354C11.6315 7.70564 11.7507 7.65625 11.875 7.65625C11.9993 7.65625 12.1185 7.70564 12.2065 7.79354C12.2944 7.88145 12.3438 8.00068 12.3438 8.125Z" fill="#E12020"/>
</svg>
