<svg width="20" height="20" viewBox="0 0 20 20" fill="none" xmlns="http://www.w3.org/2000/svg">
<path d="M8.59375 16.875C8.59375 16.9993 8.54436 17.1185 8.45646 17.2065C8.36855 17.2944 8.24932 17.3438 8.125 17.3438H3.75C3.45992 17.3438 3.18172 17.2285 2.9766 17.0234C2.77148 16.8183 2.65625 16.5401 2.65625 16.25V3.75C2.65625 3.45992 2.77148 3.18172 2.9766 2.9766C3.18172 2.77148 3.45992 2.65625 3.75 2.65625H8.125C8.24932 2.65625 8.36855 2.70564 8.45646 2.79354C8.54436 2.88145 8.59375 3.00068 8.59375 3.125C8.59375 3.24932 8.54436 3.36855 8.45646 3.45646C8.36855 3.54436 8.24932 3.59375 8.125 3.59375H3.75C3.70856 3.59375 3.66882 3.61021 3.63951 3.63951C3.61021 3.66882 3.59375 3.70856 3.59375 3.75V16.25C3.59375 16.2914 3.61021 16.3312 3.63951 16.3605C3.66882 16.3898 3.70856 16.4062 3.75 16.4062H8.125C8.24932 16.4062 8.36855 16.4556 8.45646 16.5435C8.54436 16.6315 8.59375 16.7507 8.59375 16.875ZM17.2063 9.66875L14.0813 6.54375C13.9924 6.46095 13.8749 6.41587 13.7534 6.41802C13.632 6.42016 13.5161 6.46935 13.4302 6.55524C13.3444 6.64112 13.2952 6.75699 13.293 6.87842C13.2909 6.99986 13.3359 7.11739 13.4187 7.20625L15.743 9.53125H8.125C8.00068 9.53125 7.88145 9.58064 7.79354 9.66854C7.70564 9.75645 7.65625 9.87568 7.65625 10C7.65625 10.1243 7.70564 10.2435 7.79354 10.3315C7.88145 10.4194 8.00068 10.4688 8.125 10.4688H15.743L13.4187 12.7937C13.3727 12.8367 13.3358 12.8884 13.3101 12.9459C13.2845 13.0034 13.2707 13.0655 13.2696 13.1284C13.2685 13.1914 13.2801 13.2539 13.3037 13.3122C13.3272 13.3706 13.3623 13.4236 13.4069 13.4681C13.4514 13.5127 13.5044 13.5478 13.5628 13.5713C13.6211 13.5949 13.6836 13.6065 13.7466 13.6054C13.8095 13.6043 13.8716 13.5905 13.9291 13.5649C13.9866 13.5392 14.0383 13.5023 14.0813 13.4563L17.2063 10.3313C17.294 10.2434 17.3433 10.1242 17.3433 10C17.3433 9.87578 17.294 9.75664 17.2063 9.66875Z" fill="#F7B40A"/>
</svg>
