<svg width="18" height="18" viewBox="0 0 18 18" fill="none" xmlns="http://www.w3.org/2000/svg">
<path d="M17.6453 7.31228C17.7578 7.91478 17.8191 8.5447 17.8191 9.20206C17.8191 14.3439 14.3778 18 9.18018 18C7.99818 18.0004 6.8277 17.7678 5.7356 17.3157C4.64351 16.8635 3.65121 16.2006 2.81541 15.3648C1.97961 14.529 1.31669 13.5367 0.864527 12.4446C0.412362 11.3525 0.179816 10.182 0.180176 9.00001C0.179816 7.81801 0.412362 6.64752 0.864527 5.55543C1.31669 4.46333 1.97961 3.47104 2.81541 2.63524C3.65121 1.79944 4.64351 1.13652 5.7356 0.684351C6.8277 0.232186 7.99818 -0.000359966 9.18018 4.18232e-07C11.6103 4.18232e-07 13.6409 0.89415 15.1988 2.346L12.6617 4.88308V4.87668C11.7173 3.97704 10.5187 3.51534 9.18018 3.51534C6.21066 3.51534 3.797 6.02408 3.797 8.99452C3.797 11.964 6.21066 14.4783 9.18018 14.4783C11.8745 14.4783 13.7085 12.9377 14.0852 10.8221H9.18018V7.31228H17.6463H17.6453Z" fill="white"/>
</svg>
