<svg width="16" height="16" viewBox="0 0 16 16" fill="none" xmlns="http://www.w3.org/2000/svg">
<g id="HandCoins">
<path id="Vector" d="M14.32 8.91563C14.1488 8.78377 13.9494 8.69327 13.7375 8.6512C13.5255 8.60914 13.3067 8.61664 13.0981 8.67313L10.2706 9.32313C10.3633 9.07721 10.395 8.81248 10.3629 8.55164C10.3308 8.2908 10.236 8.04164 10.0864 7.82551C9.93692 7.60938 9.73722 7.43274 9.50446 7.31073C9.27169 7.18872 9.0128 7.12499 8.75 7.125H5.62125C5.37493 7.1243 5.13092 7.1725 4.90337 7.2668C4.67581 7.36111 4.46924 7.49964 4.29563 7.67438L2.845 9.125H1C0.767936 9.125 0.545376 9.21719 0.381282 9.38128C0.217187 9.54538 0.125 9.76794 0.125 10V12.5C0.125 12.7321 0.217187 12.9546 0.381282 13.1187C0.545376 13.2828 0.767936 13.375 1 13.375H7.5C7.53076 13.375 7.56141 13.3712 7.59125 13.3638L11.5913 12.3638C11.6102 12.3587 11.6288 12.3525 11.6469 12.345L14.0731 11.3125L14.0938 11.3031C14.3083 11.196 14.492 11.036 14.6276 10.8383C14.7632 10.6405 14.8462 10.4115 14.8689 10.1728C14.8915 9.93405 14.853 9.69351 14.757 9.47379C14.6609 9.25407 14.5106 9.06241 14.32 8.91688V8.91563ZM0.875 12.5V10C0.875 9.96685 0.88817 9.93505 0.911612 9.91161C0.935054 9.88817 0.966848 9.875 1 9.875H2.625V12.625H1C0.966848 12.625 0.935054 12.6118 0.911612 12.5884C0.88817 12.5649 0.875 12.5332 0.875 12.5ZM13.7675 10.625L11.38 11.6419L7.45375 12.625H3.375V9.65563L4.82562 8.20438C4.92987 8.09958 5.05387 8.01651 5.19044 7.95998C5.32701 7.90344 5.47344 7.87456 5.62125 7.875H8.75C8.98206 7.875 9.20462 7.96719 9.36872 8.13128C9.53281 8.29538 9.625 8.51794 9.625 8.75C9.625 8.98206 9.53281 9.20462 9.36872 9.36872C9.20462 9.53281 8.98206 9.625 8.75 9.625H7C6.90054 9.625 6.80516 9.66451 6.73484 9.73484C6.66451 9.80516 6.625 9.90055 6.625 10C6.625 10.0995 6.66451 10.1948 6.73484 10.2652C6.80516 10.3355 6.90054 10.375 7 10.375H9C9.02818 10.375 9.05627 10.3719 9.08375 10.3656L13.2712 9.4025L13.2863 9.39875C13.4439 9.35578 13.6118 9.37256 13.7578 9.44586C13.9038 9.51917 14.0175 9.64382 14.0772 9.79589C14.1369 9.94796 14.1383 10.1167 14.0811 10.2698C14.024 10.4228 13.9123 10.5493 13.7675 10.625ZM10.25 5.875C10.403 5.87492 10.5555 5.85857 10.705 5.82625C10.8175 6.22566 11.0444 6.5834 11.3578 6.85533C11.6712 7.12726 12.0574 7.30149 12.4687 7.3565C12.88 7.41152 13.2984 7.34493 13.6722 7.16494C14.0461 6.98495 14.3591 6.69944 14.5726 6.34363C14.7861 5.98783 14.8907 5.57731 14.8736 5.16272C14.8566 4.74813 14.7185 4.34762 14.4764 4.0106C14.2343 3.67359 13.8989 3.41481 13.5115 3.26621C13.1241 3.11761 12.7016 3.08569 12.2963 3.17438C12.1891 2.7937 11.9779 2.45046 11.6863 2.18329C11.3948 1.91612 11.0344 1.73561 10.6459 1.66207C10.2573 1.58853 9.85592 1.62487 9.48688 1.76702C9.11785 1.90917 8.7958 2.15147 8.55698 2.46667C8.31815 2.78188 8.17202 3.15747 8.13502 3.5512C8.09802 3.94493 8.17163 4.34118 8.34756 4.69535C8.52349 5.04953 8.79476 5.34758 9.13086 5.55599C9.46695 5.76439 9.85454 5.87487 10.25 5.875ZM14.125 5.25C14.125 5.52195 14.0444 5.78779 13.8933 6.01391C13.7422 6.24003 13.5274 6.41626 13.2762 6.52033C13.0249 6.62441 12.7485 6.65164 12.4818 6.59858C12.215 6.54553 11.97 6.41457 11.7777 6.22227C11.5854 6.02998 11.4545 5.78497 11.4014 5.51825C11.3484 5.25153 11.3756 4.97506 11.4797 4.72381C11.5837 4.47256 11.76 4.25782 11.9861 4.10673C12.2122 3.95564 12.4781 3.875 12.75 3.875C13.1147 3.875 13.4644 4.01987 13.7223 4.27773C13.9801 4.53559 14.125 4.88533 14.125 5.25ZM10.25 2.375C10.5657 2.37463 10.8718 2.48317 11.1167 2.68232C11.3616 2.88147 11.5303 3.15902 11.5944 3.46813C11.3225 3.64439 11.0946 3.88047 10.928 4.15832C10.7614 4.43617 10.6605 4.74844 10.6331 5.07125C10.4441 5.12571 10.2456 5.13898 10.051 5.11017C9.85644 5.08135 9.6703 5.01112 9.50518 4.90422C9.34006 4.79731 9.19979 4.65622 9.09386 4.49048C8.98793 4.32473 8.91879 4.13819 8.89112 3.94344C8.86345 3.74869 8.87788 3.55027 8.93345 3.36157C8.98902 3.17288 9.08442 2.9983 9.21323 2.84963C9.34204 2.70096 9.50124 2.58166 9.6801 2.49978C9.85895 2.4179 10.0533 2.37535 10.25 2.375Z" fill="#F7B40A"/>
</g>
</svg>
