<svg width="20" height="20" viewBox="0 0 20 20" fill="none" xmlns="http://www.w3.org/2000/svg">
<path d="M10 2.03125C8.42393 2.03125 6.88325 2.49861 5.5728 3.37423C4.26235 4.24984 3.24097 5.49439 2.63783 6.95049C2.0347 8.40659 1.87689 10.0088 2.18437 11.5546C2.49184 13.1004 3.25079 14.5203 4.36524 15.6348C5.47969 16.7492 6.89959 17.5082 8.44537 17.8156C9.99116 18.1231 11.5934 17.9653 13.0495 17.3622C14.5056 16.759 15.7502 15.7377 16.6258 14.4272C17.5014 13.1167 17.9688 11.5761 17.9688 10C17.9663 7.88732 17.1259 5.86188 15.632 4.36798C14.1381 2.87409 12.1127 2.03373 10 2.03125ZM12.8492 12.1875C13.3323 11.5606 13.5943 10.7914 13.5943 10C13.5943 9.20856 13.3323 8.43938 12.8492 7.8125L15.2898 5.37266C16.4124 6.65251 17.0313 8.29683 17.0313 9.99922C17.0313 11.7016 16.4124 13.3459 15.2898 14.6258L12.8492 12.1875ZM7.34375 10C7.34375 9.47464 7.49954 8.96108 7.79141 8.52427C8.08328 8.08745 8.49813 7.74699 8.9835 7.54595C9.46886 7.3449 10.0029 7.2923 10.5182 7.39479C11.0335 7.49728 11.5068 7.75026 11.8783 8.12175C12.2497 8.49323 12.5027 8.96653 12.6052 9.48179C12.7077 9.99705 12.6551 10.5311 12.4541 11.0165C12.253 11.5019 11.9126 11.9167 11.4757 12.2086C11.0389 12.5005 10.5254 12.6562 10 12.6562C9.29552 12.6562 8.61989 12.3764 8.12175 11.8783C7.6236 11.3801 7.34375 10.7045 7.34375 10ZM14.6266 4.71016L12.1875 7.15078C11.5606 6.66767 10.7914 6.40567 10 6.40567C9.20856 6.40567 8.43938 6.66767 7.8125 7.15078L5.37344 4.71016C6.65329 3.58762 8.29761 2.96868 10 2.96868C11.7024 2.96868 13.3467 3.58762 14.6266 4.71016ZM4.71016 5.37344L7.15078 7.8125C6.66767 8.43938 6.40567 9.20856 6.40567 10C6.40567 10.7914 6.66767 11.5606 7.15078 12.1875L4.71016 14.6266C3.58762 13.3467 2.96868 11.7024 2.96868 10C2.96868 8.29761 3.58762 6.65329 4.71016 5.37344ZM5.37344 15.2898L7.8125 12.8492C8.43938 13.3323 9.20856 13.5943 10 13.5943C10.7914 13.5943 11.5606 13.3323 12.1875 12.8492L14.6273 15.2898C13.3475 16.4124 11.7032 17.0313 10.0008 17.0313C8.29839 17.0313 6.65407 16.4124 5.37422 15.2898H5.37344Z" fill="#F7B40A"/>
</svg>
