<svg width="18" height="18" viewBox="0 0 18 18" fill="none" xmlns="http://www.w3.org/2000/svg">
<path id="Vector" d="M18 8.23867V16.5599C18 16.9418 17.8419 17.3081 17.5606 17.5782C17.2793 17.8483 16.8978 18 16.5 18H12.75C12.3522 18 11.9706 17.8483 11.6893 17.5782C11.408 17.3081 11.25 16.9418 11.25 16.5599V12.9596C11.25 12.7686 11.171 12.5854 11.0303 12.4504C10.8897 12.3154 10.6989 12.2395 10.5 12.2395H7.49999C7.30108 12.2395 7.11031 12.3154 6.96966 12.4504C6.82901 12.5854 6.74999 12.7686 6.74999 12.9596V16.5599C6.74999 16.9418 6.59196 17.3081 6.31065 17.5782C6.02935 17.8483 5.64782 18 5.24999 18H1.5C1.10217 18 0.720643 17.8483 0.439339 17.5782C0.158035 17.3081 1.73323e-08 16.9418 1.73323e-08 16.5599V8.23867C-3.15401e-05 8.03936 0.0430305 7.84221 0.126461 7.6597C0.209891 7.47719 0.331872 7.31329 0.484687 7.17838L7.98468 0.384602L7.99499 0.374701C8.27112 0.133601 8.63096 0 9.00421 0C9.37745 0 9.73729 0.133601 10.0134 0.374701C10.0166 0.378223 10.0201 0.381531 10.0237 0.384602L17.5237 7.17838C17.675 7.314 17.7954 7.47822 17.8774 7.66069C17.9593 7.84317 18.0011 8.03995 18 8.23867Z" fill="#1D2127"/>
</svg>
