<svg width="24" height="24" viewBox="0 0 24 24" fill="none" xmlns="http://www.w3.org/2000/svg">
<path opacity="0.4" d="M14.4539 20.2174V15.5219C14.4539 15.3143 14.3677 15.1152 14.2143 14.9685C14.0608 14.8217 13.8527 14.7393 13.6358 14.7393H10.3632C10.1462 14.7393 9.93814 14.8217 9.78471 14.9685C9.63128 15.1152 9.54508 15.3143 9.54508 15.5219V20.2174C9.54508 20.425 9.45889 20.624 9.30546 20.7708C9.15203 20.9175 8.94393 21 8.72695 21H3.81814C3.60115 21 3.39306 20.9175 3.23963 20.7708C3.0862 20.624 3 20.425 3 20.2174V11.1726C3.00001 11.0635 3.02385 10.9557 3.06999 10.8559C3.11614 10.7562 3.18356 10.6668 3.26794 10.5935L11.4493 3.20384C11.5999 3.07269 11.7963 3 12 3C12.2037 3 12.4001 3.07269 12.5507 3.20384L20.7321 10.5935C20.8164 10.6668 20.8839 10.7562 20.93 10.8559C20.9761 10.9557 21 11.0635 21 11.1726V20.2174C21 20.425 20.9138 20.624 20.7604 20.7708C20.6069 20.9175 20.3988 21 20.1819 21H15.272C15.055 21 14.847 20.9175 14.6935 20.7708C14.5401 20.624 14.4539 20.425 14.4539 20.2174Z" stroke="white" stroke-linecap="round" stroke-linejoin="round"/>
</svg>
