<svg width="20" height="20" viewBox="0 0 20 20" fill="none" xmlns="http://www.w3.org/2000/svg">
<g clip-path="url(#clip0_2_763)">
<path d="M9.375 9.375C9.54076 9.375 9.69973 9.44085 9.81694 9.55806C9.93415 9.67527 10 9.83424 10 10V13.125C10 13.2908 10.0658 13.4497 10.1831 13.5669C10.3003 13.6842 10.4592 13.75 10.625 13.75" stroke="#F7B40A" stroke-linecap="round" stroke-linejoin="round"/>
<path d="M9.6875 7.1875C10.0327 7.1875 10.3125 6.90768 10.3125 6.5625C10.3125 6.21732 10.0327 5.9375 9.6875 5.9375C9.34232 5.9375 9.0625 6.21732 9.0625 6.5625C9.0625 6.90768 9.34232 7.1875 9.6875 7.1875Z" fill="#F7B40A"/>
<path d="M10 17.5C14.1421 17.5 17.5 14.1421 17.5 10C17.5 5.85786 14.1421 2.5 10 2.5C5.85786 2.5 2.5 5.85786 2.5 10C2.5 14.1421 5.85786 17.5 10 17.5Z" stroke="#F7B40A" stroke-linecap="round" stroke-linejoin="round"/>
</g>
<defs>
<clipPath id="clip0_2_763">
<rect width="20" height="20" fill="white"/>
</clipPath>
</defs>
</svg>
