<svg width="24" height="24" viewBox="0 0 24 24" fill="none" xmlns="http://www.w3.org/2000/svg">
<g clip-path="url(#clip0_2_797)">
<path d="M12 15.75C14.0711 15.75 15.75 14.0711 15.75 12C15.75 9.92893 14.0711 8.25 12 8.25C9.92893 8.25 8.25 9.92893 8.25 12C8.25 14.0711 9.92893 15.75 12 15.75Z" stroke="#F7B40A" stroke-linecap="round" stroke-linejoin="round"/>
<path d="M16.5 3H7.5C5.01472 3 3 5.01472 3 7.5V16.5C3 18.9853 5.01472 21 7.5 21H16.5C18.9853 21 21 18.9853 21 16.5V7.5C21 5.01472 18.9853 3 16.5 3Z" stroke="#F7B40A" stroke-linecap="round" stroke-linejoin="round"/>
<path d="M16.875 7.875C17.2892 7.875 17.625 7.53921 17.625 7.125C17.625 6.71079 17.2892 6.375 16.875 6.375C16.4608 6.375 16.125 6.71079 16.125 7.125C16.125 7.53921 16.4608 7.875 16.875 7.875Z" fill="#F7B40A"/>
</g>
<defs>
<clipPath id="clip0_2_797">
<rect width="24" height="24" fill="white"/>
</clipPath>
</defs>
</svg>
