<svg width="28" height="28" viewBox="0 0 28 28" fill="none" xmlns="http://www.w3.org/2000/svg">
<path d="M17.5 0.5C15.9216 0.501415 14.366 0.876096 12.9601 1.59345C11.5541 2.3108 10.3378 3.35049 9.41036 4.62763C8.48292 5.90476 7.87067 7.38314 7.62361 8.94204C7.37654 10.5009 7.50166 12.0962 7.98875 13.5975L0.7925 20.7925C0.699666 20.8854 0.626052 20.9958 0.575864 21.1171C0.525676 21.2385 0.499897 21.3686 0.5 21.5V26.5C0.5 26.7652 0.605357 27.0196 0.792893 27.2071C0.98043 27.3946 1.23478 27.5 1.5 27.5H6.5C6.76522 27.5 7.01957 27.3946 7.20711 27.2071C7.39464 27.0196 7.5 26.7652 7.5 26.5V24.5H9.5C9.76522 24.5 10.0196 24.3946 10.2071 24.2071C10.3946 24.0196 10.5 23.7652 10.5 23.5V21.5H12.5C12.6314 21.5001 12.7615 21.4743 12.8828 21.4241C13.0042 21.3739 13.1146 21.3003 13.2075 21.2075L14.4025 20.0112C15.7769 20.4575 17.2317 20.6005 18.6667 20.4306C20.1017 20.2606 21.4828 19.7817 22.7149 19.0268C23.9471 18.2718 25.001 17.2588 25.804 16.0575C26.6071 14.8562 27.1403 13.4951 27.3669 12.0679C27.5934 10.6408 27.508 9.18145 27.1165 7.79047C26.7249 6.3995 26.0366 5.1099 25.0988 4.01048C24.1611 2.91106 22.9962 2.02794 21.6844 1.42191C20.3726 0.815889 18.945 0.501366 17.5 0.5ZM17.5 18.5C16.4877 18.5017 15.4844 18.3104 14.5438 17.9363C14.3597 17.8564 14.156 17.8337 13.9589 17.8712C13.7619 17.9086 13.5806 18.0045 13.4388 18.1462L12.0863 19.5H9.5C9.23478 19.5 8.98043 19.6054 8.79289 19.7929C8.60536 19.9804 8.5 20.2348 8.5 20.5V22.5H6.5C6.23478 22.5 5.98043 22.6054 5.79289 22.7929C5.60536 22.9804 5.5 23.2348 5.5 23.5V25.5H2.5V21.9137L9.85375 14.5613C9.99554 14.4194 10.0914 14.2381 10.1288 14.0411C10.1663 13.844 10.1436 13.6403 10.0638 13.4563C9.43136 11.8661 9.32557 10.115 9.76191 8.46023C10.1982 6.80547 11.1537 5.33424 12.488 4.26263C13.8223 3.19102 15.465 2.57551 17.1749 2.50651C18.8848 2.4375 20.5718 2.91864 21.9881 3.87925C23.4044 4.83986 24.4753 6.22932 25.0436 7.84354C25.6118 9.45776 25.6475 11.2117 25.1453 12.8476C24.6431 14.4836 23.6295 15.9154 22.2534 16.9328C20.8774 17.9502 19.2113 18.4995 17.5 18.5ZM21.5 8C21.5 8.29667 21.412 8.58668 21.2472 8.83335C21.0824 9.08003 20.8481 9.27229 20.574 9.38582C20.2999 9.49935 19.9983 9.52906 19.7074 9.47118C19.4164 9.4133 19.1491 9.27044 18.9393 9.06066C18.7296 8.85088 18.5867 8.58361 18.5288 8.29264C18.4709 8.00166 18.5007 7.70006 18.6142 7.42597C18.7277 7.15189 18.92 6.91762 19.1666 6.7528C19.4133 6.58797 19.7033 6.5 20 6.5C20.3978 6.5 20.7794 6.65804 21.0607 6.93934C21.342 7.22064 21.5 7.60218 21.5 8Z" fill="#343330"/>
</svg>
