<svg width="123" height="32" viewBox="0 0 123 32" fill="none" xmlns="http://www.w3.org/2000/svg">
<mask id="mask0_73_390" style="mask-type:luminance" maskUnits="userSpaceOnUse" x="0" y="0" width="123" height="32">
<path d="M122.036 0H0V32H122.036V0Z" fill="white"/>
</mask>
<g mask="url(#mask0_73_390)">
<path d="M11.31 12.3611C11.527 12.9637 11.635 13.6591 11.635 14.4007C11.635 14.4625 11.635 14.5243 11.635 14.5861C11.635 15.4051 11.141 16.1158 10.445 16.4403C9.549 16.8266 8.39 17.1665 7.108 17.3674C6.15 17.5219 5.238 17.5837 4.435 17.5683L3.013 20.9058C2.951 21.014 2.843 21.1067 2.719 21.1067C2.642 21.1067 2.565 21.0758 2.503 21.0294L0.108002 19.0516C0.0460017 18.9898 0 18.8971 0 18.8044C0 18.6962 0.0459999 18.6035 0.139 18.5417L9.734 9.64172C10.136 9.27082 10.677 9.03912 11.28 9.03912C11.898 9.03912 12.469 9.28632 12.887 9.68802L15.019 11.8667C15.065 11.9285 15.096 12.0057 15.096 12.083C15.096 12.2684 14.957 12.4075 14.772 12.4075L11.31 12.3611Z" fill="black"/>
<path d="M11.31 12.3611C11.527 12.9637 11.635 13.6591 11.635 14.4007C11.635 14.4625 11.635 14.5243 11.635 14.5861C11.635 15.4051 11.141 16.1158 10.445 16.4403C9.549 16.8266 8.39 17.1665 7.108 17.3674C6.15 17.5219 5.238 17.5837 4.435 17.5683L3.013 20.9058C2.951 21.014 2.843 21.1067 2.719 21.1067C2.642 21.1067 2.565 21.0758 2.503 21.0294L0.108002 19.0516C0.0460017 18.9898 0 18.8971 0 18.8044C0 18.6962 0.0459999 18.6035 0.139 18.5417L9.734 9.64172C10.136 9.27082 10.677 9.03912 11.28 9.03912C11.898 9.03912 12.469 9.28632 12.887 9.68802L15.019 11.8667C15.065 11.9285 15.096 12.0057 15.096 12.083C15.096 12.2684 14.957 12.4075 14.772 12.4075L11.31 12.3611Z" fill="black"/>
<path d="M27.411 30.4859C27.55 30.3313 27.643 30.115 27.643 29.8987C27.643 29.4042 27.241 29.018 26.762 29.018C26.53 29.018 26.329 29.1107 26.175 29.2497C25.541 29.8523 24.831 30.1923 23.857 30.2077C22.961 30.2232 22.127 29.8678 21.539 29.2806C21.369 29.1261 21.153 29.018 20.906 29.018C20.628 29.018 20.427 29.1261 20.257 29.3115C19.701 29.8832 18.944 30.2386 18.078 30.2386C17.213 30.2386 16.471 29.9141 15.915 29.327C15.745 29.1261 15.498 29.0025 15.235 29.0025C14.988 29.0025 14.741 29.1107 14.586 29.2806C13.984 29.8832 13.18 30.2232 12.268 30.2232C11.372 30.2232 10.538 29.8523 9.95101 29.2497C9.78101 29.0952 9.56402 28.9871 9.31702 28.9871C8.82302 28.9871 8.43701 29.3888 8.43701 29.8678C8.43701 30.0841 8.52901 30.3313 8.66801 30.4859C9.47201 31.4129 10.692 32.0001 12.021 32.0001C12.979 32.0001 13.891 31.722 14.617 31.2121C14.756 31.0885 14.957 31.0267 15.173 31.0267C15.405 31.0267 15.606 31.1039 15.761 31.243C16.394 31.7065 17.182 32.0001 18.032 32.0001C18.913 32.0001 19.716 31.7065 20.381 31.1966C20.535 31.073 20.72 30.9958 20.921 30.9958C21.138 30.9958 21.308 31.0576 21.462 31.1812C22.188 31.6911 23.069 31.9846 24.012 31.9846C25.356 32.031 26.577 31.4129 27.411 30.4859Z" fill="black"/>
<path d="M27.411 30.4859C27.55 30.3313 27.643 30.115 27.643 29.8987C27.643 29.4042 27.241 29.018 26.762 29.018C26.53 29.018 26.329 29.1107 26.175 29.2497C25.541 29.8523 24.831 30.1923 23.857 30.2077C22.961 30.2232 22.127 29.8678 21.539 29.2806C21.369 29.1261 21.153 29.018 20.906 29.018C20.628 29.018 20.427 29.1261 20.257 29.3115C19.701 29.8832 18.944 30.2386 18.078 30.2386C17.213 30.2386 16.471 29.9141 15.915 29.327C15.745 29.1261 15.498 29.0025 15.235 29.0025C14.988 29.0025 14.741 29.1107 14.586 29.2806C13.984 29.8832 13.18 30.2232 12.268 30.2232C11.372 30.2232 10.538 29.8523 9.95101 29.2497C9.78101 29.0952 9.56402 28.9871 9.31702 28.9871C8.82302 28.9871 8.43701 29.3888 8.43701 29.8678C8.43701 30.0841 8.52901 30.3313 8.66801 30.4859C9.47201 31.4129 10.692 32.0001 12.021 32.0001C12.979 32.0001 13.891 31.722 14.617 31.2121C14.756 31.0885 14.957 31.0267 15.173 31.0267C15.405 31.0267 15.606 31.1039 15.761 31.243C16.394 31.7065 17.182 32.0001 18.032 32.0001C18.913 32.0001 19.716 31.7065 20.381 31.1966C20.535 31.073 20.72 30.9958 20.921 30.9958C21.138 30.9958 21.308 31.0576 21.462 31.1812C22.188 31.6911 23.069 31.9846 24.012 31.9846C25.356 32.031 26.577 31.4129 27.411 30.4859Z" fill="black"/>
<path d="M25.078 5.63978C25.078 5.36168 24.846 5.12988 24.568 5.12988H11.511C11.233 5.12988 10.986 5.34618 10.986 5.62428V6.73678C10.986 7.01498 11.233 7.27758 11.511 7.27758H17.228L16.177 21.9256C14.262 21.4003 12.701 20.0869 11.836 18.3409H6.64403C6.36603 18.3409 6.14903 18.5881 6.14903 18.8662L6.13403 20.2105C6.13403 20.4886 6.38103 20.7359 6.67503 20.7359H8.05003C9.30203 25.0623 13.288 28.2144 18.016 28.2144C22.744 28.2144 26.746 25.0314 27.998 20.705H29.311C29.589 20.705 29.837 20.4732 29.837 20.1951L29.821 18.8508C29.821 18.5727 29.605 18.3254 29.327 18.3254H24.243C23.378 20.1333 21.817 21.4003 19.855 21.9411L18.851 7.26218H24.552C24.83 7.26218 25.078 7.06128 25.078 6.76768V5.63978Z" fill="black"/>
<path d="M25.078 5.63978C25.078 5.36168 24.846 5.12988 24.568 5.12988H11.511C11.233 5.12988 10.986 5.34618 10.986 5.62428V6.73678C10.986 7.01498 11.233 7.27758 11.511 7.27758H17.228L16.177 21.9256C14.262 21.4003 12.701 20.0869 11.836 18.3409H6.64403C6.36603 18.3409 6.14903 18.5881 6.14903 18.8662L6.13403 20.2105C6.13403 20.4886 6.38103 20.7359 6.67503 20.7359H8.05003C9.30203 25.0623 13.288 28.2144 18.016 28.2144C22.744 28.2144 26.746 25.0314 27.998 20.705H29.311C29.589 20.705 29.837 20.4732 29.837 20.1951L29.821 18.8508C29.821 18.5727 29.605 18.3254 29.327 18.3254H24.243C23.378 20.1333 21.817 21.4003 19.855 21.9411L18.851 7.26218H24.552C24.83 7.26218 25.078 7.06128 25.078 6.76768V5.63978Z" fill="black"/>
<path d="M21.215 4.1564C21.416 4.1564 21.571 4.0019 21.571 3.8011C21.571 3.6929 21.524 3.6002 21.447 3.5384L19.547 2.1014L21.447 0.618099C21.509 0.556299 21.555 0.4635 21.555 0.3554C21.555 0.1545 21.385 0 21.2 0H16.456C16.178 0 15.946 0.247198 15.946 0.525398L15.931 3.662C15.931 3.9401 16.163 4.1719 16.441 4.1719L21.215 4.1564Z" fill="black"/>
<path d="M21.215 4.1564C21.416 4.1564 21.571 4.0019 21.571 3.8011C21.571 3.6929 21.524 3.6002 21.447 3.5384L19.547 2.1014L21.447 0.618099C21.509 0.556299 21.555 0.4635 21.555 0.3554C21.555 0.1545 21.385 0 21.2 0H16.456C16.178 0 15.946 0.247198 15.946 0.525398L15.931 3.662C15.931 3.9401 16.163 4.1719 16.441 4.1719L21.215 4.1564Z" fill="black"/>
<path d="M24.429 12.3302C24.212 12.9328 24.104 13.6281 24.104 14.3698C24.104 14.4316 24.104 14.4934 24.104 14.5552C24.104 15.3741 24.599 16.0849 25.294 16.4094C26.19 16.7957 27.349 17.1356 28.632 17.3365C29.59 17.491 30.501 17.5528 31.305 17.5373L32.726 20.8749C32.788 20.983 32.896 21.0757 33.02 21.0757C33.097 21.0757 33.174 21.0448 33.236 20.9985L35.631 19.0207C35.693 18.9589 35.739 18.8816 35.739 18.7735C35.739 18.6653 35.693 18.5726 35.6 18.5108L26.036 9.59528C25.634 9.22438 25.093 8.99268 24.491 8.99268C23.873 8.99268 23.301 9.23988 22.884 9.64158L20.751 11.8203C20.705 11.8821 20.674 11.9594 20.674 12.0366C20.674 12.222 20.813 12.3611 20.999 12.3611L24.429 12.3302Z" fill="black"/>
<path d="M24.429 12.3302C24.212 12.9328 24.104 13.6281 24.104 14.3698C24.104 14.4316 24.104 14.4934 24.104 14.5552C24.104 15.3741 24.599 16.0849 25.294 16.4094C26.19 16.7957 27.349 17.1356 28.632 17.3365C29.59 17.491 30.501 17.5528 31.305 17.5373L32.726 20.8749C32.788 20.983 32.896 21.0757 33.02 21.0757C33.097 21.0757 33.174 21.0448 33.236 20.9985L35.631 19.0207C35.693 18.9589 35.739 18.8816 35.739 18.7735C35.739 18.6653 35.693 18.5726 35.6 18.5108L26.036 9.59528C25.634 9.22438 25.093 8.99268 24.491 8.99268C23.873 8.99268 23.301 9.23988 22.884 9.64158L20.751 11.8203C20.705 11.8821 20.674 11.9594 20.674 12.0366C20.674 12.222 20.813 12.3611 20.999 12.3611L24.429 12.3302Z" fill="black"/>
<path d="M116.659 18.7272H112.41L114.573 12.5003L116.659 18.7272ZM122.036 24.5679L115.779 7.44769H113.152L106.925 24.5679H110.417L111.452 21.5394H117.54L118.544 24.5679H122.036ZM102.305 16.0078C102.305 19.2989 102.119 20.1024 101.47 20.8132C100.991 21.3694 100.25 21.7248 99.323 21.7248C98.411 21.7248 97.639 21.3694 97.16 20.8132C96.511 20.087 96.341 19.2989 96.341 16.0078C96.341 12.7166 96.511 11.9131 97.16 11.2024C97.639 10.6461 98.411 10.2907 99.323 10.2907C100.234 10.2907 100.976 10.6461 101.47 11.2024C102.104 11.9286 102.305 12.7166 102.305 16.0078ZM105.642 16.0078C105.642 13.0565 105.673 10.9088 103.943 9.17819C102.737 7.97299 101.27 7.30859 99.323 7.30859C97.376 7.30859 95.877 7.98849 94.687 9.17819C92.957 10.9088 93.003 13.0565 93.003 16.0078C93.003 18.959 92.957 21.1068 94.687 22.8373C95.892 24.0425 97.376 24.707 99.323 24.707C101.27 24.707 102.737 24.0271 103.943 22.8373C105.673 21.1068 105.642 18.9745 105.642 16.0078ZM86.575 12.4076C86.575 13.5819 85.787 14.3854 84.366 14.3854H81.09V10.4452H84.366C85.787 10.4298 86.575 11.2333 86.575 12.4076ZM86.822 19.4844C86.822 20.6432 86.096 21.6012 84.582 21.6012H81.09V17.3984H84.582C86.096 17.383 86.822 18.3255 86.822 19.4844ZM90.16 19.6389C90.16 17.3521 88.831 16.2704 87.796 15.7915C88.661 15.3897 89.913 14.1536 89.913 12.2531C89.913 9.31729 87.966 7.44769 84.628 7.44769H77.752V24.5679H84.922C87.966 24.5679 90.16 22.8373 90.16 19.6389ZM74.6 19.5307C74.6 18.0165 74.199 16.7649 73.272 15.8996C72.545 15.2197 71.556 14.7871 69.996 14.5708L67.972 14.2772C67.276 14.1845 66.72 13.9218 66.38 13.5973C66.025 13.2574 65.87 12.8093 65.87 12.3767C65.87 11.2024 66.736 10.2135 68.512 10.2135C69.64 10.2135 70.938 10.3525 72.02 11.3878L74.137 9.30179C72.669 7.88029 70.969 7.30859 68.605 7.30859C64.897 7.30859 62.641 9.45629 62.641 12.5003C62.641 13.9373 63.043 15.0498 63.862 15.8687C64.634 16.6104 65.716 17.0739 67.184 17.2902L69.254 17.5838C70.042 17.7074 70.428 17.8774 70.768 18.1864C71.124 18.5264 71.294 19.0208 71.294 19.6234C71.294 20.9986 70.243 21.7403 68.265 21.7403C66.674 21.7403 65.206 21.3849 64.124 20.3033L61.961 22.4665C63.645 24.1816 65.623 24.7224 68.219 24.7224C71.835 24.7224 74.6 22.8373 74.6 19.5307ZM59.551 7.44769H56.213V24.5679H59.551V7.44769ZM53.494 24.5679V21.5858H45.722V7.44769H42.384V24.5679H53.494Z" fill="black"/>
</g>
</svg>
