<svg width="25" height="27" viewBox="0 0 25 27" fill="none" xmlns="http://www.w3.org/2000/svg">
<path d="M12.5 13C11.6595 13.0003 10.8472 13.303 10.2115 13.8529C9.57579 14.4027 9.1592 15.163 9.03785 15.9947C8.9165 16.8264 9.0985 17.674 9.55058 18.3825C10.0027 19.0911 10.6946 19.6133 11.5 19.8538V22C11.5 22.2652 11.6054 22.5196 11.7929 22.7071C11.9804 22.8946 12.2348 23 12.5 23C12.7652 23 13.0196 22.8946 13.2071 22.7071C13.3946 22.5196 13.5 22.2652 13.5 22V19.8538C14.3054 19.6133 14.9973 19.0911 15.4494 18.3825C15.9015 17.674 16.0835 16.8264 15.9622 15.9947C15.8408 15.163 15.4242 14.4027 14.7885 13.8529C14.1528 13.303 13.3405 13.0003 12.5 13ZM12.5 18C12.2033 18 11.9133 17.912 11.6666 17.7472C11.42 17.5824 11.2277 17.3481 11.1142 17.074C11.0006 16.7999 10.9709 16.4983 11.0288 16.2074C11.0867 15.9164 11.2296 15.6491 11.4393 15.4393C11.6491 15.2296 11.9164 15.0867 12.2074 15.0288C12.4983 14.9709 12.7999 15.0007 13.074 15.1142C13.3481 15.2277 13.5824 15.42 13.7472 15.6666C13.912 15.9133 14 16.2033 14 16.5C14 16.8978 13.842 17.2794 13.5607 17.5607C13.2794 17.842 12.8978 18 12.5 18ZM22.5 9H18.5V6C18.5 4.4087 17.8679 2.88258 16.7426 1.75736C15.6174 0.632141 14.0913 0 12.5 0C10.9087 0 9.38258 0.632141 8.25736 1.75736C7.13214 2.88258 6.5 4.4087 6.5 6V9H2.5C1.96957 9 1.46086 9.21071 1.08579 9.58579C0.710714 9.96086 0.5 10.4696 0.5 11V25C0.5 25.5304 0.710714 26.0391 1.08579 26.4142C1.46086 26.7893 1.96957 27 2.5 27H22.5C23.0304 27 23.5391 26.7893 23.9142 26.4142C24.2893 26.0391 24.5 25.5304 24.5 25V11C24.5 10.4696 24.2893 9.96086 23.9142 9.58579C23.5391 9.21071 23.0304 9 22.5 9ZM8.5 6C8.5 4.93913 8.92143 3.92172 9.67157 3.17157C10.4217 2.42143 11.4391 2 12.5 2C13.5609 2 14.5783 2.42143 15.3284 3.17157C16.0786 3.92172 16.5 4.93913 16.5 6V9H8.5V6ZM22.5 25H2.5V11H22.5V25Z" fill="#343330"/>
</svg>
