<svg width="24" height="24" viewBox="0 0 24 24" fill="none" xmlns="http://www.w3.org/2000/svg">
<g id="MapTrifold">
<path id="Union" fill-rule="evenodd" clip-rule="evenodd" d="M8.79644 3.26765C8.83755 3.25641 8.88078 3.25029 8.92539 3.25001C8.92646 3.25 8.92752 3.25 8.92859 3.25C8.92944 3.25 8.93028 3.25 8.93113 3.25001C9.01416 3.25042 9.09242 3.27107 9.1612 3.30729L14.9868 6.22007L20.8073 4.76493C20.9567 4.72759 21.1149 4.76114 21.2363 4.8559C21.3577 4.95065 21.4286 5.09603 21.4286 5.25V18.75C21.4286 18.9794 21.2724 19.1794 21.0499 19.2351L15.0607 20.7324C15.0196 20.7436 14.9764 20.7497 14.9318 20.75C14.9307 20.75 14.9297 20.75 14.9286 20.75C14.9277 20.75 14.9269 20.75 14.9261 20.75C14.843 20.7496 14.7648 20.7289 14.696 20.6927L8.87042 17.7799L3.04986 19.2351C2.90049 19.2724 2.74224 19.2389 2.62088 19.1441C2.49952 19.0493 2.42859 18.904 2.42859 18.75V5.25C2.42859 5.02057 2.58474 4.82057 2.80732 4.76493L8.79644 3.26765ZM8.42859 4.39039L3.42859 5.64039V18.1096L8.42859 16.8596V4.39039ZM9.42859 16.941L14.4286 19.441V7.05902L9.42859 4.55902V16.941ZM15.4286 7.14039V19.6096L20.4286 18.3596V5.89039L15.4286 7.14039Z" fill="white" fill-opacity="0.4"/>
</g>
</svg>
