<svg width="20" height="19" viewBox="0 0 20 19" fill="none" xmlns="http://www.w3.org/2000/svg">
<path id="Vector" d="M19.3006 2.58335C19.2108 2.51334 19.1062 2.46472 18.9947 2.44117C18.8833 2.41761 18.768 2.41975 18.6575 2.44741L12.9265 3.87991L7.17498 1.00366C7.01473 0.923728 6.83116 0.903775 6.65748 0.947409L0.65748 2.44741C0.495226 2.48797 0.351183 2.58159 0.248245 2.71341C0.145307 2.84522 0.0893808 3.00766 0.0893555 3.17491V16.6749C0.0893727 16.7889 0.115361 16.9013 0.165346 17.0037C0.215332 17.1062 0.287999 17.1958 0.37783 17.266C0.467661 17.3361 0.572292 17.3848 0.683777 17.4085C0.795262 17.4321 0.910668 17.43 1.02123 17.4024L6.75217 15.9699L12.5037 18.8462C12.6081 18.8976 12.7229 18.9246 12.8394 18.9249C12.9007 18.9249 12.9618 18.9173 13.0212 18.9024L19.0212 17.4024C19.1835 17.3619 19.3275 17.2682 19.4305 17.1364C19.5334 17.0046 19.5893 16.8422 19.5894 16.6749V3.17491C19.5894 3.06084 19.5634 2.94827 19.5133 2.84576C19.4633 2.74325 19.3906 2.6535 19.3006 2.58335ZM6.83936 14.4249C6.77804 14.4249 6.71696 14.4325 6.65748 14.4474L1.58936 15.714V3.76085L6.75217 2.46991L6.83936 2.51303V14.4249ZM18.0894 16.089L12.9265 17.3799L12.8394 17.3368V5.42491C12.9006 5.42518 12.9617 5.41794 13.0212 5.40335L18.0894 4.13585V16.089Z" fill="#1D2127"/>
</svg>
