<svg width="22" height="16" viewBox="0 0 22 16" fill="none" xmlns="http://www.w3.org/2000/svg">
<path id="Vector" d="M19.75 0.424805H4.75C4.35218 0.424805 3.97064 0.58284 3.68934 0.864144C3.40804 1.14545 3.25 1.52698 3.25 1.9248V13.1748C3.25 13.3737 3.17098 13.5645 3.03033 13.7051C2.88968 13.8458 2.69891 13.9248 2.5 13.9248C2.30109 13.9248 2.11032 13.8458 1.96967 13.7051C1.82902 13.5645 1.75 13.3737 1.75 13.1748V4.1748C1.75 3.97589 1.67098 3.78513 1.53033 3.64447C1.38968 3.50382 1.19891 3.4248 1 3.4248C0.801088 3.4248 0.610322 3.50382 0.46967 3.64447C0.329018 3.78513 0.25 3.97589 0.25 4.1748V13.1851C0.252727 13.7801 0.490983 14.3497 0.912645 14.7694C1.33431 15.1892 1.90505 15.4248 2.5 15.4248H19C19.5967 15.4248 20.169 15.1878 20.591 14.7658C21.0129 14.3438 21.25 13.7715 21.25 13.1748V1.9248C21.25 1.52698 21.092 1.14545 20.8107 0.864144C20.5294 0.58284 20.1478 0.424805 19.75 0.424805ZM16 10.1748H8.5C8.30109 10.1748 8.11032 10.0958 7.96967 9.95514C7.82902 9.81448 7.75 9.62372 7.75 9.4248C7.75 9.22589 7.82902 9.03513 7.96967 8.89447C8.11032 8.75382 8.30109 8.6748 8.5 8.6748H16C16.1989 8.6748 16.3897 8.75382 16.5303 8.89447C16.671 9.03513 16.75 9.22589 16.75 9.4248C16.75 9.62372 16.671 9.81448 16.5303 9.95514C16.3897 10.0958 16.1989 10.1748 16 10.1748ZM16 7.1748H8.5C8.30109 7.1748 8.11032 7.09579 7.96967 6.95513C7.82902 6.81448 7.75 6.62372 7.75 6.4248C7.75 6.22589 7.82902 6.03513 7.96967 5.89447C8.11032 5.75382 8.30109 5.6748 8.5 5.6748H16C16.1989 5.6748 16.3897 5.75382 16.5303 5.89447C16.671 6.03513 16.75 6.22589 16.75 6.4248C16.75 6.62372 16.671 6.81448 16.5303 6.95513C16.3897 7.09579 16.1989 7.1748 16 7.1748Z" fill="#1D2127"/>
</svg>
