<svg width="24" height="24" viewBox="0 0 24 24" fill="none" xmlns="http://www.w3.org/2000/svg">
<g id="Newspaper">
<path id="Vector" d="M9 10.5H16.5" stroke="white" stroke-opacity="0.4" stroke-linecap="round" stroke-linejoin="round"/>
<path id="Vector_2" d="M9 13.5H16.5" stroke="white" stroke-opacity="0.4" stroke-linecap="round" stroke-linejoin="round"/>
<path id="Union" fill-rule="evenodd" clip-rule="evenodd" d="M5.07322 5.82322C5.12011 5.77634 5.1837 5.75 5.25 5.75H20.25C20.3163 5.75 20.3799 5.77634 20.4268 5.82322C20.4737 5.87011 20.5 5.9337 20.5 6V17.25C20.5 17.5152 20.3946 17.7696 20.2071 17.9571C20.0196 18.1446 19.7652 18.25 19.5 18.25H4.73206C4.90609 17.9485 5 17.6041 5 17.25V6C5 5.9337 5.02634 5.87011 5.07322 5.82322ZM19.5 19.25H3C2.46957 19.25 1.96086 19.0393 1.58579 18.6642C1.21071 18.2891 1 17.7804 1 17.25V8.25C1 7.97386 1.22386 7.75 1.5 7.75C1.77614 7.75 2 7.97386 2 8.25V17.25C2 17.5152 2.10536 17.7696 2.29289 17.9571C2.48043 18.1446 2.73478 18.25 3 18.25C3.26522 18.25 3.51957 18.1446 3.70711 17.9571C3.89464 17.7696 4 17.5152 4 17.25V6C4 5.66848 4.1317 5.35054 4.36612 5.11612C4.60054 4.8817 4.91848 4.75 5.25 4.75H20.25C20.5815 4.75 20.8995 4.8817 21.1339 5.11612C21.3683 5.35054 21.5 5.66848 21.5 6V17.25C21.5 17.7804 21.2893 18.2891 20.9142 18.6642C20.5391 19.0393 20.0304 19.25 19.5 19.25Z" fill="white" fill-opacity="0.4"/>
</g>
</svg>
