<svg width="24" height="24" viewBox="0 0 24 24" fill="none" xmlns="http://www.w3.org/2000/svg">
<g id="PhoneCall">
<path id="Vector" d="M15 3.75C16.2614 4.08218 17.4121 4.7432 18.3344 5.66557C19.2568 6.58793 19.9178 7.73858 20.25 9" stroke="white" stroke-opacity="0.4" stroke-linecap="round" stroke-linejoin="round"/>
<path id="Vector_2" d="M14.25 6.75C15.7988 7.16438 16.8356 8.20125 17.25 9.75" stroke="white" stroke-opacity="0.4" stroke-linecap="round" stroke-linejoin="round"/>
<path id="Vector_3" d="M15.4116 13.6256C15.5154 13.5565 15.6349 13.5144 15.7591 13.5031C15.8834 13.4918 16.0085 13.5117 16.1231 13.5609L20.5444 15.5419C20.6934 15.6055 20.8177 15.7158 20.8989 15.856C20.98 15.9963 21.0135 16.1591 20.9944 16.32C20.8487 17.4085 20.3127 18.407 19.486 19.1299C18.6593 19.8528 17.5982 20.2508 16.5 20.25C13.1185 20.25 9.87548 18.9067 7.48439 16.5156C5.0933 14.1245 3.75 10.8815 3.75 7.49998C3.74916 6.4018 4.1472 5.34068 4.87009 4.51398C5.59298 3.68728 6.59152 3.15126 7.68 3.0056C7.84091 2.98649 8.00368 3.02 8.14395 3.10112C8.28422 3.18224 8.39444 3.30661 8.45813 3.4556L10.4391 7.8806C10.4877 7.99426 10.5076 8.11818 10.4968 8.24134C10.486 8.36451 10.4449 8.48309 10.3772 8.58654L8.37375 10.9687C8.30269 11.076 8.26066 11.1998 8.25179 11.3281C8.24291 11.4565 8.26749 11.5849 8.32313 11.7009C9.09844 13.2881 10.7391 14.909 12.3309 15.6769C12.4475 15.7322 12.5766 15.7563 12.7053 15.7466C12.834 15.7369 12.958 15.6938 13.065 15.6215L15.4116 13.6256Z" stroke="white" stroke-opacity="0.4" stroke-linecap="round" stroke-linejoin="round"/>
</g>
</svg>
