<svg width="19" height="19" viewBox="0 0 19 19" fill="none" xmlns="http://www.w3.org/2000/svg">
<path d="M11.2753 1.48055C11.3008 1.38537 11.3447 1.29614 11.4047 1.21795C11.4647 1.13976 11.5394 1.07416 11.6248 1.02488C11.7101 0.975604 11.8043 0.943621 11.902 0.93076C11.9996 0.917899 12.0989 0.924413 12.1941 0.949927C13.5844 1.31269 14.853 2.03953 15.869 3.05559C16.8851 4.07164 17.6119 5.34018 17.9747 6.73055C18.0002 6.82572 18.0067 6.92498 17.9939 7.02267C17.981 7.12035 17.949 7.21455 17.8997 7.29987C17.8505 7.38519 17.7849 7.45997 17.7067 7.51992C17.6285 7.57988 17.5393 7.62384 17.4441 7.6493C17.3807 7.66594 17.3155 7.67445 17.25 7.67461C17.0849 7.67467 16.9243 7.6202 16.7933 7.51968C16.6622 7.41916 16.5681 7.2782 16.5253 7.11868C16.2296 5.98349 15.6365 4.94772 14.8071 4.11816C13.9777 3.28859 12.942 2.69525 11.8069 2.3993C11.7116 2.37394 11.6223 2.33005 11.544 2.27014C11.4657 2.21023 11.4 2.13546 11.3506 2.05013C11.3013 1.9648 11.2692 1.87057 11.2563 1.77284C11.2433 1.67511 11.2498 1.57578 11.2753 1.48055ZM11.0569 5.3993C12.3497 5.7443 13.1803 6.57587 13.5253 7.86868C13.5681 8.0282 13.6622 8.16916 13.7933 8.26968C13.9243 8.3702 14.0849 8.42467 14.25 8.42461C14.3155 8.42445 14.3807 8.41594 14.4441 8.3993C14.5393 8.37384 14.6285 8.32988 14.7067 8.26992C14.7849 8.20997 14.8505 8.13519 14.8997 8.04987C14.949 7.96455 14.981 7.87035 14.9939 7.77267C15.0067 7.67498 15.0002 7.57572 14.9747 7.48055C14.4947 5.6843 13.2403 4.42993 11.4441 3.94993C11.3489 3.9245 11.2497 3.91807 11.152 3.93101C11.0544 3.94394 10.9602 3.97598 10.8749 4.02529C10.7897 4.07461 10.7149 4.14024 10.655 4.21843C10.5951 4.29663 10.5512 4.38585 10.5258 4.48102C10.5004 4.57619 10.4939 4.67543 10.5069 4.77308C10.5198 4.87074 10.5518 4.96488 10.6012 5.05015C10.6505 5.13543 10.7161 5.21015 10.7943 5.27005C10.8725 5.32996 10.9617 5.37388 11.0569 5.3993ZM17.8472 12.7802L13.4306 10.8012L13.4184 10.7956C13.1892 10.6975 12.939 10.6581 12.6907 10.681C12.4424 10.704 12.2037 10.7884 11.9963 10.9268C11.9718 10.9429 11.9484 10.9605 11.9259 10.9793L9.64407 12.9246C8.19845 12.2224 6.70595 10.7412 6.00376 9.3143L7.95188 6.99774C7.97063 6.9743 7.98845 6.95087 8.00532 6.92555C8.14072 6.71865 8.22287 6.48148 8.24446 6.23515C8.26605 5.98883 8.22641 5.74098 8.12907 5.51368V5.50243L6.14438 1.07836C6.0157 0.781426 5.79444 0.534067 5.51362 0.373214C5.2328 0.212361 4.9075 0.146641 4.58626 0.185865C3.31592 0.353028 2.14986 0.976898 1.30588 1.94095C0.461903 2.90501 -0.00228837 4.14333 8.4831e-06 5.42461C8.4831e-06 12.8684 6.05626 18.9246 13.5 18.9246C14.7813 18.9269 16.0196 18.4627 16.9837 17.6187C17.9477 16.7748 18.5716 15.6087 18.7388 14.3384C18.7781 14.0172 18.7125 13.692 18.5518 13.4112C18.3911 13.1304 18.144 12.9091 17.8472 12.7802Z" fill="#1D2127"/>
</svg>
