<svg width="16" height="17" viewBox="0 0 16 17" fill="none" xmlns="http://www.w3.org/2000/svg">
<path d="M14.6836 12.8269C14.5969 12.8756 14.4944 12.8879 14.3987 12.8611C14.3029 12.8342 14.2217 12.7704 14.173 12.6838L9.78048 4.875H8.37486V5.5C8.37486 5.59946 8.33535 5.69484 8.26502 5.76516C8.1947 5.83549 8.09931 5.875 7.99986 5.875C7.9004 5.875 7.80502 5.83549 7.73469 5.76516C7.66437 5.69484 7.62486 5.59946 7.62486 5.5V4.875H6.21923L1.82673 12.6838C1.80288 12.7272 1.77065 12.7655 1.73191 12.7964C1.69317 12.8273 1.64869 12.8502 1.60104 12.8638C1.55338 12.8774 1.50351 12.8814 1.45429 12.8757C1.40507 12.8699 1.35749 12.8544 1.31429 12.8301C1.27109 12.8058 1.23313 12.7732 1.20261 12.7342C1.17209 12.6951 1.14961 12.6504 1.13647 12.6027C1.12333 12.5549 1.11979 12.505 1.12606 12.4558C1.13233 12.4066 1.14828 12.3592 1.17298 12.3162L5.35861 4.875H1.49986C1.4004 4.875 1.30502 4.83549 1.23469 4.76516C1.16437 4.69484 1.12486 4.59946 1.12486 4.5C1.12486 4.40054 1.16437 4.30516 1.23469 4.23483C1.30502 4.16451 1.4004 4.125 1.49986 4.125H14.4999C14.5993 4.125 14.6947 4.16451 14.765 4.23483C14.8353 4.30516 14.8749 4.40054 14.8749 4.5C14.8749 4.59946 14.8353 4.69484 14.765 4.76516C14.6947 4.83549 14.5993 4.875 14.4999 4.875H10.6411L14.8286 12.3162C14.8527 12.3593 14.868 12.4066 14.8737 12.4556C14.8794 12.5046 14.8755 12.5542 14.862 12.6016C14.8485 12.6491 14.8258 12.6934 14.7952 12.732C14.7646 12.7707 14.7267 12.8029 14.6836 12.8269ZM7.99986 7.625C7.9004 7.625 7.80502 7.66451 7.73469 7.73484C7.66437 7.80516 7.62486 7.90054 7.62486 8V9C7.62486 9.09946 7.66437 9.19484 7.73469 9.26517C7.80502 9.33549 7.9004 9.375 7.99986 9.375C8.09931 9.375 8.1947 9.33549 8.26502 9.26517C8.33535 9.19484 8.37486 9.09946 8.37486 9V8C8.37486 7.90054 8.33535 7.80516 8.26502 7.73484C8.1947 7.66451 8.09931 7.625 7.99986 7.625ZM7.99986 11.125C7.9004 11.125 7.80502 11.1645 7.73469 11.2348C7.66437 11.3052 7.62486 11.4005 7.62486 11.5V12.5C7.62486 12.5995 7.66437 12.6948 7.73469 12.7652C7.80502 12.8355 7.9004 12.875 7.99986 12.875C8.09931 12.875 8.1947 12.8355 8.26502 12.7652C8.33535 12.6948 8.37486 12.5995 8.37486 12.5V11.5C8.37486 11.4005 8.33535 11.3052 8.26502 11.2348C8.1947 11.1645 8.09931 11.125 7.99986 11.125Z" fill="#F7B40A"/>
</svg>
