<svg width="24" height="24" viewBox="0 0 24 24" fill="none" xmlns="http://www.w3.org/2000/svg">
<g id="RoadHorizon">
<path id="Vector" d="M12 11.25V12.75" stroke="white" stroke-opacity="0.4" stroke-linecap="round" stroke-linejoin="round"/>
<path id="Vector_2" d="M12 16.5V18" stroke="white" stroke-opacity="0.4" stroke-linecap="round" stroke-linejoin="round"/>
<path id="Union" fill-rule="evenodd" clip-rule="evenodd" d="M9.00986 5.49997H12H14.9901C14.9964 5.49985 15.0027 5.49985 15.0089 5.49997H21.75C22.0261 5.49997 22.25 5.72382 22.25 5.99997C22.25 6.27611 22.0261 6.49997 21.75 6.49997H15.8549L22.1858 17.7548C22.3212 17.9955 22.2358 18.3004 21.9951 18.4358C21.7544 18.5711 21.4496 18.4858 21.3142 18.2451L14.7076 6.49997H12.5V7.49997C12.5 7.77611 12.2761 7.99997 12 7.99997C11.7239 7.99997 11.5 7.77611 11.5 7.49997V6.49997H9.29242L2.68578 18.2451C2.5504 18.4858 2.24555 18.5711 2.00487 18.4358C1.76419 18.3004 1.67883 17.9955 1.81421 17.7548L8.14507 6.49997H2.25C1.97385 6.49997 1.75 6.27611 1.75 5.99997C1.75 5.72382 1.97385 5.49997 2.25 5.49997H8.99104C8.99731 5.49985 9.00358 5.49985 9.00986 5.49997Z" fill="white" fill-opacity="0.4"/>
</g>
</svg>
