<svg width="22" height="14" viewBox="0 0 22 14" fill="none" xmlns="http://www.w3.org/2000/svg">
<path id="Vector" d="M21.7455 12.5574L15.6218 1.6749H21.0593C21.2539 1.67919 21.4429 1.60917 21.5878 1.47908C21.7327 1.34899 21.8226 1.1686 21.8393 0.974589C21.8461 0.871999 21.8317 0.769104 21.7971 0.672296C21.7625 0.575487 21.7083 0.486832 21.638 0.411837C21.5676 0.336843 21.4826 0.277111 21.3882 0.236351C21.2938 0.195592 21.1921 0.174676 21.0893 0.174902H1.61457C1.4207 0.171817 1.23287 0.242378 1.08898 0.372349C0.945091 0.50232 0.85585 0.682027 0.839261 0.875214C0.832449 0.977804 0.846804 1.0807 0.881433 1.17751C0.916062 1.27432 0.970226 1.36297 1.04056 1.43797C1.11089 1.51296 1.1959 1.57269 1.29029 1.61345C1.38468 1.65421 1.48645 1.67513 1.58926 1.6749H7.05676L0.933011 12.5574C0.854401 12.6971 0.822637 12.8584 0.842378 13.0175C0.862118 13.1766 0.932325 13.3252 1.0427 13.4415C1.11575 13.5165 1.20328 13.5758 1.29997 13.616C1.39667 13.6561 1.50051 13.6761 1.6052 13.6749H10.2143C10.3137 13.6749 10.4091 13.6354 10.4794 13.5651C10.5498 13.4947 10.5893 13.3994 10.5893 13.2999V11.4502C10.5867 11.2567 10.6574 11.0693 10.7874 10.9258C10.9173 10.7823 11.0967 10.6933 11.2896 10.6768C11.3922 10.67 11.4951 10.6843 11.5919 10.7189C11.6887 10.7536 11.7773 10.8077 11.8523 10.8781C11.9273 10.9484 11.9871 11.0334 12.0278 11.1278C12.0686 11.2222 12.0895 11.324 12.0893 11.4268V13.3018C12.0893 13.4012 12.1288 13.4966 12.1991 13.5669C12.2694 13.6373 12.3648 13.6768 12.4643 13.6768H21.0677C21.1724 13.678 21.2762 13.658 21.3729 13.6178C21.4696 13.5777 21.5571 13.5183 21.6302 13.4433C21.7419 13.3276 21.8134 13.1789 21.8342 13.0194C21.8549 12.8599 21.8238 12.6979 21.7455 12.5574ZM12.0893 8.0499C12.0893 8.24881 12.0102 8.43958 11.8696 8.58023C11.7289 8.72089 11.5382 8.7999 11.3393 8.7999C11.1403 8.7999 10.9496 8.72089 10.8089 8.58023C10.6683 8.43958 10.5893 8.24881 10.5893 8.0499V6.5499C10.5893 6.35099 10.6683 6.16022 10.8089 6.01957C10.9496 5.87892 11.1403 5.7999 11.3393 5.7999C11.5382 5.7999 11.7289 5.87892 11.8696 6.01957C12.0102 6.16022 12.0893 6.35099 12.0893 6.5499V8.0499ZM12.0893 3.1749C12.0893 3.37381 12.0102 3.56458 11.8696 3.70523C11.7289 3.84588 11.5382 3.9249 11.3393 3.9249C11.1403 3.9249 10.9496 3.84588 10.8089 3.70523C10.6683 3.56458 10.5893 3.37381 10.5893 3.1749V2.4249C10.5893 2.22599 10.6683 2.03522 10.8089 1.89457C10.9496 1.75392 11.1403 1.6749 11.3393 1.6749C11.5382 1.6749 11.7289 1.75392 11.8696 1.89457C12.0102 2.03522 12.0893 2.22599 12.0893 2.4249V3.1749Z" fill="#1D2127"/>
</svg>
