<svg width="16" height="16" viewBox="0 0 16 16" fill="none" xmlns="http://www.w3.org/2000/svg">
<path d="M14.6836 12.3269C14.5969 12.3756 14.4944 12.3879 14.3987 12.3611C14.3029 12.3342 14.2217 12.2704 14.173 12.1838L9.78048 4.375H8.37486V5C8.37486 5.09946 8.33535 5.19484 8.26502 5.26516C8.1947 5.33549 8.09931 5.375 7.99986 5.375C7.9004 5.375 7.80502 5.33549 7.73469 5.26516C7.66437 5.19484 7.62486 5.09946 7.62486 5V4.375H6.21923L1.82673 12.1838C1.80288 12.2272 1.77065 12.2655 1.73191 12.2964C1.69317 12.3273 1.64869 12.3502 1.60104 12.3638C1.55338 12.3774 1.50351 12.3814 1.45429 12.3757C1.40507 12.3699 1.35749 12.3544 1.31429 12.3301C1.27109 12.3058 1.23313 12.2732 1.20261 12.2342C1.17209 12.1951 1.14961 12.1504 1.13647 12.1027C1.12333 12.0549 1.11979 12.005 1.12606 11.9558C1.13233 11.9066 1.14828 11.8592 1.17298 11.8162L5.35861 4.375H1.49986C1.4004 4.375 1.30502 4.33549 1.23469 4.26516C1.16437 4.19484 1.12486 4.09946 1.12486 4C1.12486 3.90054 1.16437 3.80516 1.23469 3.73483C1.30502 3.66451 1.4004 3.625 1.49986 3.625H14.4999C14.5993 3.625 14.6947 3.66451 14.765 3.73483C14.8353 3.80516 14.8749 3.90054 14.8749 4C14.8749 4.09946 14.8353 4.19484 14.765 4.26516C14.6947 4.33549 14.5993 4.375 14.4999 4.375H10.6411L14.8286 11.8162C14.8527 11.8593 14.868 11.9066 14.8737 11.9556C14.8794 12.0046 14.8755 12.0542 14.862 12.1016C14.8485 12.1491 14.8258 12.1934 14.7952 12.232C14.7646 12.2707 14.7267 12.3029 14.6836 12.3269ZM7.99986 7.125C7.9004 7.125 7.80502 7.16451 7.73469 7.23484C7.66437 7.30516 7.62486 7.40054 7.62486 7.5V8.5C7.62486 8.59946 7.66437 8.69484 7.73469 8.76517C7.80502 8.83549 7.9004 8.875 7.99986 8.875C8.09931 8.875 8.1947 8.83549 8.26502 8.76517C8.33535 8.69484 8.37486 8.59946 8.37486 8.5V7.5C8.37486 7.40054 8.33535 7.30516 8.26502 7.23484C8.1947 7.16451 8.09931 7.125 7.99986 7.125ZM7.99986 10.625C7.9004 10.625 7.80502 10.6645 7.73469 10.7348C7.66437 10.8052 7.62486 10.9005 7.62486 11V12C7.62486 12.0995 7.66437 12.1948 7.73469 12.2652C7.80502 12.3355 7.9004 12.375 7.99986 12.375C8.09931 12.375 8.1947 12.3355 8.26502 12.2652C8.33535 12.1948 8.37486 12.0995 8.37486 12V11C8.37486 10.9005 8.33535 10.8052 8.26502 10.7348C8.1947 10.6645 8.09931 10.625 7.99986 10.625Z" fill="#F7B40A"/>
</svg>
