<svg width="20" height="20" viewBox="0 0 20 20" fill="none" xmlns="http://www.w3.org/2000/svg">
<g id="Gear">
<path id="Vector" d="M10 6.40627C9.28922 6.40627 8.5944 6.61704 8.00341 7.01192C7.41243 7.40681 6.95181 7.96808 6.6798 8.62475C6.4078 9.28142 6.33663 10.004 6.4753 10.7011C6.61396 11.3982 6.95623 12.0386 7.45883 12.5412C7.96143 13.0438 8.60177 13.386 9.29889 13.5247C9.99601 13.6634 10.7186 13.5922 11.3753 13.3202C12.0319 13.0482 12.5932 12.5876 12.9881 11.9966C13.383 11.4056 13.5937 10.7108 13.5937 10C13.5925 9.04728 13.2135 8.13391 12.5398 7.46022C11.8661 6.78653 10.9527 6.40751 10 6.40627ZM10 12.6563C9.47464 12.6563 8.96108 12.5005 8.52426 12.2086C8.08744 11.9167 7.74699 11.5019 7.54594 11.0165C7.34489 10.5312 7.29229 9.99707 7.39478 9.48181C7.49728 8.96655 7.75026 8.49325 8.12174 8.12176C8.49323 7.75028 8.96652 7.4973 9.48179 7.39481C9.99705 7.29231 10.5311 7.34492 11.0165 7.54596C11.5019 7.74701 11.9167 8.08747 12.2086 8.52428C12.5005 8.9611 12.6562 9.47466 12.6562 10C12.6562 10.7045 12.3764 11.3801 11.8782 11.8783C11.3801 12.3764 10.7045 12.6563 10 12.6563ZM16.7187 10.2219C16.7234 10.0742 16.7234 9.9258 16.7187 9.77814L17.9164 8.28127C17.9622 8.22397 17.9939 8.15672 18.0089 8.08494C18.024 8.01317 18.022 7.93885 18.0031 7.86799C17.8157 7.16179 17.5351 6.4837 17.1687 5.85158C17.1324 5.78742 17.0813 5.73276 17.0198 5.69204C16.9583 5.65131 16.8881 5.62567 16.8148 5.6172L14.9047 5.40549C14.8042 5.29767 14.7 5.19351 14.5922 5.09299L14.3797 3.18205C14.3712 3.10878 14.3456 3.03854 14.3049 2.97704C14.2641 2.91555 14.2095 2.86453 14.1453 2.82814C13.514 2.4628 12.837 2.18275 12.132 1.99533C12.061 1.97676 11.9866 1.97515 11.9148 1.99062C11.843 2.00609 11.7758 2.03821 11.7187 2.08439L10.2187 3.28517C10.0711 3.28049 9.92265 3.28049 9.775 3.28517L8.28125 2.08361C8.22394 2.03783 8.1567 2.00614 8.08492 1.99108C8.01314 1.97601 7.93883 1.97801 7.86796 1.99689C7.16177 2.18428 6.48368 2.46487 5.85156 2.83127C5.7874 2.86766 5.73274 2.91867 5.69201 2.98017C5.65129 3.04166 5.62565 3.1119 5.61718 3.18517L5.40859 5.09533C5.30078 5.19637 5.19661 5.30054 5.09609 5.40783L3.18437 5.62502C3.1111 5.63348 3.04086 5.65912 2.97937 5.69985C2.91787 5.74057 2.86685 5.79524 2.83046 5.85939C2.46512 6.49074 2.18507 7.16773 1.99765 7.87267C1.97953 7.94285 1.97794 8.01627 1.99298 8.08716C2.00803 8.15806 2.03931 8.2245 2.08437 8.28127L3.28515 9.78127C3.28046 9.92892 3.28046 10.0774 3.28515 10.225L2.08359 11.7227C2.03781 11.78 2.00612 11.8472 1.99105 11.919C1.97599 11.9908 1.97798 12.0651 1.99687 12.136C2.18458 12.8408 2.46516 13.5176 2.83124 14.1485C2.86764 14.2126 2.91865 14.2673 2.98015 14.308C3.04164 14.3487 3.11188 14.3744 3.18515 14.3828L5.09531 14.5945C5.19635 14.7024 5.30052 14.8065 5.40781 14.907L5.62499 16.8156C5.63346 16.8889 5.6591 16.9592 5.69983 17.0206C5.74055 17.0821 5.79521 17.1332 5.85937 17.1695C6.49072 17.5349 7.16771 17.8149 7.87265 18.0024C7.94352 18.0212 8.01783 18.0232 8.08961 18.0082C8.16139 17.9931 8.22863 17.9614 8.28593 17.9156L9.77812 16.7188C9.92578 16.7235 10.0742 16.7235 10.2219 16.7188L11.7227 17.9203C11.8059 17.9867 11.9092 18.0228 12.0156 18.0227C12.0562 18.0225 12.0966 18.0173 12.1359 18.007C12.8408 17.8193 13.5175 17.5388 14.1484 17.1727C14.2126 17.1363 14.2673 17.0853 14.308 17.0238C14.3487 16.9623 14.3743 16.892 14.3828 16.8188L14.5945 14.9086C14.7023 14.8081 14.8065 14.7039 14.907 14.5961L16.818 14.3836C16.8912 14.3751 16.9615 14.3495 17.023 14.3088C17.0845 14.2681 17.1355 14.2134 17.1719 14.1492C17.5373 13.518 17.8174 12.8409 18.0047 12.136C18.0236 12.0651 18.0256 11.9908 18.0105 11.919C17.9954 11.8472 17.9637 11.78 17.918 11.7227L16.7187 10.2219ZM16.4766 13.4742L14.6297 13.6797C14.5143 13.693 14.4079 13.7487 14.3312 13.836C14.1768 14.0099 14.0122 14.1745 13.8383 14.3289C13.751 14.4056 13.6953 14.512 13.682 14.6274L13.4766 16.4735C13.0442 16.704 12.5898 16.8909 12.1203 17.0313L10.6695 15.8703C10.5863 15.8039 10.483 15.7678 10.3766 15.768H10.3484C10.1163 15.7813 9.88366 15.7813 9.65156 15.768C9.53564 15.7609 9.42122 15.7971 9.33046 15.8695L7.88046 17.0313C7.41137 16.8901 6.95755 16.7025 6.52578 16.4711L6.32031 14.6258C6.307 14.5104 6.25132 14.404 6.16406 14.3274C5.99011 14.1729 5.8255 14.0083 5.67109 13.8344C5.59441 13.7471 5.48805 13.6914 5.37265 13.6781L3.52656 13.4727C3.2962 13.0415 3.10935 12.5885 2.96874 12.1203L4.12968 10.6695C4.20214 10.5788 4.23834 10.4644 4.23124 10.3485C4.21796 10.1164 4.21796 9.88368 4.23124 9.65158C4.23834 9.53566 4.20214 9.42124 4.12968 9.33049L2.96874 7.88049C3.10988 7.41139 3.29753 6.95758 3.5289 6.5258L5.37421 6.32033C5.48962 6.30703 5.59597 6.25134 5.67265 6.16408C5.82706 5.99014 5.99168 5.82552 6.16562 5.67111C6.25288 5.59443 6.30857 5.48808 6.32187 5.37267L6.52734 3.52658C6.95849 3.29623 7.41151 3.10937 7.87968 2.96877L9.33046 4.1297C9.42122 4.20217 9.53564 4.23836 9.65156 4.23127C9.88366 4.21799 10.1163 4.21799 10.3484 4.23127C10.4643 4.23836 10.5788 4.20217 10.6695 4.1297L12.1195 2.96877C12.5886 3.1099 13.0424 3.29755 13.4742 3.52892L13.6797 5.3758C13.693 5.4912 13.7487 5.59755 13.8359 5.67424C14.0099 5.82865 14.1745 5.99326 14.3289 6.1672C14.4056 6.25447 14.5119 6.31015 14.6273 6.32345L16.4734 6.52892C16.7037 6.95958 16.8905 7.41207 17.0312 7.8797L15.8703 9.33049C15.7978 9.42124 15.7617 9.53566 15.7687 9.65158C15.782 9.88368 15.782 10.1164 15.7687 10.3485C15.7617 10.4644 15.7978 10.5788 15.8703 10.6695L17.0312 12.1195C16.8906 12.5886 16.7035 13.0424 16.4727 13.4742H16.4766Z" fill="#F7B40A"/>
</g>
</svg>
