<svg width="24" height="24" viewBox="0 0 24 24" fill="none" xmlns="http://www.w3.org/2000/svg">
<g id="Target">
<path id="Union" fill-rule="evenodd" clip-rule="evenodd" d="M21.3536 2.64645C21.5488 2.84171 21.5488 3.15829 21.3536 3.35355L18.7267 5.9804L18.7177 5.98962L18.7077 5.99944L12.3536 12.3536C12.1583 12.5488 11.8417 12.5488 11.6464 12.3536C11.4512 12.1583 11.4512 11.8417 11.6464 11.6464L14.4524 8.8405C13.8515 8.37472 13.1272 8.0876 12.3631 8.01831C11.4317 7.93384 10.5002 8.17838 9.73042 8.70944C8.96063 9.2405 8.40124 10.0245 8.14949 10.9252C7.89774 11.8259 7.96954 12.7863 8.3524 13.6395C8.73526 14.4928 9.40499 15.1849 10.2452 15.5956C11.0854 16.0063 12.0429 16.1096 12.9514 15.8876C13.8599 15.6656 14.6618 15.1323 15.2179 14.3804C15.774 13.6285 16.049 12.7055 15.9952 11.7718C15.9793 11.4961 16.1899 11.2598 16.4656 11.2439C16.7413 11.228 16.9777 11.4386 16.9936 11.7143C17.0608 12.8813 16.717 14.0351 16.0219 14.975C15.3268 15.9149 14.3244 16.5815 13.1888 16.859C12.0532 17.1365 10.8563 17.0074 9.80603 16.494C8.75578 15.9806 7.91862 15.1155 7.44004 14.0489C6.96146 12.9824 6.87172 11.7818 7.18641 10.656C7.50109 9.53014 8.20032 8.55014 9.16256 7.88631C10.1248 7.22249 11.2892 6.91681 12.4535 7.0224C13.4509 7.11286 14.3941 7.50027 15.164 8.12888L17.6457 5.64722C16.1872 4.35454 14.3235 3.59948 12.3662 3.51849C10.2415 3.43059 8.16119 4.14333 6.53683 5.51573C4.91246 6.88813 3.86236 8.82021 3.59425 10.9298C3.32615 13.0393 3.85958 15.1726 5.08901 16.9077C6.31844 18.6428 8.15432 19.8533 10.2335 20.2996C12.3126 20.746 14.4835 20.3957 16.3168 19.3182C18.1501 18.2406 19.5121 16.5142 20.1335 14.4805C20.7549 12.4468 20.5904 10.2539 19.6724 8.33575C19.5532 8.08666 19.6585 7.7881 19.9076 7.6689C20.1567 7.5497 20.4553 7.655 20.5745 7.90409C21.6005 10.0483 21.7845 12.4994 21.0899 14.7727C20.3953 17.046 18.8728 18.9757 16.8235 20.1803C14.7743 21.3848 12.3476 21.7763 10.0236 21.2774C7.69949 20.7784 5.64734 19.4254 4.27308 17.4859C2.89881 15.5464 2.30255 13.1617 2.60223 10.8037C2.90192 8.44563 4.07573 6.28594 5.89145 4.75187C7.70717 3.21779 10.0325 2.42108 12.4075 2.51935C14.6156 2.61071 16.7171 3.46951 18.3539 4.93897L20.6464 2.64645C20.8417 2.45118 21.1583 2.45118 21.3536 2.64645Z" fill="white" fill-opacity="0.4"/>
</g>
</svg>
