<svg width="20" height="20" viewBox="0 0 20 20" fill="none" xmlns="http://www.w3.org/2000/svg">
<path id="Vector" d="M17.6395 5.36727C17.5506 5.40972 17.4709 5.46928 17.405 5.54254C17.3391 5.61579 17.2883 5.70131 17.2555 5.7942C17.2227 5.88709 17.2085 5.98555 17.2137 6.08393C17.219 6.18231 17.2435 6.2787 17.286 6.36758C18.1664 8.20422 18.337 10.3014 17.7651 12.2562C17.1931 14.2109 15.9191 15.8854 14.1876 16.9579C12.4561 18.0304 10.3894 18.4252 8.38449 18.0665C6.37961 17.7078 4.57798 16.6209 3.32575 15.0147C2.07353 13.4084 1.45904 11.396 1.60035 9.36418C1.74167 7.33237 2.62881 5.42444 4.09134 4.00696C5.55386 2.58948 7.48861 1.76244 9.52384 1.68475C11.5591 1.60705 13.5512 2.28417 15.1176 3.58602L12.9829 5.72071C11.9198 4.92866 10.5965 4.5681 9.27859 4.71142C7.96068 4.85475 6.74578 5.49136 5.87784 6.49341C5.0099 7.49546 4.55318 8.78877 4.59939 10.1136C4.6456 11.4385 5.19132 12.6969 6.12696 13.636C6.87927 14.388 7.84227 14.8938 8.88843 15.0863C9.93458 15.2788 11.0145 15.149 11.9853 14.7141C12.956 14.2791 13.7717 13.5596 14.3244 12.6507C14.877 11.7418 15.1406 10.6865 15.0801 9.62446C15.0745 9.52597 15.0497 9.42953 15.0069 9.34066C14.964 9.25178 14.9042 9.17221 14.8306 9.10648C14.757 9.04076 14.6712 8.99016 14.5781 8.95759C14.485 8.92502 14.3864 8.9111 14.2879 8.91664C14.1894 8.92218 14.093 8.94707 14.0041 8.98988C13.9152 9.03269 13.8357 9.09258 13.7699 9.16615C13.7042 9.23971 13.6536 9.32549 13.621 9.41861C13.5885 9.51172 13.5745 9.61034 13.5801 9.70883C13.6202 10.4036 13.4662 11.0959 13.1353 11.7082C12.8044 12.3204 12.3096 12.8285 11.7064 13.1756C11.1031 13.5227 10.4152 13.695 9.71957 13.6733C9.02394 13.6517 8.34807 13.4368 7.76759 13.0529L10.0129 10.8076L13.552 7.27321L19.3701 1.46071C19.4398 1.39102 19.495 1.3083 19.5328 1.21725C19.5705 1.12621 19.5899 1.02863 19.5899 0.930082C19.5899 0.831535 19.5705 0.733954 19.5328 0.642909C19.495 0.551864 19.4398 0.469139 19.3701 0.399456C19.3004 0.329774 19.2177 0.274498 19.1266 0.236786C19.0356 0.199075 18.938 0.179664 18.8395 0.179664C18.7409 0.179664 18.6433 0.199075 18.5523 0.236786C18.4612 0.274498 18.3785 0.329774 18.3088 0.399456L16.1835 2.51821C14.2701 0.869899 11.7917 0.0283701 9.27019 0.170805C6.74869 0.31324 4.38084 1.42853 2.66519 3.28183C0.949532 5.13514 0.0199458 7.58187 0.0721543 10.1068C0.124363 12.6318 1.15429 15.038 2.94509 16.8188C4.57104 18.4477 6.72079 19.4489 9.01391 19.6452C11.307 19.8415 13.5957 19.2203 15.4748 17.8915C17.354 16.5627 18.7025 14.612 19.2817 12.3846C19.861 10.1571 19.6336 7.7966 18.6398 5.72071C18.5973 5.6318 18.5378 5.55213 18.4645 5.48625C18.3913 5.42037 18.3057 5.36957 18.2128 5.33675C18.12 5.30392 18.0215 5.28973 17.9231 5.29496C17.8247 5.3002 17.7283 5.32477 17.6395 5.36727Z" fill="#1D2127"/>
</svg>
