<svg width="22" height="22" viewBox="0 0 22 22" fill="none" xmlns="http://www.w3.org/2000/svg">
<path d="M20.1667 1.83326C19.6196 1.28405 18.8845 0.962783 18.1098 0.934265C17.3351 0.905746 16.5783 1.1721 15.9923 1.6796C15.4063 2.1871 15.0345 2.89797 14.952 3.66881C14.8695 4.43965 15.0824 5.21309 15.5478 5.83311L5.83311 15.5478C5.24324 15.1068 4.51418 14.8931 3.77956 14.9459C3.04493 14.9987 2.35396 15.3145 1.83327 15.8355C1.41856 16.2509 1.13199 16.7767 1.00766 17.3504C0.883327 17.9241 0.926484 18.5214 1.13199 19.0712C1.33749 19.6211 1.69669 20.1003 2.1668 20.4518C2.63692 20.8033 3.19814 21.0123 3.78366 21.0539C4.36918 21.0955 4.95431 20.9679 5.4694 20.6864C5.98448 20.4049 6.40781 19.9813 6.68898 19.466C6.97015 18.9507 7.09731 18.3655 7.05533 17.78C7.01335 17.1945 6.80398 16.6335 6.45217 16.1636L16.1669 6.44889C16.7869 6.91427 17.5603 7.12718 18.3312 7.04469C19.102 6.96219 19.8129 6.59043 20.3204 6.00438C20.8279 5.41834 21.0942 4.66163 21.0657 3.88692C21.0372 3.1122 20.7159 2.37713 20.1667 1.82998V1.83326ZM5.54655 19.552C5.24065 19.858 4.85087 20.0664 4.42652 20.1509C4.00217 20.2353 3.5623 20.192 3.16255 20.0265C2.7628 19.861 2.42112 19.5806 2.18072 19.2208C1.94033 18.8611 1.81202 18.4381 1.81202 18.0055C1.81202 17.5728 1.94033 17.1498 2.18072 16.7901C2.42112 16.4303 2.7628 16.15 3.16255 15.9844C3.5623 15.8189 4.00217 15.7756 4.42652 15.86C4.85087 15.9445 5.24065 16.1529 5.54655 16.4589C5.9553 16.8689 6.18483 17.4243 6.18483 18.0033C6.18483 18.5822 5.9553 19.1376 5.54655 19.5476V19.552ZM19.5465 5.55201C19.1363 5.96211 18.58 6.19248 18 6.19248C17.4199 6.19248 16.8636 5.96211 16.4534 5.55201C16.1474 5.24611 15.939 4.85634 15.8546 4.43199C15.7701 4.00764 15.8134 3.56777 15.9789 3.16802C16.1445 2.76826 16.4249 2.42658 16.7846 2.18619C17.1444 1.9458 17.5673 1.81748 18 1.81748C18.4327 1.81748 18.8556 1.9458 19.2154 2.18619C19.5751 2.42658 19.8555 2.76826 20.021 3.16802C20.1866 3.56777 20.2299 4.00764 20.1454 4.43199C20.0609 4.85634 19.8525 5.24611 19.5465 5.55201Z" fill="#343330"/>
<path d="M5.54655 19.552C5.24065 19.858 4.85087 20.0664 4.42652 20.1509C4.00217 20.2353 3.5623 20.192 3.16255 20.0265C2.7628 19.861 2.42112 19.5806 2.18072 19.2208C1.94033 18.8611 1.81202 18.4381 1.81202 18.0055C1.81202 17.5728 1.94033 17.1498 2.18072 16.7901C2.42112 16.4303 2.7628 16.15 3.16255 15.9844C3.5623 15.8189 4.00217 15.7756 4.42652 15.86C4.85087 15.9445 5.24065 16.1529 5.54655 16.4589C5.9553 16.8689 6.18483 17.4243 6.18483 18.0033C6.18483 18.5822 5.9553 19.1376 5.54655 19.5476V19.552Z" fill="#F6B40A"/>
<path d="M19.5465 5.55201C19.1363 5.96211 18.58 6.19248 18 6.19248C17.4199 6.19248 16.8636 5.96211 16.4534 5.55201C16.1474 5.24611 15.939 4.85634 15.8546 4.43199C15.7701 4.00764 15.8134 3.56777 15.9789 3.16802C16.1445 2.76826 16.4249 2.42658 16.7846 2.18619C17.1444 1.9458 17.5673 1.81748 18 1.81748C18.4327 1.81748 18.8556 1.9458 19.2154 2.18619C19.5751 2.42658 19.8555 2.76826 20.021 3.16802C20.1866 3.56777 20.2299 4.00764 20.1454 4.43199C20.0609 4.85634 19.8525 5.24611 19.5465 5.55201Z" fill="#F6B40A"/>
</svg>
