<svg width="26" height="21" viewBox="0 0 26 21" fill="none" xmlns="http://www.w3.org/2000/svg">
<path d="M24.9266 12.7762C24.6531 12.5657 24.3347 12.4213 23.9962 12.3544C23.6577 12.2874 23.3083 12.2996 22.9753 12.3902L21.6683 12.6909C24.4191 10.3306 25.8125 8.00094 25.8125 5.75C25.8125 3.09656 23.6797 0.937499 21.0591 0.937499C20.2685 0.93118 19.489 1.12234 18.7911 1.49365C18.0931 1.86495 17.499 2.40464 17.0625 3.06375C16.626 2.40464 16.0319 1.86495 15.3339 1.49365C14.636 1.12234 13.8564 0.93118 13.0659 0.937499C10.4453 0.937499 8.3125 3.09656 8.3125 5.75C8.3125 7.04609 8.76203 8.31375 9.71359 9.6875C8.94434 9.71614 8.21459 10.0355 7.67156 10.5811L5.06844 13.1875H1.75C1.4019 13.1875 1.06806 13.3258 0.821922 13.5719C0.575781 13.8181 0.4375 14.1519 0.4375 14.5V18.875C0.4375 19.2231 0.575781 19.5569 0.821922 19.8031C1.06806 20.0492 1.4019 20.1875 1.75 20.1875H13.125C13.1619 20.1877 13.1986 20.1833 13.2344 20.1744L20.2344 18.4244C20.2567 18.4186 20.2786 18.4113 20.3 18.4025L24.5459 16.5934L24.57 16.5825C24.9121 16.4115 25.205 16.1562 25.4212 15.8408C25.6374 15.5253 25.7697 15.1599 25.8057 14.7792C25.8417 14.3984 25.7802 14.0148 25.627 13.6644C25.4737 13.314 25.2338 13.0083 24.9298 12.7762H24.9266ZM13.0659 1.8125C13.8309 1.80294 14.5813 2.02182 15.2211 2.44112C15.861 2.86041 16.3612 3.46107 16.6578 4.16625C16.6908 4.24649 16.7468 4.31512 16.8189 4.36342C16.891 4.41172 16.9758 4.43751 17.0625 4.43751C17.1492 4.43751 17.234 4.41172 17.3061 4.36342C17.3782 4.31512 17.4342 4.24649 17.4672 4.16625C17.7638 3.46107 18.264 2.86041 18.9039 2.44112C19.5437 2.02182 20.2941 1.80294 21.0591 1.8125C23.1612 1.8125 24.9375 3.61609 24.9375 5.75C24.9375 8.07641 23.1733 10.5625 19.6941 13.1448L17.582 13.625C17.8149 13.2268 17.9376 12.7738 17.9375 12.3125C17.9375 11.6163 17.6609 10.9486 17.1687 10.4563C16.6764 9.96406 16.0087 9.6875 15.3125 9.6875H10.7942C9.70047 8.26562 9.1875 7.00781 9.1875 5.75C9.1875 3.61609 10.9637 1.8125 13.0659 1.8125ZM1.3125 18.875V14.5C1.3125 14.384 1.35859 14.2727 1.44064 14.1906C1.52269 14.1086 1.63397 14.0625 1.75 14.0625H4.8125V19.3125H1.75C1.63397 19.3125 1.52269 19.2664 1.44064 19.1844C1.35859 19.1023 1.3125 18.991 1.3125 18.875ZM24.1861 15.7939L19.985 17.5844L13.0714 19.3125H5.6875V13.8066L8.29063 11.2034C8.4932 10.9996 8.73421 10.838 8.99968 10.728C9.26515 10.618 9.54982 10.5617 9.83719 10.5625H15.3125C15.7766 10.5625 16.2217 10.7469 16.5499 11.0751C16.8781 11.4033 17.0625 11.8484 17.0625 12.3125C17.0625 12.7766 16.8781 13.2217 16.5499 13.5499C16.2217 13.8781 15.7766 14.0625 15.3125 14.0625H12.25C12.134 14.0625 12.0227 14.1086 11.9406 14.1906C11.8586 14.2727 11.8125 14.384 11.8125 14.5C11.8125 14.616 11.8586 14.7273 11.9406 14.8094C12.0227 14.8914 12.134 14.9375 12.25 14.9375H15.75C15.7831 14.9376 15.8162 14.934 15.8484 14.9266L23.1766 13.2411H23.1941C23.5224 13.154 23.8714 13.1913 24.174 13.3458C24.4765 13.5003 24.7114 13.7611 24.8334 14.0781C24.9554 14.3951 24.9561 14.7461 24.8352 15.0636C24.7143 15.381 24.4804 15.6427 24.1784 15.7983L24.1861 15.7939Z" fill="#343330"/>
<path d="M1.3125 18.875V14.5C1.3125 14.384 1.35859 14.2727 1.44064 14.1906C1.52269 14.1086 1.63397 14.0625 1.75 14.0625H4.8125V19.3125H1.75C1.63397 19.3125 1.52269 19.2664 1.44064 19.1844C1.35859 19.1023 1.3125 18.991 1.3125 18.875Z" fill="#F6B40A"/>
<path d="M13.0659 1.8125C13.8309 1.80294 14.5813 2.02182 15.2211 2.44112C15.861 2.86041 16.3612 3.46107 16.6578 4.16625C16.6908 4.24649 16.7468 4.31512 16.8189 4.36342C16.891 4.41172 16.9758 4.43751 17.0625 4.43751C17.1492 4.43751 17.234 4.41172 17.3061 4.36342C17.3782 4.31512 17.4342 4.24649 17.4672 4.16625C17.7638 3.46107 18.264 2.86041 18.9039 2.44112C19.5437 2.02182 20.2941 1.80294 21.0591 1.8125C23.1612 1.8125 24.9375 3.61609 24.9375 5.75C24.9375 8.07641 23.1733 10.5625 19.6941 13.1448L17.582 13.625C17.8149 13.2268 17.9376 12.7738 17.9375 12.3125C17.9375 11.6163 17.6609 10.9486 17.1687 10.4563C16.6764 9.96406 16.0087 9.6875 15.3125 9.6875H10.7942C9.70047 8.26562 9.1875 7.00781 9.1875 5.75C9.1875 3.61609 10.9637 1.8125 13.0659 1.8125Z" fill="#F6B40A"/>
</svg>
