<svg width="24" height="21" viewBox="0 0 24 21" fill="none" xmlns="http://www.w3.org/2000/svg">
<path d="M15.9375 5.3125C16.4567 5.3125 16.9642 5.15855 17.3959 4.87011C17.8276 4.58167 18.164 4.1717 18.3627 3.69205C18.5614 3.21239 18.6133 2.68459 18.5121 2.17539C18.4108 1.66619 18.1608 1.19846 17.7937 0.831346C17.4265 0.464233 16.9588 0.214226 16.4496 0.11294C15.9404 0.0116536 15.4126 0.0636374 14.933 0.262317C14.4533 0.460997 14.0433 0.79745 13.7549 1.22913C13.4665 1.66081 13.3125 2.16833 13.3125 2.6875C13.3125 3.38369 13.5891 4.05137 14.0813 4.54366C14.5736 5.03594 15.2413 5.3125 15.9375 5.3125ZM15.9375 0.937501C16.2836 0.937501 16.622 1.04014 16.9097 1.23243C17.1975 1.42472 17.4218 1.69803 17.5543 2.01781C17.6867 2.33758 17.7214 2.68944 17.6539 3.02891C17.5864 3.36838 17.4197 3.6802 17.1749 3.92494C16.9302 4.16968 16.6184 4.33635 16.2789 4.40388C15.9394 4.4714 15.5876 4.43674 15.2678 4.30429C14.948 4.17184 14.6747 3.94754 14.4824 3.65975C14.2901 3.37196 14.1875 3.03362 14.1875 2.6875C14.1875 2.22337 14.3719 1.77825 14.7001 1.45006C15.0283 1.12188 15.4734 0.937501 15.9375 0.937501ZM19.875 12.3125C19.0962 12.3125 18.335 12.5434 17.6874 12.9761C17.0399 13.4087 16.5352 14.0237 16.2372 14.7432C15.9392 15.4627 15.8612 16.2544 16.0132 17.0182C16.1651 17.782 16.5401 18.4836 17.0908 19.0342C17.6414 19.5849 18.343 19.9599 19.1068 20.1118C19.8706 20.2638 20.6623 20.1858 21.3818 19.8878C22.1013 19.5898 22.7163 19.0851 23.1489 18.4376C23.5816 17.79 23.8125 17.0288 23.8125 16.25C23.8125 15.2057 23.3977 14.2042 22.6592 13.4658C21.9208 12.7273 20.9193 12.3125 19.875 12.3125ZM19.875 19.3125C19.2693 19.3125 18.6772 19.1329 18.1736 18.7964C17.6699 18.4599 17.2774 17.9816 17.0456 17.422C16.8138 16.8624 16.7532 16.2466 16.8713 15.6525C16.9895 15.0585 17.2812 14.5128 17.7095 14.0845C18.1378 13.6562 18.6835 13.3645 19.2775 13.2463C19.8716 13.1282 20.4874 13.1888 21.047 13.4206C21.6066 13.6524 22.0849 14.0449 22.4214 14.5486C22.7579 15.0522 22.9375 15.6443 22.9375 16.25C22.9375 17.0622 22.6148 17.8412 22.0405 18.4155C21.4662 18.9898 20.6872 19.3125 19.875 19.3125ZM4.125 12.3125C3.34624 12.3125 2.58496 12.5434 1.93744 12.9761C1.28993 13.4087 0.785246 14.0237 0.487226 14.7432C0.189206 15.4627 0.11123 16.2544 0.26316 17.0182C0.415089 17.782 0.790099 18.4836 1.34077 19.0342C1.89144 19.5849 2.59303 19.9599 3.35683 20.1118C4.12063 20.2638 4.91233 20.1858 5.63182 19.8878C6.3513 19.5898 6.96626 19.0851 7.39891 18.4376C7.83157 17.79 8.0625 17.0288 8.0625 16.25C8.0625 15.2057 7.64766 14.2042 6.90923 13.4658C6.17081 12.7273 5.16929 12.3125 4.125 12.3125ZM4.125 19.3125C3.5193 19.3125 2.92719 19.1329 2.42357 18.7964C1.91994 18.4599 1.52741 17.9816 1.29562 17.422C1.06383 16.8624 1.00318 16.2466 1.12135 15.6525C1.23951 15.0585 1.53119 14.5128 1.95949 14.0845C2.38779 13.6562 2.93347 13.3645 3.52754 13.2463C4.1216 13.1282 4.73737 13.1888 5.29697 13.4206C5.85657 13.6524 6.33487 14.0449 6.67138 14.5486C7.00789 15.0522 7.1875 15.6443 7.1875 16.25C7.1875 17.0622 6.86485 17.8412 6.29052 18.4155C5.71619 18.9898 4.93723 19.3125 4.125 19.3125ZM19 9.6875H14.625C14.5675 9.68755 14.5106 9.67627 14.4575 9.65431C14.4044 9.63235 14.3561 9.60015 14.3155 9.55953L11.125 6.36906L8.24406 9.25L12.3095 13.3155C12.3501 13.3561 12.3824 13.4044 12.4043 13.4575C12.4263 13.5106 12.4375 13.5675 12.4375 13.625V18.875C12.4375 18.991 12.3914 19.1023 12.3094 19.1844C12.2273 19.2664 12.116 19.3125 12 19.3125C11.884 19.3125 11.7727 19.2664 11.6906 19.1844C11.6086 19.1023 11.5625 18.991 11.5625 18.875V13.8066L7.31547 9.55953C7.27479 9.5189 7.24252 9.47065 7.22051 9.41754C7.19849 9.36443 7.18716 9.3075 7.18716 9.25C7.18716 9.19251 7.19849 9.13558 7.22051 9.08246C7.24252 9.02935 7.27479 8.9811 7.31547 8.94047L10.8155 5.44047C10.8561 5.39979 10.9044 5.36752 10.9575 5.34551C11.0106 5.32349 11.0675 5.31216 11.125 5.31216C11.1825 5.31216 11.2394 5.32349 11.2925 5.34551C11.3456 5.36752 11.3939 5.39979 11.4345 5.44047L14.8066 8.8125H19C19.116 8.8125 19.2273 8.85859 19.3094 8.94064C19.3914 9.02269 19.4375 9.13397 19.4375 9.25C19.4375 9.36603 19.3914 9.47731 19.3094 9.55936C19.2273 9.64141 19.116 9.6875 19 9.6875Z" fill="#343330"/>
<path d="M4.125 19.3125C3.5193 19.3125 2.92719 19.1329 2.42357 18.7964C1.91994 18.4599 1.52741 17.9816 1.29562 17.422C1.06383 16.8624 1.00318 16.2466 1.12135 15.6525C1.23951 15.0585 1.53119 14.5128 1.95949 14.0845C2.38779 13.6562 2.93347 13.3645 3.52754 13.2463C4.1216 13.1282 4.73737 13.1888 5.29697 13.4206C5.85657 13.6524 6.33487 14.0449 6.67138 14.5486C7.00789 15.0522 7.1875 15.6443 7.1875 16.25C7.1875 17.0622 6.86485 17.8412 6.29052 18.4155C5.71619 18.9898 4.93723 19.3125 4.125 19.3125Z" fill="#F6B40A"/>
<path d="M19.875 19.3125C19.2693 19.3125 18.6772 19.1329 18.1736 18.7964C17.6699 18.4599 17.2774 17.9816 17.0456 17.422C16.8138 16.8624 16.7532 16.2466 16.8713 15.6525C16.9895 15.0585 17.2812 14.5128 17.7095 14.0845C18.1378 13.6562 18.6835 13.3645 19.2775 13.2463C19.8716 13.1282 20.4874 13.1888 21.047 13.4206C21.6066 13.6524 22.0849 14.0449 22.4214 14.5486C22.7579 15.0522 22.9375 15.6443 22.9375 16.25C22.9375 17.0622 22.6148 17.8412 22.0405 18.4155C21.4662 18.9898 20.6872 19.3125 19.875 19.3125Z" fill="#F6B40A"/>
</svg>
