<svg width="20" height="20" viewBox="0 0 20 20" fill="none" xmlns="http://www.w3.org/2000/svg">
<path d="M4.75 0.812502C3.97124 0.812502 3.20996 1.04343 2.56244 1.47609C1.91493 1.90875 1.41025 2.5237 1.11223 3.24319C0.814206 3.96267 0.73623 4.75437 0.88816 5.51817C1.04009 6.28197 1.4151 6.98357 1.96577 7.53423C2.51644 8.0849 3.21803 8.45991 3.98183 8.61184C4.74563 8.76377 5.53733 8.6858 6.25682 8.38778C6.9763 8.08976 7.59126 7.58508 8.02391 6.93756C8.45657 6.29004 8.6875 5.52877 8.6875 4.75C8.6875 3.70571 8.27266 2.70419 7.53423 1.96577C6.79581 1.22734 5.79429 0.812502 4.75 0.812502ZM4.75 7.8125C4.1443 7.8125 3.55219 7.63289 3.04857 7.29638C2.54494 6.95987 2.15241 6.48157 1.92062 5.92197C1.68883 5.36237 1.62818 4.7466 1.74635 4.15254C1.86451 3.55847 2.15619 3.01279 2.58449 2.58449C3.01279 2.15619 3.55847 1.86451 4.15254 1.74635C4.7466 1.62818 5.36237 1.68883 5.92197 1.92062C6.48157 2.15241 6.95987 2.54494 7.29638 3.04857C7.63289 3.55219 7.8125 4.1443 7.8125 4.75C7.8125 5.56223 7.48985 6.34119 6.91552 6.91552C6.34119 7.48985 5.56223 7.8125 4.75 7.8125ZM15.25 8.6875C16.0288 8.6875 16.79 8.45657 17.4376 8.02391C18.0851 7.59126 18.5898 6.9763 18.8878 6.25682C19.1858 5.53733 19.2638 4.74563 19.1118 3.98183C18.9599 3.21803 18.5849 2.51644 18.0342 1.96577C17.4836 1.4151 16.782 1.04009 16.0182 0.88816C15.2544 0.73623 14.4627 0.814206 13.7432 1.11223C13.0237 1.41025 12.4087 1.91493 11.9761 2.56244C11.5434 3.20996 11.3125 3.97124 11.3125 4.75C11.3125 5.79429 11.7273 6.79581 12.4658 7.53423C13.2042 8.27266 14.2057 8.6875 15.25 8.6875ZM15.25 1.6875C15.8557 1.6875 16.4478 1.86711 16.9514 2.20363C17.4551 2.54014 17.8476 3.01844 18.0794 3.57803C18.3112 4.13763 18.3718 4.7534 18.2537 5.34747C18.1355 5.94153 17.8438 6.48722 17.4155 6.91552C16.9872 7.34381 16.4415 7.63549 15.8475 7.75366C15.2534 7.87182 14.6376 7.81118 14.078 7.57938C13.5184 7.34759 13.0401 6.95506 12.7036 6.45144C12.3671 5.94781 12.1875 5.35571 12.1875 4.75C12.1875 3.93778 12.5102 3.15882 13.0845 2.58449C13.6588 2.01016 14.4378 1.6875 15.25 1.6875ZM4.75 11.3125C3.97124 11.3125 3.20996 11.5434 2.56244 11.9761C1.91493 12.4087 1.41025 13.0237 1.11223 13.7432C0.814206 14.4627 0.73623 15.2544 0.88816 16.0182C1.04009 16.782 1.4151 17.4836 1.96577 18.0342C2.51644 18.5849 3.21803 18.9599 3.98183 19.1118C4.74563 19.2638 5.53733 19.1858 6.25682 18.8878C6.9763 18.5898 7.59126 18.0851 8.02391 17.4376C8.45657 16.79 8.6875 16.0288 8.6875 15.25C8.6875 14.2057 8.27266 13.2042 7.53423 12.4658C6.79581 11.7273 5.79429 11.3125 4.75 11.3125ZM4.75 18.3125C4.1443 18.3125 3.55219 18.1329 3.04857 17.7964C2.54494 17.4599 2.15241 16.9816 1.92062 16.422C1.68883 15.8624 1.62818 15.2466 1.74635 14.6525C1.86451 14.0585 2.15619 13.5128 2.58449 13.0845C3.01279 12.6562 3.55847 12.3645 4.15254 12.2463C4.7466 12.1282 5.36237 12.1888 5.92197 12.4206C6.48157 12.6524 6.95987 13.0449 7.29638 13.5486C7.63289 14.0522 7.8125 14.6443 7.8125 15.25C7.8125 16.0622 7.48985 16.8412 6.91552 17.4155C6.34119 17.9898 5.56223 18.3125 4.75 18.3125ZM19.1875 15.25C19.1875 15.366 19.1414 15.4773 19.0594 15.5594C18.9773 15.6414 18.866 15.6875 18.75 15.6875H15.6875V18.75C15.6875 18.866 15.6414 18.9773 15.5594 19.0594C15.4773 19.1414 15.366 19.1875 15.25 19.1875C15.134 19.1875 15.0227 19.1414 14.9406 19.0594C14.8586 18.9773 14.8125 18.866 14.8125 18.75V15.6875H11.75C11.634 15.6875 11.5227 15.6414 11.4406 15.5594C11.3586 15.4773 11.3125 15.366 11.3125 15.25C11.3125 15.134 11.3586 15.0227 11.4406 14.9406C11.5227 14.8586 11.634 14.8125 11.75 14.8125H14.8125V11.75C14.8125 11.634 14.8586 11.5227 14.9406 11.4406C15.0227 11.3586 15.134 11.3125 15.25 11.3125C15.366 11.3125 15.4773 11.3586 15.5594 11.4406C15.6414 11.5227 15.6875 11.634 15.6875 11.75V14.8125H18.75C18.866 14.8125 18.9773 14.8586 19.0594 14.9406C19.1414 15.0227 19.1875 15.134 19.1875 15.25Z" fill="#343330"/>
<path d="M4.75 7.8125C4.1443 7.8125 3.55219 7.63289 3.04857 7.29638C2.54494 6.95987 2.15241 6.48157 1.92062 5.92197C1.68883 5.36237 1.62818 4.7466 1.74635 4.15254C1.86451 3.55847 2.15619 3.01279 2.58449 2.58449C3.01279 2.15619 3.55847 1.86451 4.15254 1.74635C4.7466 1.62818 5.36237 1.68883 5.92197 1.92062C6.48157 2.15241 6.95987 2.54494 7.29638 3.04857C7.63289 3.55219 7.8125 4.1443 7.8125 4.75C7.8125 5.56223 7.48985 6.34119 6.91552 6.91552C6.34119 7.48985 5.56223 7.8125 4.75 7.8125Z" fill="#F6B40A"/>
<path d="M15.25 1.6875C15.8557 1.6875 16.4478 1.86711 16.9514 2.20363C17.4551 2.54014 17.8476 3.01844 18.0794 3.57803C18.3112 4.13763 18.3718 4.7534 18.2537 5.34747C18.1355 5.94153 17.8438 6.48722 17.4155 6.91552C16.9872 7.34381 16.4415 7.63549 15.8475 7.75366C15.2534 7.87182 14.6376 7.81118 14.078 7.57938C13.5184 7.34759 13.0401 6.95506 12.7036 6.45144C12.3671 5.94781 12.1875 5.35571 12.1875 4.75C12.1875 3.93778 12.5102 3.15882 13.0845 2.58449C13.6588 2.01016 14.4378 1.6875 15.25 1.6875Z" fill="#F6B40A"/>
<path d="M4.75 18.3125C4.1443 18.3125 3.55219 18.1329 3.04857 17.7964C2.54494 17.4599 2.15241 16.9816 1.92062 16.422C1.68883 15.8624 1.62818 15.2466 1.74635 14.6525C1.86451 14.0585 2.15619 13.5128 2.58449 13.0845C3.01279 12.6562 3.55847 12.3645 4.15254 12.2463C4.7466 12.1282 5.36237 12.1888 5.92197 12.4206C6.48157 12.6524 6.95987 13.0449 7.29638 13.5486C7.63289 14.0522 7.8125 14.6443 7.8125 15.25C7.8125 16.0622 7.48985 16.8412 6.91552 17.4155C6.34119 17.9898 5.56223 18.3125 4.75 18.3125Z" fill="#F6B40A"/>
</svg>
