<svg width="26" height="22" viewBox="0 0 26 22" fill="none" xmlns="http://www.w3.org/2000/svg">
<path d="M24.7917 0.958253C24.5073 0.673841 24.1697 0.448231 23.7981 0.294306C23.4265 0.140382 23.0283 0.0611572 22.6261 0.0611572C22.2239 0.0611572 21.8256 0.140382 21.4541 0.294306C21.0825 0.448231 20.7449 0.673841 20.4605 0.958253C20.1761 1.24264 19.9504 1.58026 19.7965 1.95184C19.6426 2.32342 19.5634 2.72168 19.5634 3.12388C19.5634 3.52608 19.6426 3.92434 19.7965 4.29592C19.9504 4.6675 20.1761 5.00512 20.4605 5.2895C20.5671 5.39709 20.6819 5.49619 20.8039 5.58591L17.5522 11.6245C17.0738 11.4504 16.5597 11.398 16.0561 11.4719C15.5524 11.5457 15.0751 11.7436 14.6669 12.0478L11.9522 9.3331C12.4158 8.71305 12.6274 7.9404 12.5444 7.17064C12.4614 6.40087 12.0899 5.69112 11.5047 5.18421C10.9194 4.67731 10.1639 4.41087 9.3902 4.43853C8.61646 4.46618 7.88191 4.78587 7.33437 5.33325C7.02285 5.64466 6.78218 6.01961 6.62877 6.4325C6.47535 6.8454 6.41281 7.28653 6.44541 7.7258C6.47801 8.16507 6.60498 8.59213 6.81767 8.97786C7.03035 9.36359 7.32374 9.6989 7.67781 9.96091L4.425 16.0006C3.87691 15.8001 3.28296 15.7604 2.71307 15.8862C2.14318 16.012 1.62109 16.2979 1.20828 16.7104C0.780011 17.1388 0.488367 17.6844 0.370225 18.2785C0.252083 18.8726 0.312749 19.4883 0.544552 20.0479C0.776354 20.6075 1.16888 21.0857 1.6725 21.4222C2.17612 21.7587 2.76821 21.9383 3.3739 21.9383C3.97959 21.9383 4.57169 21.7587 5.0753 21.4222C5.57892 21.0857 5.97145 20.6075 6.20325 20.0479C6.43506 19.4883 6.49572 18.8726 6.37758 18.2785C6.25944 17.6844 5.96779 17.1388 5.53953 16.7104C5.43237 16.6035 5.31759 16.5044 5.19609 16.414L8.44781 10.3754C8.92602 10.5503 9.44029 10.6032 9.94408 10.5293C10.4479 10.4554 10.9253 10.257 11.3331 9.95216L14.0478 12.6668C13.6848 13.1525 13.4742 13.7349 13.4425 14.3404C13.4109 14.9459 13.5597 15.5471 13.87 16.0679C14.1804 16.5888 14.6383 17.0058 15.1859 17.2661C15.7334 17.5264 16.3459 17.6184 16.9458 17.5303C17.5456 17.4422 18.1059 17.178 18.5555 16.7713C19.0051 16.3645 19.3238 15.8335 19.4713 15.2454C19.6188 14.6574 19.5885 14.0387 19.3841 13.4679C19.1797 12.8971 18.8105 12.3998 18.3233 12.039L21.575 5.99935C22.2299 6.23833 22.9467 6.24673 23.607 6.02317C24.2673 5.79961 24.8315 5.35746 25.2065 4.76979C25.5815 4.18212 25.7448 3.4841 25.6694 2.79108C25.594 2.09805 25.2843 1.4515 24.7917 0.958253ZM4.92047 20.427C4.61456 20.733 4.22479 20.9414 3.80044 21.0259C3.37609 21.1103 2.93622 21.067 2.53647 20.9015C2.13672 20.7359 1.79504 20.4556 1.55464 20.0958C1.31425 19.7361 1.18594 19.3131 1.18594 18.8804C1.18594 18.4478 1.31425 18.0248 1.55464 17.6651C1.79504 17.3053 2.13672 17.0249 2.53647 16.8594C2.93622 16.6938 3.37609 16.6506 3.80044 16.735C4.22479 16.8195 4.61456 17.0279 4.92047 17.3339C5.32922 17.7439 5.55875 18.2993 5.55875 18.8783C5.55875 19.4572 5.32922 20.0126 4.92047 20.4226V20.427ZM7.95234 9.052C7.6465 8.74604 7.43825 8.35626 7.35392 7.93195C7.26958 7.50765 7.31295 7.06786 7.47855 6.6682C7.64414 6.26853 7.92452 5.92695 8.28423 5.68662C8.64394 5.44629 9.06684 5.31802 9.49945 5.31802C9.93206 5.31802 10.355 5.44629 10.7147 5.68662C11.0744 5.92695 11.3548 6.26853 11.5204 6.6682C11.6859 7.06786 11.7293 7.50765 11.645 7.93195C11.5606 8.35626 11.3524 8.74604 11.0466 9.052C10.8431 9.25487 10.6016 9.41565 10.3359 9.52517C10.0703 9.63469 9.78566 9.6908 9.49832 9.69029C9.21098 9.68978 8.92655 9.63267 8.66129 9.52221C8.39602 9.41175 8.15512 9.25012 7.95234 9.04653V9.052ZM18.0477 16.052C17.7417 16.3578 17.3519 16.5661 16.9276 16.6504C16.5033 16.7348 16.0635 16.6914 15.6638 16.5258C15.2642 16.3602 14.9226 16.0798 14.6823 15.7201C14.4419 15.3604 14.3137 14.9375 14.3137 14.5049C14.3137 14.0723 14.4419 13.6494 14.6823 13.2897C14.9226 12.93 15.2642 12.6496 15.6638 12.484C16.0635 12.3184 16.5033 12.275 16.9276 12.3594C17.3519 12.4437 17.7417 12.6519 18.0477 12.9578C18.4567 13.3679 18.6865 13.9235 18.6865 14.5027C18.6865 15.082 18.4567 15.6375 18.0477 16.0476V16.052ZM24.1727 4.677C23.8667 4.98284 23.4769 5.19109 23.0526 5.27543C22.6283 5.35976 22.1885 5.31639 21.7888 5.15079C21.3892 4.9852 21.0476 4.70483 20.8073 4.34511C20.5669 3.9854 20.4387 3.5625 20.4387 3.12989C20.4387 2.69728 20.5669 2.27439 20.8073 1.91468C21.0476 1.55496 21.3892 1.27458 21.7888 1.10899C22.1885 0.943399 22.6283 0.900028 23.0526 0.984361C23.4769 1.06869 23.8667 1.27695 24.1727 1.58278C24.5814 1.99282 24.8109 2.54818 24.8109 3.12716C24.8109 3.70614 24.5814 4.2615 24.1727 4.67153V4.677Z" fill="#343330"/>
<path d="M4.92047 20.427C4.61456 20.733 4.22479 20.9414 3.80044 21.0259C3.37609 21.1103 2.93622 21.067 2.53647 20.9015C2.13672 20.7359 1.79504 20.4556 1.55464 20.0958C1.31425 19.7361 1.18594 19.3131 1.18594 18.8804C1.18594 18.4478 1.31425 18.0248 1.55464 17.6651C1.79504 17.3053 2.13672 17.0249 2.53647 16.8594C2.93622 16.6938 3.37609 16.6506 3.80044 16.735C4.22479 16.8195 4.61456 17.0279 4.92047 17.3339C5.32922 17.7439 5.55875 18.2993 5.55875 18.8783C5.55875 19.4572 5.32922 20.0126 4.92047 20.4226V20.427Z" fill="#F6B40A"/>
<path d="M7.95234 9.052C7.6465 8.74604 7.43825 8.35626 7.35392 7.93195C7.26958 7.50765 7.31295 7.06786 7.47855 6.6682C7.64414 6.26853 7.92452 5.92695 8.28423 5.68662C8.64394 5.44629 9.06684 5.31802 9.49945 5.31802C9.93206 5.31802 10.355 5.44629 10.7147 5.68662C11.0744 5.92695 11.3548 6.26853 11.5204 6.6682C11.6859 7.06786 11.7293 7.50765 11.645 7.93195C11.5606 8.35626 11.3524 8.74604 11.0466 9.052C10.8431 9.25487 10.6016 9.41565 10.3359 9.52517C10.0703 9.63469 9.78566 9.6908 9.49832 9.69029C9.21098 9.68978 8.92655 9.63267 8.66129 9.52221C8.39602 9.41175 8.15512 9.25012 7.95234 9.04653V9.052Z" fill="#F6B40A"/>
<path d="M18.0477 16.052C17.7417 16.3578 17.3519 16.5661 16.9276 16.6504C16.5033 16.7348 16.0635 16.6914 15.6638 16.5258C15.2642 16.3602 14.9226 16.0798 14.6823 15.7201C14.4419 15.3604 14.3137 14.9375 14.3137 14.5049C14.3137 14.0723 14.4419 13.6494 14.6823 13.2897C14.9226 12.93 15.2642 12.6496 15.6638 12.484C16.0635 12.3184 16.5033 12.275 16.9276 12.3594C17.3519 12.4437 17.7417 12.6519 18.0477 12.9578C18.4567 13.3679 18.6865 13.9235 18.6865 14.5027C18.6865 15.082 18.4567 15.6375 18.0477 16.0476V16.052Z" fill="#F6B40A"/>
<path d="M24.1727 4.677C23.8667 4.98284 23.4769 5.19109 23.0526 5.27543C22.6283 5.35976 22.1885 5.31639 21.7888 5.15079C21.3892 4.9852 21.0476 4.70483 20.8073 4.34511C20.5669 3.9854 20.4387 3.5625 20.4387 3.12989C20.4387 2.69728 20.5669 2.27439 20.8073 1.91468C21.0476 1.55496 21.3892 1.27458 21.7888 1.10899C22.1885 0.943399 22.6283 0.900028 23.0526 0.984361C23.4769 1.06869 23.8667 1.27695 24.1727 1.58278C24.5814 1.99282 24.8109 2.54818 24.8109 3.12716C24.8109 3.70614 24.5814 4.2615 24.1727 4.67153V4.677Z" fill="#F6B40A"/>
</svg>
