<svg width="22" height="22" viewBox="0 0 22 22" fill="none" xmlns="http://www.w3.org/2000/svg">
<path d="M7.92438 17.2344C7.8861 17.3908 6.90391 21.0625 1.375 21.0625C1.25897 21.0625 1.14769 21.0164 1.06564 20.9344C0.983597 20.8523 0.937503 20.7411 0.937503 20.625C0.937503 15.0972 4.6125 14.1139 4.76563 14.0757C4.87818 14.0466 4.99764 14.0635 5.09774 14.1226C5.19784 14.1817 5.27037 14.2781 5.29938 14.3907C5.32839 14.5032 5.3115 14.6227 5.25242 14.7228C5.19335 14.8229 5.09693 14.8954 4.98438 14.9244C4.86188 14.9561 2.0061 15.7546 1.82453 20.1744C6.24875 19.9928 7.04719 17.1382 7.08 17.0124C7.10901 16.9 7.18148 16.8037 7.28148 16.7447C7.38147 16.6857 7.5008 16.6689 7.61321 16.6979C7.72561 16.7269 7.82189 16.7994 7.88086 16.8994C7.93984 16.9994 7.95667 17.1187 7.92766 17.2311L7.92438 17.2344ZM18.2188 9.65581L17.5625 10.3055V16.868C17.563 17.0404 17.5291 17.2112 17.4631 17.3704C17.397 17.5296 17.2999 17.6741 17.1775 17.7955L13.4216 21.5525C13.2492 21.7251 13.0322 21.8462 12.7949 21.9022C12.5576 21.9583 12.3093 21.9472 12.078 21.8701C11.8466 21.793 11.6413 21.6529 11.4851 21.4657C11.3289 21.2784 11.228 21.0513 11.1936 20.8099L10.5866 16.4557L5.54438 11.4124L1.19235 10.8053C0.950735 10.7713 0.723391 10.6706 0.535838 10.5145C0.348285 10.3585 0.207949 10.1532 0.130587 9.92181C0.0532242 9.69041 0.0418975 9.44202 0.0978786 9.20453C0.15386 8.96704 0.274932 8.74986 0.447503 8.57737L4.20453 4.82144C4.32602 4.69923 4.47057 4.60237 4.62979 4.53647C4.789 4.47057 4.95972 4.43694 5.13203 4.43753H11.6945L12.3442 3.78784C15.1366 0.995498 18.502 0.876279 19.82 0.953935C20.1389 0.974068 20.4395 1.10982 20.6654 1.33575C20.8913 1.56167 21.0271 1.86225 21.0472 2.18112C21.1248 3.498 21.0056 6.86347 18.2188 9.65581ZM1.31375 9.93909L5.59469 10.5363L10.8195 5.31253H5.13203C5.01619 5.31302 4.90527 5.35943 4.8236 5.44159L1.06657 9.19644C1.00906 9.25386 0.968692 9.32617 0.949977 9.40525C0.931261 9.48433 0.934943 9.56706 0.960607 9.64417C0.986272 9.72127 1.03291 9.78971 1.09528 9.8418C1.15766 9.89389 1.23331 9.92758 1.31375 9.93909ZM16.6875 11.1805L11.4627 16.4053L12.0598 20.6874C12.0715 20.7677 12.1053 20.8433 12.1575 20.9055C12.2097 20.9677 12.2781 21.0142 12.3552 21.0397C12.4323 21.0653 12.5149 21.0689 12.5939 21.0501C12.6729 21.0313 12.7452 20.9909 12.8025 20.9335L16.5595 17.1775C16.6001 17.1369 16.6324 17.0886 16.6543 17.0355C16.6763 16.9824 16.6875 16.9255 16.6875 16.868V11.1805ZM17.5931 9.03784C20.1339 6.49597 20.2433 3.43128 20.1722 2.23253C20.1664 2.12678 20.1218 2.02689 20.0469 1.95201C19.972 1.87712 19.8722 1.83252 19.7664 1.82675C18.5633 1.75565 15.5008 1.86394 12.9611 4.40581L12.1834 5.18347L6.36907 11L11 15.631L16.8166 9.8155L17.5931 9.03784Z" fill="#343330"/>
<path d="M1.31375 9.93909L5.59469 10.5363L10.8195 5.31253H5.13203C5.01619 5.31302 4.90527 5.35943 4.8236 5.44159L1.06657 9.19644C1.00906 9.25386 0.968692 9.32617 0.949977 9.40525C0.931261 9.48433 0.934943 9.56706 0.960607 9.64417C0.986272 9.72127 1.03291 9.78971 1.09528 9.8418C1.15766 9.89389 1.23331 9.92758 1.31375 9.93909Z" fill="#F6B40A"/>
<path d="M16.6875 11.1805L11.4627 16.4053L12.0598 20.6874C12.0715 20.7677 12.1053 20.8433 12.1575 20.9055C12.2097 20.9677 12.2781 21.0142 12.3552 21.0397C12.4323 21.0653 12.5149 21.0689 12.5939 21.0501C12.6729 21.0313 12.7452 20.9909 12.8025 20.9335L16.5595 17.1775C16.6001 17.1369 16.6324 17.0886 16.6543 17.0355C16.6763 16.9824 16.6875 16.9255 16.6875 16.868V11.1805Z" fill="#F6B40A"/>
</svg>
