<svg width="24" height="22" viewBox="0 0 24 22" fill="none" xmlns="http://www.w3.org/2000/svg">
<path d="M17.4688 0.9375C15.1237 0.9375 13.1025 2.05203 12 3.89828C10.8975 2.05203 8.87625 0.9375 6.53125 0.9375C4.8494 0.939526 3.23702 1.60853 2.04778 2.79778C0.858534 3.98702 0.189526 5.59941 0.1875 7.28125C0.1875 10.4083 2.15625 13.6764 6.02813 16.9927C7.81587 18.514 9.74615 19.8593 11.7922 21.01C11.856 21.0445 11.9274 21.0625 12 21.0625C12.0726 21.0625 12.144 21.0445 12.2078 21.01C14.2538 19.8593 16.1841 18.514 17.9719 16.9927C21.8438 13.6764 23.8125 10.4083 23.8125 7.28125C23.8105 5.59941 23.1415 3.98702 21.9522 2.79778C20.763 1.60853 19.1506 0.939526 17.4688 0.9375ZM12 20.1241C10.4688 19.2534 1.0625 13.6327 1.0625 7.28125C1.06424 5.83138 1.64096 4.44139 2.66618 3.41618C3.69139 2.39096 5.08138 1.81424 6.53125 1.8125C8.84016 1.8125 10.7805 3.04953 11.5953 5.04016C11.6283 5.1204 11.6843 5.18903 11.7564 5.23733C11.8285 5.28563 11.9133 5.31142 12 5.31142C12.0867 5.31142 12.1715 5.28563 12.2436 5.23733C12.3157 5.18903 12.3717 5.1204 12.4047 5.04016C13.2195 3.04953 15.1598 1.8125 17.4688 1.8125C18.9186 1.81424 20.3086 2.39096 21.3338 3.41618C22.359 4.44139 22.9358 5.83138 22.9375 7.28125C22.9375 13.625 13.5312 19.2534 12 20.1241Z" fill="#343330"/>
<path d="M12 20.1241C10.4688 19.2534 1.0625 13.6327 1.0625 7.28125C1.06424 5.83138 1.64096 4.44139 2.66618 3.41618C3.69139 2.39096 5.08138 1.81424 6.53125 1.8125C8.84016 1.8125 10.7805 3.04953 11.5953 5.04016C11.6283 5.1204 11.6843 5.18903 11.7564 5.23733C11.8285 5.28563 11.9133 5.31142 12 5.31142C12.0867 5.31142 12.1715 5.28563 12.2436 5.23733C12.3157 5.18903 12.3717 5.1204 12.4047 5.04016C13.2195 3.04953 15.1598 1.8125 17.4688 1.8125C18.9186 1.81424 20.3086 2.39096 21.3338 3.41618C22.359 4.44139 22.9358 5.83138 22.9375 7.28125C22.9375 13.625 13.5312 19.2534 12 20.1241Z" fill="#F6B40A"/>
</svg>
