<svg width="25" height="22" viewBox="0 0 25 22" fill="none" xmlns="http://www.w3.org/2000/svg">
<path d="M20.625 15.0625C19.5807 15.0625 18.5792 14.6477 17.8408 13.9092C17.1023 13.1708 16.6875 12.1693 16.6875 11.125V8.46609C16.6871 8.13814 16.564 7.82221 16.3423 7.58051C16.1206 7.33881 15.8165 7.18885 15.4898 7.16016C12.6341 6.92937 10.7025 5.03719 10.568 2.34C10.5526 2.0142 10.4166 1.70578 10.1862 1.47484L9.28608 0.574687C9.04478 0.330756 8.7171 0.191687 8.37401 0.187593C8.03091 0.183499 7.70001 0.314709 7.45296 0.552812L7.4453 0.560468L0.4453 7.57359C0.32294 7.69553 0.225854 7.84042 0.15961 7.99996C0.0933652 8.15949 0.0592651 8.33054 0.0592651 8.50328C0.0592651 8.67602 0.0933652 8.84707 0.15961 9.0066C0.225854 9.16614 0.32294 9.31103 0.4453 9.43297L12.178 20.808C12.2996 20.93 12.4441 21.0268 12.6033 21.0927C12.7625 21.1586 12.9332 21.1923 13.1055 21.1919H23.25C23.5981 21.1919 23.9319 21.0536 24.1781 20.8075C24.4242 20.5613 24.5625 20.2275 24.5625 19.8794V19.0044C24.5631 18.4869 24.4616 17.9744 24.264 17.4962C24.0664 17.018 23.7765 16.5834 23.4108 16.2173C23.0451 15.8512 22.6108 15.5608 22.1328 15.3626C21.6548 15.1645 21.1424 15.0625 20.625 15.0625ZM23.6875 19.875C23.6875 19.991 23.6414 20.1023 23.5593 20.1844C23.4773 20.2664 23.366 20.3125 23.25 20.3125H13.112C13.0535 20.3126 12.9956 20.3009 12.9417 20.2781C12.8877 20.2554 12.8389 20.2221 12.7981 20.1802L1.06546 8.81062C0.983638 8.72861 0.93769 8.61749 0.93769 8.50164C0.93769 8.38579 0.983638 8.27467 1.06546 8.19266L8.06546 1.18281C8.14839 1.10573 8.25797 1.06381 8.37118 1.06585C8.48438 1.06789 8.59238 1.11373 8.67249 1.19375L9.57264 2.09281C9.64961 2.17022 9.69487 2.2736 9.69952 2.38266C9.85483 5.54687 12.1058 7.76391 15.4231 8.03187C15.5312 8.04301 15.6313 8.09398 15.7039 8.17485C15.7765 8.25572 15.8163 8.36071 15.8158 8.46937V10.6875H13.625C13.509 10.6875 13.3977 10.7336 13.3156 10.8156C13.2336 10.8977 13.1875 11.009 13.1875 11.125C13.1875 11.241 13.2336 11.3523 13.3156 11.4344C13.3977 11.5164 13.509 11.5625 13.625 11.5625H15.8333C15.9206 12.5266 16.2977 13.4418 16.915 14.1875H14.5C14.384 14.1875 14.2727 14.2336 14.1906 14.3156C14.1086 14.3977 14.0625 14.509 14.0625 14.625C14.0625 14.741 14.1086 14.8523 14.1906 14.9344C14.2727 15.0164 14.384 15.0625 14.5 15.0625H17.8633C18.6713 15.6325 19.6361 15.9382 20.625 15.9375C21.4372 15.9375 22.2162 16.2602 22.7905 16.8345C23.3648 17.4088 23.6875 18.1878 23.6875 19V19.875ZM3.99999 17.6875H0.499988C0.383955 17.6875 0.272676 17.6414 0.190628 17.5594C0.108581 17.4773 0.0624876 17.366 0.0624876 17.25C0.0624876 17.134 0.108581 17.0227 0.190628 16.9406C0.272676 16.8586 0.383955 16.8125 0.499988 16.8125H3.99999C4.11602 16.8125 4.2273 16.8586 4.30935 16.9406C4.39139 17.0227 4.43749 17.134 4.43749 17.25C4.43749 17.366 4.39139 17.4773 4.30935 17.5594C4.2273 17.6414 4.11602 17.6875 3.99999 17.6875ZM7.93749 20.75C7.93749 20.866 7.89139 20.9773 7.80935 21.0594C7.7273 21.1414 7.61602 21.1875 7.49999 21.1875H2.24999C2.13396 21.1875 2.02268 21.1414 1.94063 21.0594C1.85858 20.9773 1.81249 20.866 1.81249 20.75C1.81249 20.634 1.85858 20.5227 1.94063 20.4406C2.02268 20.3586 2.13396 20.3125 2.24999 20.3125H7.49999C7.61602 20.3125 7.7273 20.3586 7.80935 20.4406C7.89139 20.5227 7.93749 20.634 7.93749 20.75Z" fill="#343330"/>
<path d="M23.6875 19.875C23.6875 19.991 23.6414 20.1023 23.5593 20.1844C23.4773 20.2664 23.366 20.3125 23.25 20.3125H13.112C13.0535 20.3126 12.9956 20.3009 12.9417 20.2781C12.8877 20.2554 12.8389 20.2221 12.7981 20.1802L1.06546 8.81062C0.983638 8.72861 0.93769 8.61749 0.93769 8.50164C0.93769 8.38579 0.983638 8.27467 1.06546 8.19266L8.06546 1.18281C8.14839 1.10573 8.25797 1.06381 8.37118 1.06585C8.48438 1.06789 8.59238 1.11373 8.67249 1.19375L9.57264 2.09281C9.64961 2.17022 9.69487 2.2736 9.69952 2.38266C9.85483 5.54687 12.1058 7.76391 15.4231 8.03187C15.5312 8.04301 15.6313 8.09398 15.7039 8.17485C15.7765 8.25572 15.8163 8.36071 15.8158 8.46937V10.6875H13.625C13.509 10.6875 13.3977 10.7336 13.3156 10.8156C13.2336 10.8977 13.1875 11.009 13.1875 11.125C13.1875 11.241 13.2336 11.3523 13.3156 11.4344C13.3977 11.5164 13.509 11.5625 13.625 11.5625H15.8333C15.9206 12.5266 16.2977 13.4418 16.915 14.1875H14.5C14.384 14.1875 14.2727 14.2336 14.1906 14.3156C14.1086 14.3977 14.0625 14.509 14.0625 14.625C14.0625 14.741 14.1086 14.8523 14.1906 14.9344C14.2727 15.0164 14.384 15.0625 14.5 15.0625H17.8633C18.6713 15.6325 19.6361 15.9382 20.625 15.9375C21.4372 15.9375 22.2162 16.2602 22.7905 16.8345C23.3648 17.4088 23.6875 18.1878 23.6875 19V19.875Z" fill="#F6B40A"/>
</svg>
