<svg width="28" height="20" viewBox="0 0 28 20" fill="none" xmlns="http://www.w3.org/2000/svg">
<path d="M12.6744 18.7344C12.6501 18.8284 12.5952 18.9117 12.5184 18.9711C12.4416 19.0305 12.3471 19.0627 12.25 19.0625C12.2132 19.0626 12.1764 19.0582 12.1406 19.0494L8.64064 18.1744C8.59195 18.1623 8.54571 18.142 8.50392 18.1142L5.87892 16.3642C5.83109 16.3323 5.79001 16.2913 5.75802 16.2436C5.72604 16.1958 5.70377 16.1422 5.6925 16.0858C5.68122 16.0295 5.68116 15.9714 5.69232 15.915C5.70347 15.8587 5.72563 15.805 5.75751 15.7572C5.82191 15.6606 5.92204 15.5935 6.03589 15.5708C6.09225 15.5595 6.15029 15.5594 6.20668 15.5706C6.26307 15.5817 6.31671 15.6039 6.36454 15.6358L8.92611 17.3442L12.3594 18.2006C12.4152 18.2149 12.4676 18.24 12.5136 18.2746C12.5597 18.3092 12.5984 18.3525 12.6277 18.4021C12.657 18.4517 12.6762 18.5066 12.6842 18.5636C12.6922 18.6206 12.6889 18.6786 12.6744 18.7344ZM27.1961 8.15234C27.1424 8.31584 27.0567 8.46705 26.944 8.59716C26.8314 8.72728 26.694 8.83372 26.5399 8.91031L23.8864 10.2381L17.8117 16.3128C17.7577 16.3653 17.6911 16.4029 17.6183 16.422C17.5455 16.4412 17.4689 16.4413 17.3961 16.4222L10.3961 14.6722C10.3425 14.6592 10.2919 14.6358 10.2474 14.6033L4.14861 10.2512L1.46236 8.90702C1.30816 8.82998 1.17065 8.72331 1.05767 8.59311C0.944701 8.46291 0.858483 8.31173 0.803942 8.14821C0.749401 7.98469 0.727605 7.81203 0.7398 7.64008C0.751994 7.46813 0.79794 7.30027 0.875014 7.14609L3.59189 1.71234C3.66894 1.55814 3.77561 1.42062 3.9058 1.30765C4.036 1.19468 4.18718 1.10846 4.3507 1.05392C4.51422 0.99938 4.68689 0.977584 4.85883 0.989779C5.03078 1.00197 5.19864 1.04792 5.35283 1.12499L7.91876 2.40796L13.8797 0.703899C13.9584 0.682034 14.0416 0.682034 14.1203 0.703899L20.0813 2.40796L22.6472 1.12499C22.8014 1.04792 22.9692 1.00197 23.1412 0.989779C23.3131 0.977584 23.4858 0.99938 23.6493 1.05392C23.8128 1.10846 23.964 1.19468 24.0942 1.30765C24.2244 1.42062 24.3311 1.55814 24.4081 1.71234L27.125 7.14718C27.2026 7.30114 27.2489 7.46899 27.2611 7.64098C27.2733 7.81297 27.2512 7.98568 27.1961 8.14906V8.15234ZM1.85283 8.12499L4.17923 9.28765L7.28767 3.07077L4.96236 1.90812C4.91101 1.88233 4.85508 1.86691 4.79778 1.86274C4.74047 1.85857 4.6829 1.86573 4.62836 1.8838C4.57382 1.90188 4.52337 1.93053 4.4799 1.96811C4.43643 2.00568 4.40079 2.05145 4.37501 2.10281L1.65814 7.53765C1.63235 7.589 1.61693 7.64492 1.61276 7.70223C1.60859 7.75954 1.61575 7.81711 1.63383 7.87165C1.6519 7.92619 1.68055 7.97663 1.71813 8.0201C1.7557 8.06357 1.80147 8.09922 1.85283 8.12499ZM21.2188 11.6611L17.5241 8.7014C15.4974 10.5345 12.845 10.8353 10.6706 9.44624C10.5045 9.34091 10.3641 9.19956 10.26 9.03267C10.1558 8.86578 10.0905 8.67761 10.0689 8.48207C10.0472 8.28654 10.0698 8.08864 10.135 7.90302C10.2002 7.71739 10.3062 7.54879 10.4453 7.40968L15.4438 2.56109C15.5258 2.48146 15.6357 2.4371 15.75 2.43749H17.0013L14 1.57999L8.18017 3.24249L4.93392 9.73609L10.687 13.8453L17.3655 15.5155L21.2188 11.6611ZM23.0913 9.78859L19.8549 3.31249H15.9272L11.0611 8.03312C11.0158 8.07853 10.9813 8.1336 10.9603 8.19421C10.9393 8.25482 10.9322 8.3194 10.9397 8.38312C10.9467 8.44948 10.9685 8.51342 11.0035 8.57022C11.0385 8.62702 11.0859 8.67521 11.142 8.71124C12.6678 9.68577 15.0577 9.96249 17.1894 7.81437C17.2655 7.73778 17.3673 7.69205 17.4751 7.68599C17.583 7.67993 17.6892 7.71397 17.7735 7.78156L21.8433 11.0409L23.0913 9.78859ZM26.3408 7.53765L23.625 2.10281C23.5992 2.05145 23.5636 2.00568 23.5201 1.96811C23.4767 1.93053 23.4262 1.90188 23.3717 1.8838C23.3171 1.86573 23.2596 1.85857 23.2022 1.86274C23.1449 1.86691 23.089 1.88233 23.0377 1.90812L20.7124 3.07077L23.8208 9.28765L26.1472 8.12499C26.1986 8.09922 26.2443 8.06357 26.2819 8.0201C26.3195 7.97663 26.3481 7.92619 26.3662 7.87165C26.3843 7.81711 26.3914 7.75954 26.3873 7.70223C26.3831 7.64492 26.3677 7.589 26.3419 7.53765H26.3408Z" fill="#343330"/>
<path d="M1.85283 8.12499L4.17923 9.28765L7.28767 3.07077L4.96236 1.90812C4.91101 1.88233 4.85508 1.86691 4.79778 1.86274C4.74047 1.85857 4.6829 1.86573 4.62836 1.8838C4.57382 1.90188 4.52337 1.93053 4.4799 1.96811C4.43643 2.00568 4.40079 2.05145 4.37501 2.10281L1.65814 7.53765C1.63235 7.589 1.61693 7.64492 1.61276 7.70223C1.60859 7.75954 1.61575 7.81711 1.63383 7.87165C1.6519 7.92619 1.68055 7.97663 1.71813 8.0201C1.7557 8.06357 1.80147 8.09922 1.85283 8.12499Z" fill="#F6B40A"/>
<path d="M26.3408 7.53765L23.625 2.10281C23.5992 2.05145 23.5636 2.00568 23.5201 1.96811C23.4767 1.93053 23.4262 1.90188 23.3717 1.8838C23.3171 1.86573 23.2596 1.85857 23.2022 1.86274C23.1449 1.86691 23.089 1.88233 23.0377 1.90812L20.7124 3.07077L23.8208 9.28765L26.1472 8.12499C26.1986 8.09922 26.2443 8.06357 26.2819 8.0201C26.3195 7.97663 26.3481 7.92619 26.3662 7.87165C26.3843 7.81711 26.3914 7.75954 26.3873 7.70223C26.3831 7.64492 26.3677 7.589 26.3419 7.53765H26.3408Z" fill="#F6B40A"/>
</svg>
