<svg width="22" height="21" viewBox="0 0 22 21" fill="none" xmlns="http://www.w3.org/2000/svg">
<path d="M15.375 5.3125C15.375 4.44721 15.1184 3.60135 14.6377 2.88188C14.157 2.16242 13.4737 1.60166 12.6742 1.27053C11.8748 0.939396 10.9951 0.852756 10.1465 1.02157C9.29781 1.19038 8.51826 1.60706 7.90641 2.21891C7.29455 2.83076 6.87788 3.61032 6.70907 4.45898C6.54026 5.30765 6.6269 6.18731 6.95803 6.98674C7.28916 7.78617 7.84992 8.46945 8.56938 8.95018C9.28885 9.43091 10.1347 9.6875 11 9.6875C11.5745 9.6875 12.1434 9.57434 12.6742 9.35448C13.205 9.13461 13.6873 8.81235 14.0936 8.40609C14.4999 7.99984 14.8221 7.51754 15.042 6.98674C15.2618 6.45594 15.375 5.88704 15.375 5.3125ZM11 8.8125C10.3078 8.8125 9.63108 8.60723 9.05551 8.22265C8.47993 7.83806 8.03133 7.29144 7.76642 6.65189C7.50152 6.01235 7.4322 5.30862 7.56725 4.62969C7.7023 3.95075 8.03564 3.32711 8.52513 2.83763C9.01461 2.34814 9.63825 2.0148 10.3172 1.87975C10.9961 1.74471 11.6999 1.81402 12.3394 2.07892C12.9789 2.34383 13.5256 2.79243 13.9101 3.36801C14.2947 3.94358 14.5 4.62027 14.5 5.3125C14.5 6.24076 14.1313 7.131 13.4749 7.78738C12.8185 8.44375 11.9283 8.8125 11 8.8125ZM17.5625 11.4375C16.6972 11.4375 15.8513 11.6941 15.1319 12.1748C14.4124 12.6556 13.8517 13.3388 13.5205 14.1383C13.1894 14.9377 13.1028 15.8174 13.2716 16.666C13.4404 17.5147 13.8571 18.2942 14.4689 18.9061C15.0808 19.518 15.8603 19.9346 16.709 20.1034C17.5576 20.2722 18.4373 20.1856 19.2367 19.8545C20.0362 19.5233 20.7194 18.9626 21.2002 18.2431C21.6809 17.5237 21.9375 16.6778 21.9375 15.8125C21.9375 14.6522 21.4766 13.5394 20.6561 12.7189C19.8356 11.8984 18.7228 11.4375 17.5625 11.4375ZM17.5625 19.3125C16.8703 19.3125 16.1936 19.1072 15.618 18.7226C15.0424 18.3381 14.5938 17.7914 14.3289 17.1519C14.064 16.5124 13.9947 15.8086 14.1298 15.1297C14.2648 14.4508 14.5981 13.8271 15.0876 13.3376C15.5771 12.8481 16.2008 12.5148 16.8797 12.3798C17.5586 12.2447 18.2624 12.314 18.9019 12.5789C19.5414 12.8438 20.0881 13.2924 20.4726 13.868C20.8572 14.4436 21.0625 15.1203 21.0625 15.8125C21.0625 16.7408 20.6938 17.631 20.0374 18.2874C19.381 18.9438 18.4908 19.3125 17.5625 19.3125ZM4.4375 11.4375C3.57221 11.4375 2.72635 11.6941 2.00688 12.1748C1.28742 12.6556 0.726662 13.3388 0.395529 14.1383C0.0643956 14.9377 -0.022244 15.8174 0.146566 16.666C0.315377 17.5147 0.732055 18.2942 1.34391 18.9061C1.95576 19.518 2.73532 19.9346 3.58398 20.1034C4.43265 20.2722 5.31232 20.1856 6.11174 19.8545C6.91117 19.5233 7.59445 18.9626 8.07518 18.2431C8.55591 17.5237 8.8125 16.6778 8.8125 15.8125C8.8125 14.6522 8.35157 13.5394 7.53109 12.7189C6.71062 11.8984 5.59782 11.4375 4.4375 11.4375ZM4.4375 19.3125C3.74527 19.3125 3.06858 19.1072 2.49301 18.7226C1.91743 18.3381 1.46883 17.7914 1.20392 17.1519C0.939017 16.5124 0.869705 15.8086 1.00475 15.1297C1.1398 14.4508 1.47314 13.8271 1.96263 13.3376C2.45211 12.8481 3.07575 12.5148 3.75469 12.3798C4.43362 12.2447 5.13735 12.314 5.77689 12.5789C6.41644 12.8438 6.96306 13.2924 7.34764 13.868C7.73223 14.4436 7.9375 15.1203 7.9375 15.8125C7.9375 16.7408 7.56875 17.631 6.91238 18.2874C6.256 18.9438 5.36576 19.3125 4.4375 19.3125Z" fill="#343330"/>
<path d="M11 8.8125C10.3078 8.8125 9.63108 8.60723 9.05551 8.22265C8.47993 7.83806 8.03133 7.29144 7.76642 6.65189C7.50152 6.01235 7.4322 5.30862 7.56725 4.62969C7.7023 3.95075 8.03564 3.32711 8.52513 2.83763C9.01461 2.34814 9.63825 2.0148 10.3172 1.87975C10.9961 1.74471 11.6999 1.81402 12.3394 2.07892C12.9789 2.34383 13.5256 2.79243 13.9101 3.36801C14.2947 3.94358 14.5 4.62027 14.5 5.3125C14.5 6.24076 14.1313 7.131 13.4749 7.78738C12.8185 8.44375 11.9283 8.8125 11 8.8125Z" fill="#F6B40A"/>
<path d="M17.5625 19.3125C16.8703 19.3125 16.1936 19.1072 15.618 18.7226C15.0424 18.3381 14.5938 17.7914 14.3289 17.1519C14.064 16.5124 13.9947 15.8086 14.1298 15.1297C14.2648 14.4508 14.5981 13.8271 15.0876 13.3376C15.5771 12.8481 16.2008 12.5148 16.8797 12.3798C17.5586 12.2447 18.2624 12.314 18.9019 12.5789C19.5414 12.8438 20.0881 13.2924 20.4726 13.868C20.8572 14.4436 21.0625 15.1203 21.0625 15.8125C21.0625 16.7408 20.6938 17.631 20.0374 18.2874C19.381 18.9438 18.4908 19.3125 17.5625 19.3125Z" fill="#F6B40A"/>
<path d="M4.4375 19.3125C3.74527 19.3125 3.06858 19.1072 2.49301 18.7226C1.91743 18.3381 1.46883 17.7914 1.20392 17.1519C0.939017 16.5124 0.869705 15.8086 1.00475 15.1297C1.1398 14.4508 1.47314 13.8271 1.96263 13.3376C2.45211 12.8481 3.07575 12.5148 3.75469 12.3798C4.43362 12.2447 5.13735 12.314 5.77689 12.5789C6.41644 12.8438 6.96306 13.2924 7.34764 13.868C7.73223 14.4436 7.9375 15.1203 7.9375 15.8125C7.9375 16.7408 7.56875 17.631 6.91238 18.2874C6.256 18.9438 5.36576 19.3125 4.4375 19.3125Z" fill="#F6B40A"/>
</svg>
