<svg width="22" height="22" viewBox="0 0 22 22" fill="none" xmlns="http://www.w3.org/2000/svg">
<path d="M18.875 14.0625C18.0832 14.0619 17.3222 14.3694 16.7531 14.92L13.66 12.5138C13.9241 12.053 14.0629 11.5311 14.0625 11C14.0624 10.8166 14.046 10.6336 14.0133 10.4531L16.1406 9.74766C16.4887 10.4416 17.0868 10.9778 17.8144 11.2485C18.542 11.5192 19.3452 11.5042 20.0622 11.2064C20.7791 10.9087 21.3567 10.3505 21.6786 9.64401C22.0005 8.93755 22.0428 8.13538 21.797 7.39898C21.5513 6.66258 21.0356 6.04664 20.3539 5.67516C19.6722 5.30367 18.8751 5.20423 18.1231 5.39685C17.371 5.58947 16.7199 6.05984 16.3007 6.71329C15.8815 7.36673 15.7254 8.15471 15.8639 8.9186L13.7344 9.62735C13.48 9.11995 13.0895 8.69324 12.6067 8.39484C12.1239 8.09645 11.5676 7.93811 11 7.9375C10.7189 7.93737 10.4391 7.97639 10.1687 8.05344L9.12968 5.7161C9.75409 5.32268 10.2154 4.71701 10.4288 4.01051C10.6422 3.30402 10.5933 2.54423 10.2911 1.87092C9.98889 1.19762 9.4537 0.656097 8.784 0.345985C8.11429 0.0358738 7.35513 -0.021966 6.64617 0.183108C5.93722 0.388181 5.32616 0.842373 4.92543 1.46212C4.5247 2.08187 4.36125 2.82548 4.46515 3.55615C4.56905 4.28682 4.93331 4.95539 5.49092 5.43886C6.04853 5.92234 6.76197 6.18819 7.49999 6.1875C7.78111 6.18764 8.06088 6.14862 8.33124 6.07156L9.3703 8.40891C9.0249 8.62553 8.72633 8.90906 8.49214 9.2428C8.25796 9.57654 8.0929 9.95376 8.00668 10.3522C7.92046 10.7507 7.91482 11.1624 7.99009 11.5631C8.06537 11.9638 8.22003 12.3454 8.44499 12.6855L5.09374 15.6605C4.50247 15.1607 3.74388 14.9035 2.97059 14.9404C2.1973 14.9774 1.46671 15.3058 0.925809 15.8597C0.384909 16.4136 0.0738473 17.1518 0.0552098 17.9257C0.0365722 18.6996 0.311742 19.4519 0.825354 20.0312C1.33897 20.6105 2.0529 20.9737 2.82352 21.0478C3.59413 21.122 4.36423 20.9015 4.97886 20.4308C5.5935 19.9601 6.00706 19.2741 6.13633 18.5108C6.2656 17.7475 6.10099 16.9636 5.67561 16.3167L9.02249 13.3417C9.60031 13.8309 10.3392 14.088 11.0959 14.0631C11.8526 14.0383 12.573 13.7332 13.1175 13.2072L16.2106 15.6134C15.8784 16.1989 15.7483 16.8775 15.8404 17.5443C15.9326 18.2111 16.2419 18.829 16.7205 19.3024C17.1991 19.7757 17.8203 20.0782 18.4881 20.1631C19.1559 20.2479 19.833 20.1104 20.4148 19.7717C20.9965 19.4331 21.4505 18.9122 21.7065 18.2896C21.9625 17.667 22.0062 16.9775 21.8309 16.3275C21.6557 15.6776 21.2711 15.1035 20.7368 14.6941C20.2025 14.2847 19.5481 14.0627 18.875 14.0625ZM18.875 6.1875C19.3076 6.1875 19.7306 6.3158 20.0903 6.55616C20.45 6.79653 20.7304 7.13817 20.896 7.53788C21.0615 7.93759 21.1049 8.37743 21.0205 8.80176C20.9361 9.2261 20.7277 9.61587 20.4218 9.9218C20.1159 10.2277 19.7261 10.4361 19.3018 10.5205C18.8774 10.6049 18.4376 10.5616 18.0379 10.396C17.6382 10.2304 17.2965 9.95004 17.0562 9.59031C16.8158 9.23058 16.6875 8.80765 16.6875 8.375C16.6875 7.79484 16.918 7.23844 17.3282 6.82821C17.7384 6.41797 18.2948 6.1875 18.875 6.1875ZM5.31249 3.125C5.31249 2.69235 5.44078 2.26942 5.68115 1.90969C5.92151 1.54996 6.26316 1.26958 6.66287 1.10401C7.06258 0.938448 7.50242 0.895128 7.92675 0.979533C8.35108 1.06394 8.74086 1.27228 9.04679 1.5782C9.35271 1.88413 9.56105 2.27391 9.64546 2.69824C9.72986 3.12257 9.68654 3.56241 9.52098 3.96212C9.35541 4.36183 9.07503 4.70348 8.7153 4.94384C8.35557 5.18421 7.93264 5.3125 7.49999 5.3125C6.91983 5.3125 6.36343 5.08203 5.95319 4.6718C5.54296 4.26156 5.31249 3.70516 5.31249 3.125ZM3.12499 20.1875C2.69234 20.1875 2.26941 20.0592 1.90968 19.8188C1.54995 19.5785 1.26957 19.2368 1.104 18.8371C0.938435 18.4374 0.895115 17.9976 0.97952 17.5732C1.06393 17.1489 1.27226 16.7591 1.57819 16.4532C1.88412 16.1473 2.27389 15.9389 2.69823 15.8545C3.12256 15.7701 3.56239 15.8134 3.96211 15.979C4.36182 16.1446 4.70346 16.425 4.94383 16.7847C5.18419 17.1444 5.31249 17.5674 5.31249 18C5.31249 18.5802 5.08202 19.1366 4.67178 19.5468C4.26155 19.957 3.70515 20.1875 3.12499 20.1875ZM11 13.1875C10.5673 13.1875 10.1444 13.0592 9.78468 12.8188C9.42495 12.5785 9.14457 12.2368 8.979 11.8371C8.81344 11.4374 8.77012 10.9976 8.85452 10.5732C8.93893 10.1489 9.14727 9.75913 9.45319 9.45321C9.75912 9.14728 10.1489 8.93894 10.5732 8.85453C10.9976 8.77013 11.4374 8.81345 11.8371 8.97901C12.2368 9.14458 12.5785 9.42496 12.8188 9.78469C13.0592 10.1444 13.1875 10.5674 13.1875 11C13.1875 11.5802 12.957 12.1366 12.5468 12.5468C12.1366 12.957 11.5802 13.1875 11 13.1875ZM18.875 19.3125C18.4423 19.3125 18.0194 19.1842 17.6597 18.9438C17.2999 18.7035 17.0196 18.3618 16.854 17.9621C16.6884 17.5624 16.6451 17.1226 16.7295 16.6982C16.8139 16.2739 17.0223 15.8841 17.3282 15.5782C17.6341 15.2723 18.0239 15.0639 18.4482 14.9795C18.8726 14.8951 19.3124 14.9384 19.7121 15.104C20.1118 15.2696 20.4535 15.55 20.6938 15.9097C20.9342 16.2694 21.0625 16.6924 21.0625 17.125C21.0625 17.7052 20.832 18.2616 20.4218 18.6718C20.0116 19.082 19.4552 19.3125 18.875 19.3125Z" fill="#343330"/>
<path d="M5.31249 3.125C5.31249 2.69235 5.44078 2.26942 5.68115 1.90969C5.92151 1.54996 6.26316 1.26958 6.66287 1.10401C7.06258 0.938448 7.50242 0.895128 7.92675 0.979533C8.35108 1.06394 8.74086 1.27228 9.04679 1.5782C9.35271 1.88413 9.56105 2.27391 9.64546 2.69824C9.72986 3.12257 9.68654 3.56241 9.52098 3.96212C9.35541 4.36183 9.07503 4.70348 8.7153 4.94384C8.35557 5.18421 7.93264 5.3125 7.49999 5.3125C6.91983 5.3125 6.36343 5.08203 5.95319 4.6718C5.54296 4.26156 5.31249 3.70516 5.31249 3.125Z" fill="#F6B40A"/>
<path d="M11 13.1875C10.5673 13.1875 10.1444 13.0592 9.78468 12.8188C9.42495 12.5785 9.14457 12.2368 8.979 11.8371C8.81344 11.4374 8.77012 10.9976 8.85452 10.5732C8.93893 10.1489 9.14727 9.75913 9.45319 9.45321C9.75912 9.14728 10.1489 8.93894 10.5732 8.85453C10.9976 8.77013 11.4374 8.81345 11.8371 8.97901C12.2368 9.14458 12.5785 9.42496 12.8188 9.78469C13.0592 10.1444 13.1875 10.5674 13.1875 11C13.1875 11.5802 12.957 12.1366 12.5468 12.5468C12.1366 12.957 11.5802 13.1875 11 13.1875Z" fill="#F6B40A"/>
<path d="M18.875 6.1875C19.3076 6.1875 19.7306 6.3158 20.0903 6.55616C20.45 6.79653 20.7304 7.13817 20.896 7.53788C21.0615 7.93759 21.1049 8.37743 21.0205 8.80176C20.9361 9.2261 20.7277 9.61587 20.4218 9.9218C20.1159 10.2277 19.7261 10.4361 19.3018 10.5205C18.8774 10.6049 18.4376 10.5616 18.0379 10.396C17.6382 10.2304 17.2965 9.95004 17.0562 9.59031C16.8158 9.23058 16.6875 8.80765 16.6875 8.375C16.6875 7.79484 16.918 7.23844 17.3282 6.82821C17.7384 6.41797 18.2948 6.1875 18.875 6.1875Z" fill="#F6B40A"/>
<path d="M18.875 19.3125C18.4423 19.3125 18.0194 19.1842 17.6597 18.9438C17.2999 18.7035 17.0196 18.3618 16.854 17.9621C16.6884 17.5624 16.6451 17.1226 16.7295 16.6982C16.8139 16.2739 17.0223 15.8841 17.3282 15.5782C17.6341 15.2723 18.0239 15.0639 18.4482 14.9795C18.8726 14.8951 19.3124 14.9384 19.7121 15.104C20.1118 15.2696 20.4535 15.55 20.6938 15.9097C20.9342 16.2694 21.0625 16.6924 21.0625 17.125C21.0625 17.7052 20.832 18.2616 20.4218 18.6718C20.0116 19.082 19.4552 19.3125 18.875 19.3125Z" fill="#F6B40A"/>
<path d="M3.12499 20.1875C2.69234 20.1875 2.26941 20.0592 1.90968 19.8188C1.54995 19.5785 1.26957 19.2368 1.104 18.8371C0.938435 18.4374 0.895115 17.9976 0.97952 17.5732C1.06393 17.1489 1.27226 16.7591 1.57819 16.4532C1.88412 16.1473 2.27389 15.9389 2.69823 15.8545C3.12256 15.7701 3.56239 15.8134 3.96211 15.979C4.36182 16.1446 4.70346 16.425 4.94383 16.7847C5.18419 17.1444 5.31249 17.5674 5.31249 18C5.31249 18.5802 5.08202 19.1366 4.67178 19.5468C4.26155 19.957 3.70515 20.1875 3.12499 20.1875Z" fill="#F6B40A"/>
</svg>
