<svg width="24" height="23" viewBox="0 0 24 23" fill="none" xmlns="http://www.w3.org/2000/svg">
<path d="M23.7447 8.7767C23.6672 8.53023 23.5176 8.31263 23.3152 8.15199C23.1128 7.99135 22.867 7.89502 22.6094 7.87545L16.107 7.31326C16.028 7.30591 15.9524 7.27718 15.8885 7.23017C15.8245 7.18316 15.7745 7.11963 15.7439 7.04639L13.2031 0.99248C13.1038 0.754339 12.9363 0.550906 12.7216 0.407809C12.5069 0.264713 12.2547 0.188354 11.9967 0.188354C11.7387 0.188354 11.4865 0.264713 11.2718 0.407809C11.0571 0.550906 10.8896 0.754339 10.7903 0.99248L8.2528 7.04639C8.22218 7.11963 8.17221 7.18316 8.10824 7.23017C8.04427 7.27718 7.96872 7.30591 7.88967 7.31326L1.39061 7.87545C1.13247 7.89661 0.886353 7.99368 0.683265 8.15444C0.480176 8.31519 0.329192 8.53244 0.249323 8.77883C0.169454 9.02522 0.164271 9.28974 0.234428 9.53907C0.304584 9.78839 0.446944 10.0114 0.643579 10.18L5.57639 14.4839C5.63799 14.5367 5.68371 14.6055 5.70843 14.6828C5.73315 14.76 5.73591 14.8427 5.71639 14.9214L4.23436 21.3209C4.17329 21.5734 4.18931 21.8385 4.28036 22.0818C4.37141 22.3251 4.5333 22.5355 4.74514 22.6859C4.9522 22.8388 5.20038 22.9261 5.45757 22.9364C5.71476 22.9467 5.96914 22.8797 6.1878 22.7439L11.7769 19.3533C11.844 19.3119 11.9212 19.2901 12 19.2901C12.0788 19.2901 12.156 19.3119 12.2231 19.3533L17.8122 22.7439C18.0331 22.8763 18.2881 22.9408 18.5455 22.9293C18.8028 22.9178 19.0511 22.8309 19.2593 22.6793C19.4676 22.5277 19.6267 22.3182 19.7167 22.0768C19.8067 21.8355 19.8237 21.573 19.7656 21.322L18.2869 14.9192C18.2673 14.8405 18.2701 14.7579 18.2948 14.6806C18.3195 14.6033 18.3653 14.5345 18.4269 14.4817L23.3597 10.1778C23.556 10.0091 23.6975 9.78563 23.7661 9.53603C23.8347 9.28643 23.8272 9.02203 23.7447 8.7767ZM22.7844 9.52045L17.8515 13.8244C17.671 13.981 17.5366 14.184 17.463 14.4115C17.3893 14.639 17.3792 14.8822 17.4337 15.115L18.9125 21.5156C18.9331 21.6005 18.9279 21.6896 18.8975 21.7714C18.8671 21.8533 18.8129 21.9242 18.7419 21.975C18.6736 22.0256 18.5917 22.0544 18.5068 22.0577C18.422 22.0611 18.338 22.0387 18.2661 21.9936L12.677 18.6029C12.4731 18.4785 12.2389 18.4126 12 18.4126C11.7611 18.4126 11.5268 18.4785 11.323 18.6029L5.73389 21.9936C5.66192 22.0387 5.57801 22.0611 5.49313 22.0577C5.40825 22.0544 5.32634 22.0256 5.25811 21.975C5.18707 21.9242 5.13285 21.8533 5.10245 21.7714C5.07204 21.6896 5.06683 21.6005 5.08749 21.5156L6.56624 15.1128C6.62074 14.88 6.61063 14.6368 6.537 14.4093C6.46337 14.1819 6.32901 13.9788 6.14842 13.8222L1.21561 9.52045C1.1492 9.46347 1.10141 9.38788 1.0784 9.30346C1.0554 9.21903 1.05823 9.12965 1.08655 9.04685C1.11295 8.9654 1.16267 8.89349 1.22955 8.84002C1.29643 8.78655 1.37753 8.75389 1.4628 8.74607L7.96514 8.18389C8.20293 8.16269 8.43043 8.07704 8.62315 7.93615C8.81588 7.79527 8.96653 7.60449 9.05889 7.38435L11.5986 1.32935C11.6328 1.25172 11.6889 1.18571 11.76 1.13938C11.831 1.09304 11.914 1.06837 11.9989 1.06837C12.0837 1.06837 12.1668 1.09304 12.2378 1.13938C12.3089 1.18571 12.365 1.25172 12.3992 1.32935L14.9389 7.38435C15.0313 7.60449 15.1819 7.79527 15.3746 7.93615C15.5674 8.07704 15.7949 8.16269 16.0326 8.18389L22.535 8.74607C22.6203 8.75389 22.7014 8.78655 22.7682 8.84002C22.8351 8.89349 22.8848 8.9654 22.9112 9.04685C22.9398 9.12944 22.943 9.21869 22.9204 9.30309C22.8978 9.3875 22.8504 9.46321 22.7844 9.52045Z" fill="#343330"/>
<path d="M22.7844 9.52045L17.8515 13.8244C17.671 13.981 17.5366 14.184 17.463 14.4115C17.3893 14.639 17.3792 14.8822 17.4337 15.115L18.9125 21.5156C18.9331 21.6005 18.9279 21.6896 18.8975 21.7714C18.8671 21.8533 18.8129 21.9242 18.7419 21.975C18.6736 22.0256 18.5917 22.0544 18.5068 22.0577C18.422 22.0611 18.338 22.0387 18.2661 21.9936L12.677 18.6029C12.4731 18.4785 12.2389 18.4126 12 18.4126C11.7611 18.4126 11.5268 18.4785 11.323 18.6029L5.73389 21.9936C5.66192 22.0387 5.57801 22.0611 5.49313 22.0577C5.40825 22.0544 5.32634 22.0256 5.25811 21.975C5.18707 21.9242 5.13285 21.8533 5.10245 21.7714C5.07204 21.6896 5.06683 21.6005 5.08749 21.5156L6.56624 15.1128C6.62074 14.88 6.61063 14.6368 6.537 14.4093C6.46337 14.1819 6.32901 13.9788 6.14842 13.8222L1.21561 9.52045C1.1492 9.46347 1.10141 9.38788 1.0784 9.30346C1.0554 9.21903 1.05823 9.12965 1.08655 9.04685C1.11295 8.9654 1.16267 8.89349 1.22955 8.84002C1.29643 8.78655 1.37753 8.75389 1.4628 8.74607L7.96514 8.18389C8.20293 8.16269 8.43043 8.07704 8.62315 7.93615C8.81588 7.79527 8.96653 7.60449 9.05889 7.38435L11.5986 1.32935C11.6328 1.25172 11.6889 1.18571 11.76 1.13938C11.831 1.09304 11.914 1.06837 11.9989 1.06837C12.0837 1.06837 12.1668 1.09304 12.2378 1.13938C12.3089 1.18571 12.365 1.25172 12.3992 1.32935L14.9389 7.38435C15.0313 7.60449 15.1819 7.79527 15.3746 7.93615C15.5674 8.07704 15.7949 8.16269 16.0326 8.18389L22.535 8.74607C22.6203 8.75389 22.7014 8.78655 22.7682 8.84002C22.8351 8.89349 22.8848 8.9654 22.9112 9.04685C22.9398 9.12944 22.943 9.21869 22.9204 9.30309C22.8978 9.3875 22.8504 9.46321 22.7844 9.52045Z" fill="#F6B40A"/>
</svg>
